<svg width="32" height="33" viewBox="0 0 32 33" fill="none" xmlns="http://www.w3.org/2000/svg">
<g id="SERVI&#195;&#135;OS">
<mask id="mask0_1996_10282" style="mask-type:alpha" maskUnits="userSpaceOnUse" x="0" y="0" width="32" height="33">
<rect id="Bounding box" y="0.947369" width="32" height="32" fill="#D9D9D9"/>
</mask>
<g mask="url(#mask0_1996_10282)">
<path id="credit_card_clock" d="M4.43424 23.1707V12.504V12.9373V7.17068V23.1707ZM4.43424 9.83734H25.7676V7.17068H4.43424V9.83734ZM14.6676 25.8373H4.43424C3.70091 25.8373 3.07313 25.5762 2.55091 25.054C2.02869 24.5318 1.76758 23.904 1.76758 23.1707V7.17068C1.76758 6.43734 2.02869 5.80956 2.55091 5.28734C3.07313 4.76512 3.70091 4.50401 4.43424 4.50401H25.7676C26.5009 4.50401 27.1287 4.76512 27.6509 5.28734C28.1731 5.80956 28.4342 6.43734 28.4342 7.17068V14.1707C27.6342 13.6151 26.7676 13.1985 25.8342 12.9207C24.9009 12.6429 23.9454 12.504 22.9676 12.504C21.7676 12.504 20.612 12.7373 19.5009 13.204C18.3898 13.6707 17.412 14.3262 16.5676 15.1707H4.43424V23.1707H13.8676C13.9342 23.6373 14.0342 24.0929 14.1676 24.5373C14.3009 24.9818 14.4676 25.4151 14.6676 25.8373ZM25.3342 25.004L26.2676 24.0707L23.7676 21.5707V17.8373H22.4342V22.104L25.3342 25.004ZM23.1342 28.504C21.2676 28.504 19.6842 27.8596 18.3842 26.5707C17.0842 25.2818 16.4342 23.704 16.4342 21.8373C16.4342 19.9707 17.0842 18.3929 18.3842 17.104C19.6842 15.8151 21.2676 15.1707 23.1342 15.1707C24.9787 15.1707 26.5454 15.8207 27.8342 17.1207C29.1231 18.4207 29.7676 19.9929 29.7676 21.8373C29.7676 23.6818 29.1231 25.254 27.8342 26.554C26.5454 27.854 24.9787 28.504 23.1342 28.504Z" fill="#6DB631"/>
</g>
</g>
</svg>
