<svg width="24" height="25" viewBox="0 0 24 25" fill="none" xmlns="http://www.w3.org/2000/svg">
<mask id="mask0_1098_11321" style="mask-type:alpha" maskUnits="userSpaceOnUse" x="0" y="0" width="24" height="25">
<rect y="0.5" width="24" height="24" fill="#D9D9D9"/>
</mask>
<g mask="url(#mask0_1098_11321)">
<path d="M5 17.5V10.5H7V17.5H5ZM11 17.5V10.5H13V17.5H11ZM2 8.5V6.5L12 1.5L22 6.5V8.5H2ZM6.475 6.5H17.525L12 3.75L6.475 6.5ZM2 21.5V19.5H14.05C14.0833 19.85 14.125 20.1875 14.175 20.5125C14.225 20.8375 14.3 21.1667 14.4 21.5H2ZM17 13.75V10.5H19V12.75L17 13.75ZM20 24.5C18.85 24.2167 17.8958 23.5542 17.1375 22.5125C16.3792 21.4708 16 20.3167 16 19.05V16.5L20 14.5L24 16.5V19.05C24 20.3167 23.6208 21.4708 22.8625 22.5125C22.1042 23.5542 21.15 24.2167 20 24.5ZM19.275 21.5L22.75 18.05L21.7 17L19.275 19.375L18.3 18.4L17.25 19.475L19.275 21.5Z" fill="#1C1B1F"/>
</g>
</svg>
