<svg width="96" height="35" viewBox="0 0 96 35" fill="none" xmlns="http://www.w3.org/2000/svg">
<rect width="95.4896" height="35" rx="4.83333" fill="#F8C7D1"/>
<path d="M20.1146 27.0156C19.5331 27.0156 19.0353 26.8086 18.6212 26.3945C18.2071 25.9804 18 25.4826 18 24.901V10.099C18 9.51745 18.2071 9.01964 18.6212 8.60553C19.0353 8.19143 19.5331 7.98438 20.1146 7.98438H27.5156V10.099H20.1146V24.901H27.5156V27.0156H20.1146ZM31.7448 22.7865L30.291 21.2534L32.9871 18.5573H24.3437V16.4427H32.9871L30.291 13.7466L31.7448 12.2135L37.0312 17.5L31.7448 22.7865Z" fill="#FF2D55"/>
<path d="M51.1627 23.2175C50.4981 23.2175 49.8879 23.139 49.3321 22.9819C48.7883 22.8248 48.305 22.6073 47.8821 22.3294C47.4712 22.0515 47.1269 21.7433 46.8489 21.405C46.5831 21.0546 46.3958 20.6921 46.2871 20.3175L48.3533 19.6831C48.5104 20.1302 48.8185 20.5229 49.2777 20.8612C49.7369 21.1996 50.3048 21.3748 50.9814 21.3869C51.7669 21.3869 52.3891 21.2237 52.8483 20.8975C53.3075 20.5712 53.5371 20.1423 53.5371 19.6106C53.5371 19.1273 53.3437 18.7346 52.9571 18.4325C52.5704 18.1183 52.0508 17.8767 51.3983 17.7075L49.8396 17.3087C49.2475 17.1517 48.7098 16.9221 48.2264 16.62C47.7552 16.3179 47.3806 15.9373 47.1027 15.4781C46.8369 15.019 46.7039 14.4752 46.7039 13.8469C46.7039 12.6627 47.0906 11.7444 47.8639 11.0919C48.6373 10.4273 49.7429 10.095 51.1808 10.095C51.9904 10.095 52.6973 10.2219 53.3014 10.4756C53.9177 10.7173 54.4252 11.0556 54.8239 11.4906C55.2227 11.9135 55.5187 12.3969 55.7121 12.9406L53.6821 13.5931C53.5008 13.1098 53.1866 12.711 52.7396 12.3969C52.2925 12.0827 51.7366 11.9256 51.0721 11.9256C50.3833 11.9256 49.8396 12.0887 49.4408 12.415C49.0541 12.7412 48.8608 13.1944 48.8608 13.7744C48.8608 14.2456 49.0119 14.6142 49.3139 14.88C49.6281 15.1337 50.051 15.3271 50.5827 15.46L52.1414 15.8406C53.2773 16.1185 54.1594 16.5958 54.7877 17.2725C55.416 17.9492 55.7302 18.6983 55.7302 19.52C55.7302 20.245 55.555 20.8854 55.2046 21.4412C54.8541 21.9971 54.3346 22.4321 53.6458 22.7462C52.9691 23.0604 52.1414 23.2175 51.1627 23.2175ZM63.2041 23L63.1134 21.2962V18.3419C63.1134 17.7256 63.047 17.2121 62.9141 16.8012C62.7932 16.3783 62.5878 16.0581 62.2978 15.8406C62.0199 15.611 61.6453 15.4962 61.1741 15.4962C60.7391 15.4962 60.3584 15.5869 60.0322 15.7681C59.7059 15.9494 59.428 16.2333 59.1984 16.62L57.4222 15.9675C57.6155 15.5687 57.8693 15.2002 58.1834 14.8619C58.5097 14.5115 58.9145 14.2335 59.3978 14.0281C59.8932 13.8227 60.4853 13.72 61.1741 13.72C62.0561 13.72 62.7932 13.8952 63.3853 14.2456C63.9774 14.584 64.4124 15.0733 64.6903 15.7137C64.9803 16.3542 65.1253 17.1275 65.1253 18.0337L65.0709 23H63.2041ZM60.5941 23.2175C59.5066 23.2175 58.6607 22.9758 58.0566 22.4925C57.4645 22.0092 57.1684 21.3265 57.1684 20.4444C57.1684 19.5019 57.4826 18.7829 58.1109 18.2875C58.7514 17.7921 59.6395 17.5444 60.7753 17.5444H63.2041V19.1031H61.4278C60.6182 19.1031 60.0503 19.2179 59.7241 19.4475C59.3978 19.665 59.2347 19.9792 59.2347 20.39C59.2347 20.7404 59.3736 21.0183 59.6516 21.2237C59.9416 21.4171 60.3403 21.5137 60.8478 21.5137C61.307 21.5137 61.7057 21.411 62.0441 21.2056C62.3824 21.0002 62.6422 20.7283 62.8234 20.39C63.0168 20.0517 63.1134 19.671 63.1134 19.2481H63.7116C63.7116 20.4806 63.4639 21.4533 62.9684 22.1662C62.473 22.8671 61.6816 23.2175 60.5941 23.2175ZM67.3078 23V13.9375H69.3197V23H67.3078ZM68.3228 12.2156C67.9966 12.2156 67.7126 12.1008 67.4709 11.8712C67.2414 11.6296 67.1266 11.3456 67.1266 11.0194C67.1266 10.6931 67.2414 10.4152 67.4709 10.1856C67.7126 9.95604 67.9966 9.84125 68.3228 9.84125C68.6491 9.84125 68.927 9.95604 69.1566 10.1856C69.3982 10.4152 69.5191 10.6931 69.5191 11.0194C69.5191 11.3456 69.3982 11.6296 69.1566 11.8712C68.927 12.1008 68.6491 12.2156 68.3228 12.2156ZM73.0534 18.1787C73.0534 17.2 73.2407 16.3965 73.6153 15.7681C73.9899 15.1398 74.4732 14.6746 75.0653 14.3725C75.6695 14.0583 76.2978 13.9012 76.9503 13.9012V15.8406C76.3945 15.8406 75.8689 15.9192 75.3734 16.0762C74.8901 16.2212 74.4974 16.4629 74.1953 16.8012C73.8932 17.1396 73.7422 17.5867 73.7422 18.1425L73.0534 18.1787ZM71.7122 23V13.9375H73.7422V23H71.7122Z" fill="#FF2D55"/>
</svg>
