<svg width="24" height="24" viewBox="0 0 24 24" fill="none" xmlns="http://www.w3.org/2000/svg">
<g id="SERVI&#195;&#135;OS">
<mask id="mask0_2137_10528" style="mask-type:alpha" maskUnits="userSpaceOnUse" x="0" y="0" width="24" height="24">
<rect id="Bounding box" width="24" height="24" fill="#D9D9D9"/>
</mask>
<g mask="url(#mask0_2137_10528)">
<path id="point_of_sale" d="M7.26221 8.20801C6.71221 8.20801 6.24137 8.01217 5.84971 7.62051C5.45804 7.22884 5.26221 6.75801 5.26221 6.20801V4.20801C5.26221 3.65801 5.45804 3.18717 5.84971 2.79551C6.24137 2.40384 6.71221 2.20801 7.26221 2.20801H17.2622C17.8122 2.20801 18.283 2.40384 18.6747 2.79551C19.0664 3.18717 19.2622 3.65801 19.2622 4.20801V6.20801C19.2622 6.75801 19.0664 7.22884 18.6747 7.62051C18.283 8.01217 17.8122 8.20801 17.2622 8.20801H7.26221ZM7.26221 6.20801H17.2622V4.20801H7.26221V6.20801ZM4.26221 22.208C3.71221 22.208 3.24137 22.0122 2.84971 21.6205C2.45804 21.2288 2.26221 20.758 2.26221 20.208V19.208H22.2622V20.208C22.2622 20.758 22.0664 21.2288 21.6747 21.6205C21.283 22.0122 20.8122 22.208 20.2622 22.208H4.26221ZM2.26221 18.208L5.73721 10.383C5.90387 10.0163 6.15387 9.72884 6.48721 9.52051C6.82054 9.31217 7.17887 9.20801 7.56221 9.20801H16.9622C17.3455 9.20801 17.7039 9.31217 18.0372 9.52051C18.3705 9.72884 18.6205 10.0163 18.7872 10.383L22.2622 18.208H2.26221ZM8.76221 16.208H9.76221C9.89554 16.208 10.0122 16.158 10.1122 16.058C10.2122 15.958 10.2622 15.8413 10.2622 15.708C10.2622 15.5747 10.2122 15.458 10.1122 15.358C10.0122 15.258 9.89554 15.208 9.76221 15.208H8.76221C8.62887 15.208 8.51221 15.258 8.41221 15.358C8.31221 15.458 8.26221 15.5747 8.26221 15.708C8.26221 15.8413 8.31221 15.958 8.41221 16.058C8.51221 16.158 8.62887 16.208 8.76221 16.208ZM8.76221 14.208H9.76221C9.89554 14.208 10.0122 14.158 10.1122 14.058C10.2122 13.958 10.2622 13.8413 10.2622 13.708C10.2622 13.5747 10.2122 13.458 10.1122 13.358C10.0122 13.258 9.89554 13.208 9.76221 13.208H8.76221C8.62887 13.208 8.51221 13.258 8.41221 13.358C8.31221 13.458 8.26221 13.5747 8.26221 13.708C8.26221 13.8413 8.31221 13.958 8.41221 14.058C8.51221 14.158 8.62887 14.208 8.76221 14.208ZM8.76221 12.208H9.76221C9.89554 12.208 10.0122 12.158 10.1122 12.058C10.2122 11.958 10.2622 11.8413 10.2622 11.708C10.2622 11.5747 10.2122 11.458 10.1122 11.358C10.0122 11.258 9.89554 11.208 9.76221 11.208H8.76221C8.62887 11.208 8.51221 11.258 8.41221 11.358C8.31221 11.458 8.26221 11.5747 8.26221 11.708C8.26221 11.8413 8.31221 11.958 8.41221 12.058C8.51221 12.158 8.62887 12.208 8.76221 12.208ZM11.7622 16.208H12.7622C12.8955 16.208 13.0122 16.158 13.1122 16.058C13.2122 15.958 13.2622 15.8413 13.2622 15.708C13.2622 15.5747 13.2122 15.458 13.1122 15.358C13.0122 15.258 12.8955 15.208 12.7622 15.208H11.7622C11.6289 15.208 11.5122 15.258 11.4122 15.358C11.3122 15.458 11.2622 15.5747 11.2622 15.708C11.2622 15.8413 11.3122 15.958 11.4122 16.058C11.5122 16.158 11.6289 16.208 11.7622 16.208ZM11.7622 14.208H12.7622C12.8955 14.208 13.0122 14.158 13.1122 14.058C13.2122 13.958 13.2622 13.8413 13.2622 13.708C13.2622 13.5747 13.2122 13.458 13.1122 13.358C13.0122 13.258 12.8955 13.208 12.7622 13.208H11.7622C11.6289 13.208 11.5122 13.258 11.4122 13.358C11.3122 13.458 11.2622 13.5747 11.2622 13.708C11.2622 13.8413 11.3122 13.958 11.4122 14.058C11.5122 14.158 11.6289 14.208 11.7622 14.208ZM11.7622 12.208H12.7622C12.8955 12.208 13.0122 12.158 13.1122 12.058C13.2122 11.958 13.2622 11.8413 13.2622 11.708C13.2622 11.5747 13.2122 11.458 13.1122 11.358C13.0122 11.258 12.8955 11.208 12.7622 11.208H11.7622C11.6289 11.208 11.5122 11.258 11.4122 11.358C11.3122 11.458 11.2622 11.5747 11.2622 11.708C11.2622 11.8413 11.3122 11.958 11.4122 12.058C11.5122 12.158 11.6289 12.208 11.7622 12.208ZM14.7622 16.208H15.7622C15.8955 16.208 16.0122 16.158 16.1122 16.058C16.2122 15.958 16.2622 15.8413 16.2622 15.708C16.2622 15.5747 16.2122 15.458 16.1122 15.358C16.0122 15.258 15.8955 15.208 15.7622 15.208H14.7622C14.6289 15.208 14.5122 15.258 14.4122 15.358C14.3122 15.458 14.2622 15.5747 14.2622 15.708C14.2622 15.8413 14.3122 15.958 14.4122 16.058C14.5122 16.158 14.6289 16.208 14.7622 16.208ZM14.7622 14.208H15.7622C15.8955 14.208 16.0122 14.158 16.1122 14.058C16.2122 13.958 16.2622 13.8413 16.2622 13.708C16.2622 13.5747 16.2122 13.458 16.1122 13.358C16.0122 13.258 15.8955 13.208 15.7622 13.208H14.7622C14.6289 13.208 14.5122 13.258 14.4122 13.358C14.3122 13.458 14.2622 13.5747 14.2622 13.708C14.2622 13.8413 14.3122 13.958 14.4122 14.058C14.5122 14.158 14.6289 14.208 14.7622 14.208ZM14.7622 12.208H15.7622C15.8955 12.208 16.0122 12.158 16.1122 12.058C16.2122 11.958 16.2622 11.8413 16.2622 11.708C16.2622 11.5747 16.2122 11.458 16.1122 11.358C16.0122 11.258 15.8955 11.208 15.7622 11.208H14.7622C14.6289 11.208 14.5122 11.258 14.4122 11.358C14.3122 11.458 14.2622 11.5747 14.2622 11.708C14.2622 11.8413 14.3122 11.958 14.4122 12.058C14.5122 12.158 14.6289 12.208 14.7622 12.208Z" fill="white"/>
</g>
</g>
</svg>
