<svg width="25" height="24" viewBox="0 0 25 24" fill="none" xmlns="http://www.w3.org/2000/svg">
<g id="handshake">
<mask id="mask0_1322_9626" style="mask-type:alpha" maskUnits="userSpaceOnUse" x="0" y="0" width="25" height="24">
<rect id="Bounding box" x="0.470581" width="24" height="24" fill="#D9D9D9"/>
</mask>
<g mask="url(#mask0_1322_9626)">
<path id="handshake_2" d="M11.5363 20C11.5998 20 11.6632 19.9833 11.7267 19.95C11.7902 19.9167 11.8378 19.8833 11.8695 19.85L19.6762 11.65C19.8666 11.45 20.0055 11.225 20.0928 10.975C20.18 10.725 20.2237 10.475 20.2237 10.225C20.2237 9.95833 20.18 9.70417 20.0928 9.4625C20.0055 9.22083 19.8666 9.00833 19.6762 8.825L15.6301 4.575C15.4555 4.375 15.2532 4.22917 15.0231 4.1375C14.7931 4.04583 14.5511 4 14.2972 4C14.0592 4 13.8212 4.04583 13.5832 4.1375C13.3452 4.22917 13.131 4.375 12.9406 4.575L12.6787 4.85L14.44 6.725C14.678 6.95833 14.8526 7.225 14.9636 7.525C15.0747 7.825 15.1302 8.14167 15.1302 8.475C15.1302 9.175 14.9041 9.7625 14.4519 10.2375C13.9997 10.7125 13.4404 10.95 12.7739 10.95C12.4566 10.95 12.1512 10.8917 11.8576 10.775C11.5641 10.6583 11.3062 10.4833 11.0841 10.25L9.299 8.4L5.13383 12.775C5.08622 12.825 5.05052 12.8792 5.02672 12.9375C5.00292 12.9958 4.99102 13.0583 4.99102 13.125C4.99102 13.2583 5.03862 13.3792 5.13383 13.4875C5.22903 13.5958 5.3401 13.65 5.46704 13.65C5.53051 13.65 5.59398 13.6333 5.65745 13.6C5.72092 13.5667 5.76852 13.5333 5.80025 13.5L9.03719 10.1L10.37 11.5L7.15691 14.9C7.10931 14.95 7.07361 15.0042 7.04981 15.0625C7.02601 15.1208 7.0141 15.1833 7.0141 15.25C7.0141 15.3833 7.06171 15.5 7.15691 15.6C7.25211 15.7 7.36319 15.75 7.49012 15.75C7.55359 15.75 7.61706 15.7333 7.68053 15.7C7.744 15.6667 7.7916 15.6333 7.82334 15.6L11.0603 12.225L12.3931 13.625L9.18 17.025C9.13239 17.0583 9.09669 17.1083 9.07289 17.175C9.04909 17.2417 9.03719 17.3083 9.03719 17.375C9.03719 17.5083 9.08479 17.625 9.18 17.725C9.2752 17.825 9.38627 17.875 9.51321 17.875C9.57668 17.875 9.63618 17.8625 9.69172 17.8375C9.74725 17.8125 9.79882 17.775 9.84642 17.725L13.0834 14.35L14.4162 15.75L11.1793 19.15C11.1317 19.2 11.096 19.2542 11.0722 19.3125C11.0484 19.3708 11.0365 19.4333 11.0365 19.5C11.0365 19.6333 11.088 19.75 11.1912 19.85C11.2943 19.95 11.4094 20 11.5363 20ZM11.5125 22C10.9254 22 10.4057 21.7958 9.95353 21.3875C9.50131 20.9792 9.23553 20.4667 9.1562 19.85C8.61671 19.7667 8.16449 19.5333 7.79954 19.15C7.43459 18.7667 7.21245 18.2917 7.13311 17.725C6.59362 17.6417 6.14537 17.4042 5.78835 17.0125C5.43134 16.6208 5.21316 16.15 5.13383 15.6C4.53087 15.5167 4.03898 15.2417 3.65816 14.775C3.27735 14.3083 3.08694 13.7583 3.08694 13.125C3.08694 12.7917 3.14644 12.4708 3.26545 12.1625C3.38445 11.8542 3.55503 11.5833 3.77717 11.35L9.299 5.575L12.4169 8.85C12.4487 8.9 12.4963 8.9375 12.5597 8.9625C12.6232 8.9875 12.6867 9 12.7501 9C12.893 9 13.012 8.95417 13.1072 8.8625C13.2024 8.77083 13.25 8.65 13.25 8.5C13.25 8.43333 13.2381 8.36667 13.2143 8.3C13.1905 8.23333 13.1548 8.18333 13.1072 8.15L9.70362 4.575C9.52908 4.375 9.32677 4.22917 9.09669 4.1375C8.86662 4.04583 8.62464 4 8.37076 4C8.13275 4 7.89474 4.04583 7.65673 4.1375C7.41872 4.22917 7.20451 4.375 7.0141 4.575L3.65816 8.125C3.51536 8.275 3.39635 8.45 3.30115 8.65C3.20595 8.85 3.14248 9.05 3.11074 9.25C3.07901 9.45 3.07901 9.65417 3.11074 9.8625C3.14248 10.0708 3.20595 10.2667 3.30115 10.45L1.92069 11.9C1.65095 11.5167 1.4526 11.0958 1.32567 10.6375C1.19873 10.1792 1.15113 9.71667 1.18286 9.25C1.21459 8.78333 1.32567 8.32917 1.51607 7.8875C1.70648 7.44583 1.96829 7.05 2.30151 6.7L5.65745 3.175C6.03826 2.79167 6.46272 2.5 6.9308 2.3C7.39889 2.1 7.87887 2 8.37076 2C8.86265 2 9.34264 2.1 9.81072 2.3C10.2788 2.5 10.6953 2.79167 11.0603 3.175L11.3221 3.45L11.5839 3.175C11.9647 2.79167 12.3892 2.5 12.8573 2.3C13.3253 2.1 13.8053 2 14.2972 2C14.7891 2 15.2691 2.1 15.7372 2.3C16.2053 2.5 16.6218 2.79167 16.9867 3.175L21.0091 7.4C21.374 7.78333 21.6517 8.225 21.8421 8.725C22.0325 9.225 22.1277 9.73333 22.1277 10.25C22.1277 10.7667 22.0325 11.2708 21.8421 11.7625C21.6517 12.2542 21.374 12.6917 21.0091 13.075L13.2024 21.25C12.9802 21.4833 12.7224 21.6667 12.4288 21.8C12.1353 21.9333 11.8298 22 11.5125 22Z" fill="#B454DD"/>
</g>
</g>
</svg>
