<svg width="50" height="50" viewBox="0 0 50 50" fill="none" xmlns="http://www.w3.org/2000/svg">
<mask id="mask0_49_102" style="mask-type:alpha" maskUnits="userSpaceOnUse" x="0" y="0" width="50" height="50">
<rect width="50" height="50" fill="#D9D9D9"/>
</mask>
<g mask="url(#mask0_49_102)">
<path d="M8.33317 41.6666C7.18734 41.6666 6.20643 41.2586 5.39046 40.4426C4.57449 39.6267 4.1665 38.6458 4.1665 37.4999V12.4999C4.1665 11.3541 4.57449 10.3732 5.39046 9.55721C6.20643 8.74124 7.18734 8.33325 8.33317 8.33325H41.6665C42.8123 8.33325 43.7932 8.74124 44.6092 9.55721C45.4252 10.3732 45.8332 11.3541 45.8332 12.4999V37.4999C45.8332 38.6458 45.4252 39.6267 44.6092 40.4426C43.7932 41.2586 42.8123 41.6666 41.6665 41.6666H8.33317ZM24.9998 27.0833L8.33317 16.6666V37.4999H41.6665V16.6666L24.9998 27.0833ZM24.9998 22.9166L41.6665 12.4999H8.33317L24.9998 22.9166ZM8.33317 16.6666V12.4999V37.4999V16.6666Z" fill="#6DB631"/>
</g>
</svg>
