<svg width="24" height="24" viewBox="0 0 24 24" fill="none" xmlns="http://www.w3.org/2000/svg">
<g id="ICONES MENU">
<mask id="mask0_997_61" style="mask-type:alpha" maskUnits="userSpaceOnUse" x="0" y="0" width="24" height="24">
<rect id="Bounding box" width="24" height="24" fill="#D9D9D9"/>
</mask>
<g mask="url(#mask0_997_61)">
<path id="quick_reference_all" d="M4 3V9.025V9V19V3ZM6 13H9.5C9.65 12.6167 9.83333 12.2583 10.05 11.925C10.2667 11.5917 10.5167 11.2833 10.8 11H6V13ZM6 17H9.175C9.09167 16.6667 9.0375 16.3333 9.0125 16C8.9875 15.6667 8.99167 15.3333 9.025 15H6V17ZM4 21C3.45 21 2.97917 20.8042 2.5875 20.4125C2.19583 20.0208 2 19.55 2 19V3C2 2.45 2.19583 1.97917 2.5875 1.5875C2.97917 1.19583 3.45 1 4 1H12L18 7V9.5C17.6833 9.36667 17.3583 9.2625 17.025 9.1875C16.6917 9.1125 16.35 9.05833 16 9.025V8H11V3H4V19H10.025C10.2917 19.4 10.5917 19.7708 10.925 20.1125C11.2583 20.4542 11.625 20.75 12.025 21H4ZM15.5 18C16.2 18 16.7917 17.7583 17.275 17.275C17.7583 16.7917 18 16.2 18 15.5C18 14.8 17.7583 14.2083 17.275 13.725C16.7917 13.2417 16.2 13 15.5 13C14.8 13 14.2083 13.2417 13.725 13.725C13.2417 14.2083 13 14.8 13 15.5C13 16.2 13.2417 16.7917 13.725 17.275C14.2083 17.7583 14.8 18 15.5 18ZM20.6 22L17.9 19.3C17.55 19.5333 17.1708 19.7083 16.7625 19.825C16.3542 19.9417 15.9333 20 15.5 20C14.25 20 13.1875 19.5625 12.3125 18.6875C11.4375 17.8125 11 16.75 11 15.5C11 14.25 11.4375 13.1875 12.3125 12.3125C13.1875 11.4375 14.25 11 15.5 11C16.75 11 17.8125 11.4375 18.6875 12.3125C19.5625 13.1875 20 14.25 20 15.5C20 15.9333 19.9417 16.3542 19.825 16.7625C19.7083 17.1708 19.5333 17.55 19.3 17.9L22 20.6L20.6 22Z" fill="white"/>
</g>
</g>
</svg>
