<svg width="84" height="84" viewBox="0 0 84 84" fill="none" xmlns="http://www.w3.org/2000/svg">
<g id="thumb_up">
<mask id="mask0_744_6893" style="mask-type:alpha" maskUnits="userSpaceOnUse" x="0" y="0" width="84" height="84">
<rect id="Bounding box" width="83.458" height="83.458" fill="#D9D9D9"/>
</mask>
<g mask="url(#mask0_744_6893)">
<path id="thumb_up_2" d="M62.5937 73.0259H24.3422V27.8195L48.6841 3.47754L53.0308 7.82431C53.4365 8.23001 53.7698 8.7806 54.0306 9.47608C54.2914 10.1716 54.4218 10.8381 54.4218 11.4756V12.6927L50.5967 27.8195H73.026C74.8806 27.8195 76.5034 28.5149 77.8944 29.9059C79.2853 31.2969 79.9808 32.9197 79.9808 34.7743V41.7291C79.9808 42.1348 79.9229 42.5695 79.807 43.0332C79.691 43.4968 79.5751 43.9315 79.4592 44.3372L69.027 68.853C68.5054 70.0121 67.636 70.9974 66.4189 71.8088C65.2018 72.6202 63.9268 73.0259 62.5937 73.0259ZM31.297 66.071H62.5937L73.026 41.7291V34.7743H41.7292L46.4238 15.6485L31.297 30.7753V66.071ZM24.3422 27.8195V34.7743H13.9099V66.071H24.3422V73.0259H6.95508V27.8195H24.3422Z" fill="#1C1B1F"/>
</g>
</g>
</svg>
