<svg width="27" height="24" viewBox="0 0 27 24" fill="none" xmlns="http://www.w3.org/2000/svg">
<path d="M6.07467 11.9448C10.8556 11.9448 14.1744 7.50122 14.1744 3.86614C14.1744 1.15424 11.7556 0 9.39342 0C4.1609 0 1.29369 4.79204 1.29369 8.07861C1.29369 10.7905 3.76871 11.9448 6.07467 11.9448ZM18.9003 11.9448C23.6812 11.9448 27 7.50122 27 3.86614C27 1.15424 24.525 0 22.1623 0C16.9314 0 14.0631 4.78932 14.0631 8.07861C14.0631 10.7905 16.5943 11.9448 18.9003 11.9448ZM21.0928 20.3115C17.9494 22.9833 13.912 24.288 9.84338 23.9466C4.49956 23.6003 0.674669 19.3878 0 14.9448H0.224712C1.46222 17.7176 4.44338 20.3115 8.09973 20.7149C11.8096 21.1765 16.2556 19.446 18.674 17.0799L15.9742 14.9448H24.1301L22.3282 23.8313L21.1469 20.3691L21.0928 20.3115Z" fill="#FF2D55"/>
</svg>
