<svg width="25" height="25" viewBox="0 0 25 25" fill="none" xmlns="http://www.w3.org/2000/svg">
<mask id="mask0_2754_14064" style="mask-type:alpha" maskUnits="userSpaceOnUse" x="0" y="0" width="25" height="25">
<rect x="0.546753" y="0.880859" width="24" height="24" fill="#D9D9D9"/>
</mask>
<g mask="url(#mask0_2754_14064)">
<path fill-rule="evenodd" clip-rule="evenodd" d="M13.8653 22H4L4.00005 19.84V18.7086H9.90158H13.0726L14.658 18.1943L16.0674 17.3715L17.0363 15.9315L17.4767 13.7715V11.8172L17.0363 10.2743L16.5959 9.24574L15.5389 8.01145L14.1295 7.3943L12.456 7.08573H6.20211H4.00005V4H11.7513H14.1295L16.5959 4.61715L18.4456 5.64572L19.7668 7.08573L20.5596 8.73145L21 10.8914V15.0057L20.7357 16.7543L20.1192 18.0915L19.1503 19.4286L17.4767 20.7657L15.8031 21.5886L13.8653 22ZM4.04472 8.83701L9.72603 12.8455L4.04472 16.854V8.83701ZM16.4198 12.8455L10.6064 8.83701V16.854L16.4198 12.8455Z" fill="#6DB631"/>
</g>
</svg>
