<svg width="12" height="13" viewBox="0 0 12 13" fill="none" xmlns="http://www.w3.org/2000/svg">
<path fill-rule="evenodd" clip-rule="evenodd" d="M6.90458 11.9374H1L1.00003 10.625V9.93749H4.53222H6.43011L7.37906 9.62499L8.22256 9.12499L8.80247 8.24999L9.06607 6.93749V5.74999L8.80247 4.81249L8.53888 4.1875L7.90625 3.4375L7.06274 3.0625L6.06108 2.875H2.31801H1.00003V1H5.63932H7.06274L8.53888 1.375L9.64598 2L10.4368 2.875L10.9112 3.875L11.1748 5.18749V7.68749L11.0166 8.74999L10.6476 9.56249L10.0677 10.375L9.06607 11.1874L8.06441 11.6874L6.90458 11.9374ZM1.02677 3.93914L4.42715 6.37484L1.02677 8.81053V3.93914ZM8.43351 6.37484L4.95404 3.93914V8.81053L8.43351 6.37484Z" fill="#6DB631"/>
</svg>
