<svg width="32" height="33" viewBox="0 0 32 33" fill="none" xmlns="http://www.w3.org/2000/svg">
<g id="SERVI&#195;&#135;OS">
<mask id="mask0_1996_10270" style="mask-type:alpha" maskUnits="userSpaceOnUse" x="0" y="0" width="32" height="33">
<rect id="Bounding box" y="0.947372" width="32" height="32" fill="#D9D9D9"/>
</mask>
<g mask="url(#mask0_1996_10270)">
<path id="credit_card" d="M28.8703 8.50629V24.5063C28.8703 25.2396 28.6092 25.8674 28.0869 26.3896C27.5647 26.9118 26.9369 27.173 26.2036 27.173H4.87028C4.13695 27.173 3.50917 26.9118 2.98695 26.3896C2.46472 25.8674 2.20361 25.2396 2.20361 24.5063V8.50629C2.20361 7.77296 2.46472 7.14518 2.98695 6.62296C3.50917 6.10073 4.13695 5.83962 4.87028 5.83962H26.2036C26.9369 5.83962 27.5647 6.10073 28.0869 6.62296C28.6092 7.14518 28.8703 7.77296 28.8703 8.50629ZM4.87028 11.173H26.2036V8.50629H4.87028V11.173ZM4.87028 16.5063V24.5063H26.2036V16.5063H4.87028Z" fill="#6DB631"/>
</g>
</g>
</svg>
