<svg width="46" height="40" viewBox="0 0 46 40" fill="none" xmlns="http://www.w3.org/2000/svg">
<path d="M4.25016 27.2501C3.10433 27.2501 2.12343 26.8422 1.30745 26.0262C0.491482 25.2102 0.0834961 24.2293 0.0834961 23.0835V4.33348C0.0834961 3.18764 0.491482 2.20674 1.30745 1.39077C2.12343 0.574795 3.10433 0.166809 4.25016 0.166809H41.7502C42.896 0.166809 43.8769 0.574795 44.6929 1.39077C45.5088 2.20674 45.9168 3.18764 45.9168 4.33348V23.0835C45.9168 24.2293 45.5088 25.2102 44.6929 26.0262C43.8769 26.8422 42.896 27.2501 41.7502 27.2501H4.25016ZM4.25016 4.33348V23.0835H41.7502V4.33348H4.25016ZM4.40641 34.5418L4.25016 31.4168L41.6981 29.4376L41.8543 32.5626L4.40641 34.5418ZM4.25016 39.6981V36.5731H41.7502V39.6981H4.25016ZM19.3543 19.9585C21.9238 19.9585 24.3977 19.5071 26.7762 18.6043C29.1547 17.7015 31.2293 16.3126 33.0002 14.4376C33.2085 15.896 33.9724 17.0071 35.2918 17.771C36.6113 18.5349 38.0696 18.9168 39.6668 18.9168V8.50014C38.0696 8.50014 36.6113 8.89077 35.2918 9.67202C33.9724 10.4533 33.2085 11.5904 33.0002 13.0835C31.1599 11.2779 29.0679 9.88903 26.7241 8.91681C24.3804 7.94459 21.9238 7.45848 19.3543 7.45848C16.6113 7.45848 13.9724 7.93591 11.4377 8.89077C8.90294 9.84563 6.85433 11.4515 5.29183 13.7085C6.85433 15.9654 8.90294 17.5713 11.4377 18.5262C13.9724 19.481 16.6113 19.9585 19.3543 19.9585Z" fill="#6DB631"/>
</svg>
