<svg width="24" height="30" viewBox="0 0 24 30" fill="none" xmlns="http://www.w3.org/2000/svg">
<path d="M0 29.6141V20.2808C0 18.4363 0.65 16.8641 1.95 15.5641C3.25 14.2641 4.82222 13.6141 6.66667 13.6141H8V2.94743C8 2.2141 8.26111 1.58632 8.78333 1.0641C9.30556 0.541873 9.93333 0.280762 10.6667 0.280762H13.3333C14.0667 0.280762 14.6944 0.541873 15.2167 1.0641C15.7389 1.58632 16 2.2141 16 2.94743V13.6141H17.3333C19.1778 13.6141 20.75 14.2641 22.05 15.5641C23.35 16.8641 24 18.4363 24 20.2808V29.6141H0ZM2.66667 26.9474H5.33333V22.9474C5.33333 22.5697 5.46111 22.253 5.71667 21.9974C5.97222 21.7419 6.28889 21.6141 6.66667 21.6141C7.04444 21.6141 7.36111 21.7419 7.61667 21.9974C7.87222 22.253 8 22.5697 8 22.9474V26.9474H10.6667V22.9474C10.6667 22.5697 10.7944 22.253 11.05 21.9974C11.3056 21.7419 11.6222 21.6141 12 21.6141C12.3778 21.6141 12.6944 21.7419 12.95 21.9974C13.2056 22.253 13.3333 22.5697 13.3333 22.9474V26.9474H16V22.9474C16 22.5697 16.1278 22.253 16.3833 21.9974C16.6389 21.7419 16.9556 21.6141 17.3333 21.6141C17.7111 21.6141 18.0278 21.7419 18.2833 21.9974C18.5389 22.253 18.6667 22.5697 18.6667 22.9474V26.9474H21.3333V20.2808C21.3333 19.1697 20.9444 18.2252 20.1667 17.4474C19.3889 16.6697 18.4444 16.2808 17.3333 16.2808H6.66667C5.55556 16.2808 4.61111 16.6697 3.83333 17.4474C3.05556 18.2252 2.66667 19.1697 2.66667 20.2808V26.9474ZM13.3333 13.6141V2.94743H10.6667V13.6141H13.3333Z" fill="#6DB631"/>
</svg>
