<svg width="44" height="58" viewBox="0 0 44 58" fill="none" xmlns="http://www.w3.org/2000/svg">
<path d="M39.5 0.849609C40.5489 0.849618 41.4004 1.70105 41.4004 2.75V13.25C41.4004 14.299 40.5489 15.1504 39.5 15.1504H37.9053C37.9307 16.0805 38.2086 16.986 38.7148 17.7695L41.7266 22.4219L41.877 22.6533H41.8662C42.7046 24.0376 43.1526 25.6279 43.1504 27.25V48.25L43.1377 48.708C42.903 53.2569 39.2569 56.9031 34.708 57.1377L34.25 57.1504H9.75C4.83658 57.1456 0.854244 53.1634 0.849609 48.25V27.25L0.855469 26.9287C0.908316 25.4169 1.34824 23.9443 2.13281 22.6514H2.12305L2.27344 22.4199L5.28516 17.7666L5.47363 17.4512C5.8612 16.7446 6.07258 15.9562 6.09473 15.1504H4.5C3.45104 15.1504 2.59961 14.299 2.59961 13.25V2.75C2.59961 1.70104 3.45104 0.849609 4.5 0.849609H39.5ZM9.4873 22.1572C6.79392 22.2979 4.65392 24.5225 4.64941 27.25V48.25L4.65723 48.5127C4.79785 51.2062 7.02238 53.3462 9.75 53.3506H34.25L34.5117 53.3428C37.2055 53.2025 39.3453 50.9779 39.3496 48.25V27.25L39.3428 26.9883C39.207 24.3813 37.1187 22.293 34.5117 22.1572L34.25 22.1504H9.75L9.4873 22.1572ZM34.25 46.3496C35.299 46.3496 36.1504 47.201 36.1504 48.25C36.1504 49.2989 35.2989 50.1504 34.25 50.1504C33.2011 50.1503 32.3496 49.2989 32.3496 48.25C32.3496 47.2011 33.2011 46.3497 34.25 46.3496ZM29.3008 30.2988C30.3497 30.2988 31.2012 31.1503 31.2012 32.1992C31.2012 33.2482 30.3497 34.0996 29.3008 34.0996C28.2519 34.0996 27.4004 33.2481 27.4004 32.1992C27.4004 31.1503 28.2519 30.2989 29.3008 30.2988ZM34.25 25.3496C35.299 25.3496 36.1504 26.201 36.1504 27.25C36.1504 28.2989 35.2989 29.1504 34.25 29.1504C33.2011 29.1503 32.3496 28.2989 32.3496 27.25C32.3496 26.2011 33.2011 25.3497 34.25 25.3496ZM9.89551 15.1504C9.87691 16.2551 9.653 17.345 9.23438 18.3682C9.40459 18.3576 9.57657 18.3506 9.75 18.3506H34.25C34.4228 18.3506 34.594 18.3576 34.7637 18.3682C34.3452 17.3452 34.1221 16.2549 34.1035 15.1504H9.89551ZM34.3994 11.3506H37.5996V4.65039H34.3994V11.3506ZM27.3994 11.3506H30.5996V4.65039H27.3994V11.3506ZM20.3994 11.3506H23.5996V4.65039H20.3994V11.3506ZM13.3994 11.3506H16.5996V4.65039H13.3994V11.3506ZM6.39941 11.3506H9.59961V4.65039H6.39941V11.3506Z" fill="#6DB631" stroke="#6DB631" stroke-width="0.3"/>
</svg>
