<svg width="32" height="33" viewBox="0 0 32 33" fill="none" xmlns="http://www.w3.org/2000/svg">
<mask id="mask0_4395_30388" style="mask-type:alpha" maskUnits="userSpaceOnUse" x="0" y="0" width="32" height="33">
<rect y="0.947388" width="32" height="32" fill="#D9D9D9"/>
</mask>
<g mask="url(#mask0_4395_30388)">
<path d="M2.6665 26.2808V23.6141H29.3332V26.2808H2.6665ZM3.99984 22.2808V20.9474C3.99984 18.103 4.87206 15.5919 6.6165 13.4141C8.36095 11.2363 10.5998 9.85854 13.3332 9.28076V8.94743C13.3332 8.2141 13.5943 7.58632 14.1165 7.0641C14.6387 6.54187 15.2665 6.28076 15.9998 6.28076C16.7332 6.28076 17.3609 6.54187 17.8832 7.0641C18.4054 7.58632 18.6665 8.2141 18.6665 8.94743V9.28076C21.4221 9.85854 23.6665 11.2363 25.3998 13.4141C27.1332 15.5919 27.9998 18.103 27.9998 20.9474V22.2808H3.99984ZM6.73317 19.6141H25.2665C24.9554 17.303 23.9221 15.3919 22.1665 13.8808C20.4109 12.3697 18.3554 11.6141 15.9998 11.6141C13.6443 11.6141 11.5943 12.3697 9.84984 13.8808C8.10539 15.3919 7.0665 17.303 6.73317 19.6141Z" fill="#6DB631"/>
</g>
</svg>
