<svg width="32" height="33" viewBox="0 0 32 33" fill="none" xmlns="http://www.w3.org/2000/svg">
<mask id="mask0_4395_30358" style="mask-type:alpha" maskUnits="userSpaceOnUse" x="0" y="0" width="32" height="33">
<rect y="0.947388" width="32" height="32" fill="#D9D9D9"/>
</mask>
<g mask="url(#mask0_4395_30358)">
<path d="M4.00016 20.9474C3.26683 20.9474 2.63905 20.6863 2.11683 20.1641C1.59461 19.6419 1.3335 19.0141 1.3335 18.2807V6.28074C1.3335 5.54741 1.59461 4.91963 2.11683 4.39741C2.63905 3.87519 3.26683 3.61407 4.00016 3.61407H28.0002C28.7335 3.61407 29.3613 3.87519 29.8835 4.39741C30.4057 4.91963 30.6668 5.54741 30.6668 6.28074V18.2807C30.6668 19.0141 30.4057 19.6419 29.8835 20.1641C29.3613 20.6863 28.7335 20.9474 28.0002 20.9474H4.00016ZM4.00016 6.28074V18.2807H28.0002V6.28074H4.00016ZM4.10016 25.6141L4.00016 23.6141L27.9668 22.3474L28.0668 24.3474L4.10016 25.6141ZM4.00016 28.9141V26.9141H28.0002V28.9141H4.00016ZM13.6668 16.2807C15.3113 16.2807 16.8946 15.9919 18.4168 15.4141C19.9391 14.8363 21.2668 13.9474 22.4002 12.7474C22.5335 13.6807 23.0224 14.3919 23.8668 14.8807C24.7113 15.3696 25.6446 15.6141 26.6668 15.6141V8.94741C25.6446 8.94741 24.7113 9.19741 23.8668 9.69741C23.0224 10.1974 22.5335 10.9252 22.4002 11.8807C21.2224 10.7252 19.8835 9.8363 18.3835 9.21408C16.8835 8.59185 15.3113 8.28074 13.6668 8.28074C11.9113 8.28074 10.2224 8.5863 8.60016 9.19741C6.97794 9.80852 5.66683 10.8363 4.66683 12.2807C5.66683 13.7252 6.97794 14.753 8.60016 15.3641C10.2224 15.9752 11.9113 16.2807 13.6668 16.2807Z" fill="#6DB631"/>
</g>
</svg>
