<svg width="28" height="20" viewBox="0 0 28 20" fill="none" xmlns="http://www.w3.org/2000/svg">
<path d="M7.33317 19.2807C6.22206 19.2807 5.27761 18.8918 4.49984 18.114C3.72206 17.3362 3.33317 16.3918 3.33317 15.2807H0.666504V11.2807C0.666504 9.81401 1.18873 8.55846 2.23317 7.51401C3.27762 6.46957 4.53317 5.94735 5.99984 5.94735H11.3332V12.614H15.9998L20.6665 6.81401V3.28068H16.6665V0.614014H20.6665C21.3998 0.614014 22.0276 0.875125 22.5498 1.39735C23.0721 1.91957 23.3332 2.54735 23.3332 3.28068V7.74735L17.3332 15.2807H11.3332C11.3332 16.3918 10.9443 17.3362 10.1665 18.114C9.38873 18.8918 8.44428 19.2807 7.33317 19.2807ZM7.33317 16.614C7.71095 16.614 8.02761 16.4862 8.28317 16.2307C8.53873 15.9751 8.6665 15.6585 8.6665 15.2807H5.99984C5.99984 15.6585 6.12761 15.9751 6.38317 16.2307C6.63873 16.4862 6.95539 16.614 7.33317 16.614ZM4.6665 4.61401V1.94735H11.3332V4.61401H4.6665ZM23.3332 19.2807C22.2221 19.2807 21.2776 18.8918 20.4998 18.114C19.7221 17.3362 19.3332 16.3918 19.3332 15.2807C19.3332 14.1696 19.7221 13.2251 20.4998 12.4473C21.2776 11.6696 22.2221 11.2807 23.3332 11.2807C24.4443 11.2807 25.3887 11.6696 26.1665 12.4473C26.9443 13.2251 27.3332 14.1696 27.3332 15.2807C27.3332 16.3918 26.9443 17.3362 26.1665 18.114C25.3887 18.8918 24.4443 19.2807 23.3332 19.2807ZM23.3332 16.614C23.7109 16.614 24.0276 16.4862 24.2832 16.2307C24.5387 15.9751 24.6665 15.6585 24.6665 15.2807C24.6665 14.9029 24.5387 14.5862 24.2832 14.3307C24.0276 14.0751 23.7109 13.9473 23.3332 13.9473C22.9554 13.9473 22.6387 14.0751 22.3832 14.3307C22.1276 14.5862 21.9998 14.9029 21.9998 15.2807C21.9998 15.6585 22.1276 15.9751 22.3832 16.2307C22.6387 16.4862 22.9554 16.614 23.3332 16.614ZM3.33317 12.614H8.6665V8.61401H5.99984C5.2665 8.61401 4.63873 8.87512 4.1165 9.39735C3.59428 9.91957 3.33317 10.5473 3.33317 11.2807V12.614Z" fill="#6DB631"/>
</svg>
