<svg width="14" height="14" viewBox="0 0 14 14" fill="none" xmlns="http://www.w3.org/2000/svg">
<mask id="mask0_5005_12905" style="mask-type:alpha" maskUnits="userSpaceOnUse" x="0" y="0" width="14" height="14">
<rect width="14" height="14" fill="#D9D9D9"/>
</mask>
<g mask="url(#mask0_5005_12905)">
<path d="M3.41258 9.975C3.90842 9.59584 4.46258 9.29688 5.07508 9.07813C5.68758 8.85938 6.32925 8.75 7.00008 8.75C7.67092 8.75 8.31258 8.85938 8.92508 9.07813C9.53758 9.29688 10.0917 9.59584 10.5876 9.975C10.9279 9.57639 11.1928 9.12431 11.3824 8.61875C11.572 8.1132 11.6667 7.57361 11.6667 7C11.6667 5.70695 11.2122 4.6059 10.3032 3.69688C9.39418 2.78785 8.29314 2.33333 7.00008 2.33333C5.70703 2.33333 4.60598 2.78785 3.69696 3.69688C2.78793 4.6059 2.33341 5.70695 2.33341 7C2.33341 7.57361 2.42821 8.1132 2.61779 8.61875C2.80737 9.12431 3.0723 9.57639 3.41258 9.975ZM7.00008 7.58333C6.42647 7.58333 5.94279 7.38646 5.54904 6.99271C5.15529 6.59896 4.95842 6.11528 4.95842 5.54167C4.95842 4.96806 5.15529 4.48438 5.54904 4.09063C5.94279 3.69688 6.42647 3.5 7.00008 3.5C7.57369 3.5 8.05737 3.69688 8.45112 4.09063C8.84487 4.48438 9.04175 4.96806 9.04175 5.54167C9.04175 6.11528 8.84487 6.59896 8.45112 6.99271C8.05737 7.38646 7.57369 7.58333 7.00008 7.58333ZM7.00008 12.8333C6.19314 12.8333 5.4348 12.6802 4.72508 12.374C4.01536 12.0677 3.398 11.6521 2.873 11.1271C2.348 10.6021 1.93237 9.98472 1.62612 9.275C1.31987 8.56528 1.16675 7.80695 1.16675 7C1.16675 6.19306 1.31987 5.43472 1.62612 4.725C1.93237 4.01528 2.348 3.39792 2.873 2.87292C3.398 2.34792 4.01536 1.93229 4.72508 1.62604C5.4348 1.31979 6.19314 1.16667 7.00008 1.16667C7.80703 1.16667 8.56536 1.31979 9.27508 1.62604C9.9848 1.93229 10.6022 2.34792 11.1272 2.87292C11.6522 3.39792 12.0678 4.01528 12.374 4.725C12.6803 5.43472 12.8334 6.19306 12.8334 7C12.8334 7.80695 12.6803 8.56528 12.374 9.275C12.0678 9.98472 11.6522 10.6021 11.1272 11.1271C10.6022 11.6521 9.9848 12.0677 9.27508 12.374C8.56536 12.6802 7.80703 12.8333 7.00008 12.8333ZM7.00008 11.6667C7.51536 11.6667 8.00147 11.5913 8.45842 11.4406C8.91536 11.2899 9.33342 11.0736 9.71258 10.7917C9.33342 10.5097 8.91536 10.2934 8.45842 10.1427C8.00147 9.99202 7.51536 9.91667 7.00008 9.91667C6.4848 9.91667 5.99869 9.99202 5.54175 10.1427C5.0848 10.2934 4.66675 10.5097 4.28758 10.7917C4.66675 11.0736 5.0848 11.2899 5.54175 11.4406C5.99869 11.5913 6.4848 11.6667 7.00008 11.6667ZM7.00008 6.41667C7.25286 6.41667 7.46189 6.33403 7.62716 6.16875C7.79244 6.00347 7.87508 5.79445 7.87508 5.54167C7.87508 5.28889 7.79244 5.07986 7.62716 4.91458C7.46189 4.74931 7.25286 4.66667 7.00008 4.66667C6.7473 4.66667 6.53828 4.74931 6.373 4.91458C6.20772 5.07986 6.12508 5.28889 6.12508 5.54167C6.12508 5.79445 6.20772 6.00347 6.373 6.16875C6.53828 6.33403 6.7473 6.41667 7.00008 6.41667Z" fill="#949494"/>
</g>
</svg>
