<svg width="84" height="84" viewBox="0 0 84 84" fill="none" xmlns="http://www.w3.org/2000/svg">
<g id="add_circle">
<mask id="mask0_717_6001" style="mask-type:alpha" maskUnits="userSpaceOnUse" x="0" y="0" width="84" height="84">
<rect id="Bounding box" width="83.458" height="83.458" fill="#D9D9D9"/>
</mask>
<g mask="url(#mask0_717_6001)">
<path id="add_circle_2" d="M38.2513 59.1158H45.2062V45.2062H59.1158V38.2513H45.2062V24.3417H38.2513V38.2513H24.3417V45.2062H38.2513V59.1158ZM41.7288 76.5029C36.9183 76.5029 32.3977 75.5901 28.1668 73.7645C23.936 71.9388 20.2557 69.4612 17.126 66.3315C13.9964 63.2018 11.5187 59.5215 9.69306 55.2907C7.86741 51.0598 6.95459 46.5392 6.95459 41.7288C6.95459 36.9183 7.86741 32.3977 9.69306 28.1668C11.5187 23.936 13.9964 20.2557 17.126 17.126C20.2557 13.9964 23.936 11.5187 28.1668 9.69306C32.3977 7.86741 36.9183 6.95459 41.7288 6.95459C46.5392 6.95459 51.0598 7.86741 55.2907 9.69306C59.5215 11.5187 63.2018 13.9964 66.3315 17.126C69.4612 20.2557 71.9388 23.936 73.7645 28.1668C75.5901 32.3977 76.5029 36.9183 76.5029 41.7288C76.5029 46.5392 75.5901 51.0598 73.7645 55.2907C71.9388 59.5215 69.4612 63.2018 66.3315 66.3315C63.2018 69.4612 59.5215 71.9388 55.2907 73.7645C51.0598 75.5901 46.5392 76.5029 41.7288 76.5029ZM41.7288 69.5481C49.495 69.5481 56.0731 66.8531 61.4631 61.4631C66.8531 56.0731 69.5481 49.495 69.5481 41.7288C69.5481 33.9625 66.8531 27.3844 61.4631 21.9944C56.0731 16.6044 49.495 13.9094 41.7288 13.9094C33.9625 13.9094 27.3844 16.6044 21.9944 21.9944C16.6044 27.3844 13.9094 33.9625 13.9094 41.7288C13.9094 49.495 16.6044 56.0731 21.9944 61.4631C27.3844 66.8531 33.9625 69.5481 41.7288 69.5481Z" fill="#6DB631"/>
</g>
</g>
</svg>
