<svg width="21" height="21" viewBox="0 0 21 21" fill="none" xmlns="http://www.w3.org/2000/svg">
<path d="M13.4597 3.78516C13.1097 3.78516 12.8139 3.66432 12.5722 3.42266C12.3306 3.18099 12.2097 2.88516 12.2097 2.53516C12.2097 2.18516 12.3306 1.88932 12.5722 1.64766C12.8139 1.40599 13.1097 1.28516 13.4597 1.28516C13.8097 1.28516 14.1055 1.40599 14.3472 1.64766C14.5889 1.88932 14.7097 2.18516 14.7097 2.53516C14.7097 2.88516 14.5889 3.18099 14.3472 3.42266C14.1055 3.66432 13.8097 3.78516 13.4597 3.78516ZM13.4597 20.2852C13.1097 20.2852 12.8139 20.1643 12.5722 19.9227C12.3306 19.681 12.2097 19.3852 12.2097 19.0352C12.2097 18.6852 12.3306 18.3893 12.5722 18.1477C12.8139 17.906 13.1097 17.7852 13.4597 17.7852C13.8097 17.7852 14.1055 17.906 14.3472 18.1477C14.5889 18.3893 14.7097 18.6852 14.7097 19.0352C14.7097 19.3852 14.5889 19.681 14.3472 19.9227C14.1055 20.1643 13.8097 20.2852 13.4597 20.2852ZM17.4597 7.28516C17.1097 7.28516 16.8139 7.16432 16.5722 6.92266C16.3306 6.68099 16.2097 6.38516 16.2097 6.03516C16.2097 5.68516 16.3306 5.38932 16.5722 5.14766C16.8139 4.90599 17.1097 4.78516 17.4597 4.78516C17.8097 4.78516 18.1056 4.90599 18.3472 5.14766C18.5889 5.38932 18.7097 5.68516 18.7097 6.03516C18.7097 6.38516 18.5889 6.68099 18.3472 6.92266C18.1056 7.16432 17.8097 7.28516 17.4597 7.28516ZM17.4597 16.7852C17.1097 16.7852 16.8139 16.6643 16.5722 16.4227C16.3306 16.181 16.2097 15.8852 16.2097 15.5352C16.2097 15.1852 16.3306 14.8893 16.5722 14.6477C16.8139 14.406 17.1097 14.2852 17.4597 14.2852C17.8097 14.2852 18.1056 14.406 18.3472 14.6477C18.5889 14.8893 18.7097 15.1852 18.7097 15.5352C18.7097 15.8852 18.5889 16.181 18.3472 16.4227C18.1056 16.6643 17.8097 16.7852 17.4597 16.7852ZM18.9597 12.0352C18.6097 12.0352 18.3139 11.9143 18.0722 11.6727C17.8306 11.431 17.7097 11.1352 17.7097 10.7852C17.7097 10.4352 17.8306 10.1393 18.0722 9.89766C18.3139 9.65599 18.6097 9.53516 18.9597 9.53516C19.3097 9.53516 19.6056 9.65599 19.8472 9.89766C20.0889 10.1393 20.2097 10.4352 20.2097 10.7852C20.2097 11.1352 20.0889 11.431 19.8472 11.6727C19.6056 11.9143 19.3097 12.0352 18.9597 12.0352ZM10.2097 20.7852C8.82638 20.7852 7.52638 20.5227 6.30972 19.9977C5.09305 19.4727 4.03472 18.7602 3.13472 17.8602C2.23472 16.9602 1.52222 15.9018 0.997217 14.6852C0.472217 13.4685 0.209717 12.1685 0.209717 10.7852C0.209717 9.40182 0.472217 8.10182 0.997217 6.88516C1.52222 5.66849 2.23472 4.61016 3.13472 3.71016C4.03472 2.81016 5.09305 2.09766 6.30972 1.57266C7.52638 1.04766 8.82638 0.785156 10.2097 0.785156V2.78516C7.97638 2.78516 6.08472 3.56016 4.53472 5.11016C2.98472 6.66016 2.20972 8.55182 2.20972 10.7852C2.20972 13.0185 2.98472 14.9102 4.53472 16.4602C6.08472 18.0102 7.97638 18.7852 10.2097 18.7852V20.7852ZM10.2097 12.7852C9.65972 12.7852 9.18888 12.5893 8.79722 12.1977C8.40555 11.806 8.20972 11.3352 8.20972 10.7852C8.20972 10.7018 8.21388 10.6143 8.22222 10.5227C8.23055 10.431 8.25138 10.3435 8.28472 10.2602L6.20972 8.18516L7.60972 6.78516L9.68472 8.86016C9.75138 8.84349 9.92638 8.81849 10.2097 8.78516C10.7597 8.78516 11.2306 8.98099 11.6222 9.37266C12.0139 9.76432 12.2097 10.2352 12.2097 10.7852C12.2097 11.3352 12.0139 11.806 11.6222 12.1977C11.2306 12.5893 10.7597 12.7852 10.2097 12.7852Z" fill="#8A38F5"/>
</svg>
