<?xml version="1.0" encoding="utf-8"?>
<!-- Generator: Adobe Illustrator 24.1.3, SVG Export Plug-In . SVG Version: 6.00 Build 0)  -->
<svg version="1.1" id="Layer_1" xmlns="http://www.w3.org/2000/svg" xmlns:xlink="http://www.w3.org/1999/xlink" x="0px" y="0px"
	 viewBox="0 0 196.2 60.3" style="enable-background:new 0 0 196.2 60.3;" xml:space="preserve">
<style type="text/css">
	.st0{fill:#003D64;}
	.st1{fill:#009AFF;}
</style>
<path class="st0" d="M196.2,42.5c0,0.2,0,0.4,0,0.6c-0.3-0.2-0.2-0.5-0.2-0.8c0-8.2,0-16.4,0-24.6c0-0.3,0-0.6,0.2-0.8
	c0,1.7,0,3.3,0,5C196.2,28.7,196.2,35.6,196.2,42.5z"/>
<path class="st0" d="M188.7,22c-1.3-4.2-5.9-6.9-10.2-6c-4.4,0.8-7.4,5.2-7.2,8.8c0.2,2.8,0,5.6,0,8.5v9.5c0,0.9,0.4,1.3,1.3,1.2
	c0.8-0.1,1.2-0.6,1.2-1.4c0-3,0-6,0-8.9c0-0.5,0.1-0.6,0.6-0.6c3.8,0,7.6,0,11.4,0c0.5,0,0.6,0.2,0.6,0.6c0,2.8,0,5.6,0,8.5
	c0,0.3,0,0.6,0.1,0.8c0.2,0.8,0.8,1.1,1.6,1c0.7-0.1,0.9-0.5,0.9-1.3V24.2C189,23.4,188.9,22.7,188.7,22z M186.5,26.9
	c0,1-0.1,2.1-0.1,3.1c0,0.4-0.1,0.5-0.5,0.5c-1.9,0-3.9,0-5.8,0s-3.9,0-5.8,0c-0.4,0-0.5-0.1-0.5-0.5c0-1.8,0-3.7,0-5.5
	c0.1-3.2,2.4-5.5,5.8-6c2.8-0.4,5.7,1.5,6.5,4.2C186.5,24,186.5,25.4,186.5,26.9z"/>
<path class="st1" d="M80.3,33.1c0-0.4,0-0.7-0.1-1.1c-0.6-3.2-2.5-5.5-5.2-7.1c-2.7-1.6-5.5-1.3-8.3-0.4c-4.7,1.4-7.5,7-6.2,11.9
	c1.3,4.9,5.9,8,11,7.5c1.6-0.2,3.1-0.7,4.3-1.7c0.6-0.4,1.2-0.8,1.9-1.2c0,0.7,0,1.3,0.1,1.9c0.1,0.8,0.6,1.2,1.6,1.1
	c0.6-0.1,0.9-0.4,0.9-1.2C80.3,39.5,80.3,36.3,80.3,33.1z M70.6,41.4c-4.5,0-7.8-3.1-7.8-7.3c0-4,3.2-8.1,7.5-7.6
	c4.7-0.4,7.4,3.9,7.4,7.8C77.7,38.1,74.4,41.4,70.6,41.4z"/>
<path class="st1" d="M157.4,31.7c-1-4.6-5.3-8-10-7.7c-0.3,0-0.7,0-1,0c-2.4,0.2-4.5,1-6.1,2.8c-2.6,2.8-3.5,6.2-2.4,9.9
	c2.2,7.7,10.6,9.1,15.3,5.4c0.5-0.4,1.1-0.8,1.8-1.1c0,0.4,0,0.7,0,1c0,0.3,0,0.6,0,0.9c0.2,0.9,0.6,1.2,1.6,1.1
	c0.7,0,0.9-0.4,0.9-1.3c0-3.1,0-6.2,0-9.3C157.5,32.8,157.5,32.2,157.4,31.7z M147.8,41.4c-4.5,0-7.8-3.1-7.8-7.2
	c0-4,3.2-8.1,7.5-7.7c4.6-0.4,7.4,3.7,7.4,7.9C154.9,38.1,151.6,41.4,147.8,41.4z"/>
<path class="st1" d="M123.9,33.8c-0.1-2.9-1.3-5.4-3.3-7.4c-2.2-2.2-4.8-2.5-7.7-2.5c-4,0-9.5,4.6-9,9.9c-0.4,6.7,5.6,10.3,9.9,10.2
	C118.8,43.9,124.1,39.6,123.9,33.8z M113.9,41.4c-4.3,0.3-7.5-3.5-7.5-7.1c0-2.3,0.6-4.2,2.3-5.8c1.4-1.3,3-2.1,5-2.2
	c4.1,0,7.7,3.6,7.7,7.6C121.4,37.7,118,41.7,113.9,41.4z"/>
<path class="st1" d="M100.6,36.5c0.1,2.1,0.1,4.1-0.1,6.2c0,0.4,0.1,0.9-0.3,1.1c-0.6,0.3-1.2,0.3-1.8,0c-0.2-0.1-0.2-0.3-0.3-0.6
	c-0.4-2.5-0.2-5-0.2-7.5c0-1.7,0.3-3.3-0.2-5c-0.7-2.5-2.7-4.1-4.9-4.2c-3.8-0.2-6.2,2.4-6.3,6.1c-0.1,1.9,0.1,3.7,0.2,5.6
	c0.1,1.6,0,3.2-0.2,4.7c-0.1,0.8-0.5,1-1.1,1c-0.8,0.1-1.2-0.2-1.3-0.9c-0.1-1.1-0.2-2.2-0.2-3.4c0-2.7,0.1-5.3,0.1-8
	c0-3.4,3.5-7.7,7.6-7.7c2.6,0,4.9,0.4,6.6,2.4c1.5,1.7,2.3,3.7,2.3,6C100.6,33.7,100.6,35.1,100.6,36.5z"/>
<path class="st1" d="M127.2,28.2c0-3.7,0-7.4,0-11.1c0-0.5,0.1-0.9,0.6-1.1c0.5-0.2,1-0.2,1.5,0c0.4,0.2,0.5,0.7,0.5,1.1
	c0,2,0,4,0,6.1c0,0.6,0.2,0.7,0.7,0.7c1-0.1,1.9-0.1,2.9,0c1.1,0,1.5,0.3,1.5,1c0,1-0.4,1.5-1.5,1.6c-1.1,0.1-2.1,0-3.2,0
	c-0.3,0-0.4,0.1-0.4,0.4c0,4.1,0,8.2,0,12.3c0,1.2,0.8,1.9,2.1,2.1c0.6,0.1,1.3,0.1,1.9,0.1c0.6,0,1.1,0.5,1.2,1.2
	c0,1-0.2,1.3-1,1.3c-1,0-2,0.1-2.9-0.1c-2-0.3-3.7-2.6-3.8-4.7C127.2,35.5,127.2,31.9,127.2,28.2z"/>
<path class="st0" d="M196.2,42.5c0,0.2,0,0.4,0,0.6c-0.2,0.6-0.6,0.8-1.3,0.8c-0.6,0-1-0.4-1.2-1c-0.1-0.3-0.1-0.6-0.1-1
	c0-8.1,0-16.2,0-24.3c0-0.2,0-0.4,0-0.6c0.1-0.8,0.5-1.2,1.2-1.3c0.6-0.1,1.1,0.3,1.4,1c0,1.7,0,3.3,0,5
	C196.2,28.7,196.2,35.6,196.2,42.5z"/>
<g id="Logo_1_">
	<g>
		<path class="st1" d="M25.5,5.9c-0.9-0.2-1.8-0.4-2.7-0.5c-0.6-0.1-1.2-0.2-1.9-0.3c-0.7-0.1-1.3-0.1-2-0.2
			c-0.8-0.1-1.6-0.1-2.4-0.1c-0.7,0-1.3,0-2,0c-0.9,0-1.7,0.1-2.5,0.2c-1.1,0.1-2.2,0.3-3.3,0.6C7.3,6,5.9,6.5,4.6,7.2
			C4.5,7.3,4.3,7.3,4.2,7.5c0.1,0,0.2,0,0.3,0c1-0.4,2-0.8,3.1-1c1.4-0.4,2.8-0.7,4.3-0.9c0.9-0.1,1.8-0.2,2.7-0.2
			c0.9,0,1.7,0,2.6,0c0.8,0,1.5,0,2.3,0.1c0.3,0,0.7,0,1,0.1c0.7,0.1,1.5,0.1,2.2,0.2c0.8,0.1,1.5,0.2,2.3,0.3
			c0.4,0,0.8,0.1,1.2,0.1C25.9,6,25.7,6,25.5,5.9z"/>
		<path class="st1" d="M44.5,5.3c-0.4-1.7-1.2-3.2-2.7-4.2c-0.8-0.6-1.7-0.9-2.7-1c-0.7-0.1-1.4,0-2.1,0c-0.1,0-0.1,0-0.2,0
			c0,0.1,0.1,0.1,0.2,0.2C37.4,0.5,37.7,0.7,38,1c0.2,0.1,0.3,0.3,0.5,0.5c0.3,0.4,0.5,0.9,0.6,1.5c0.1,0.9-0.3,1.7-1.2,2
			C37.7,5,37.6,5,37.4,5.1c-0.8,0.2-1.6,0.1-2.3,0C34.7,5.1,34.4,5,34,5c-1-0.2-1.9-0.4-2.9-0.6C29,4,26.9,3.5,24.7,3.2
			c-1.4-0.2-2.9-0.4-4.4-0.4c-1.9,0-3.8-0.1-5.7,0.1c-1,0.1-2,0.2-3,0.4C9.9,3.6,8.1,3.9,6.3,4.4C5.2,4.7,4.1,5,3.1,5.5
			C2.3,5.8,1.6,6.3,1,7C0.5,7.5,0.2,8.1,0.1,8.7C0.1,9.3,0,9.8,0,10.3c0,0.8,0,1.6,0,2.3c0,1.4,0,2.8,0,4.2c0,9.9,0,19.8,0,29.7
			c0,0.4,0,0.9,0,1.3c0.1,0.8,0.3,1.6,0.8,2.3c0.2,0.2,0.3,0.5,0.4,0.7c0.2,0.3,0.4,0.6,0.7,0.8c0.2,0.1,0.3,0.3,0.5,0.4
			C3.2,52.7,4,53,4.8,53.2c0.7,0.2,1.5,0.2,2.2,0.2c3.3,0,6.5,0,9.8,0c0.1,0,0.2,0,0.2,0c0.1,0,0.2,0,0.2,0.2c0.4,1.7,0.8,3.3,1.2,5
			c0.1,0.4,0.2,0.8,0.5,1.1c0.8,0.9,2,0.7,2.7,0.1c1-0.9,2-1.7,3-2.5c1.4-1.2,2.9-2.3,4.3-3.5c0.3-0.2,0.5-0.4,0.9-0.3
			c2.8,0,5.5,0,8.3,0c0.4,0,0.8,0,1.2-0.1c1.3-0.3,2.3-0.9,3.2-1.9c1-1.1,1.5-2.5,1.6-4c0-0.6,0-1.3,0-1.9c0-11.2,0-22.5,0-33.7
			c0-0.4,0-0.9,0-1.3c0-0.3,0-0.6,0.1-0.9c0.2-0.6,0.3-1.2,0.4-1.9C44.7,6.9,44.7,6.1,44.5,5.3z M43.2,47c0,1.1-0.2,2.1-0.9,3
			c-0.8,1.2-1.9,2-3.4,2.2c-0.5,0.1-1,0.1-1.4,0.1c-2.6,0-5.2,0-7.8,0c-0.1,0-0.2,0-0.3,0c-0.2,0-0.5,0.1-0.7,0.2
			c-1.4,1.1-2.8,2.3-4.2,3.4c-1.2,1-2.4,2-3.7,3c-0.5,0.4-1.2,0.2-1.3-0.5c-0.4-1.7-0.8-3.3-1.2-5c0-0.2-0.1-0.5-0.2-0.7
			c-0.1-0.4-0.2-0.5-0.6-0.5c-0.1,0-0.2,0-0.3,0c-3.5,0-7,0-10.5,0c-0.9,0-1.8-0.1-2.6-0.5c-0.5-0.2-1-0.5-1.3-0.9
			c-0.5-0.4-0.9-0.9-1.2-1.5c-0.4-0.7-0.6-1.5-0.6-2.3c0-0.7-0.1-1.5,0-2.2c0.1-5.6,0-11.1,0-16.7c0-0.3,0-0.6,0-0.9
			c0-0.3,0-0.4,0.4-0.3c0.3,0.1,0.6,0.3,0.7,0.6c0.1,0.4,0.2,0.7,0.3,1.1C2.6,29.5,2.8,30.3,3,31c0.1,0.5,0.3,0.9,0.6,1.3
			c0.4,0.6,0.7,1.3,1.2,1.8c0.5,0.5,1,1,1.6,1.4c1,0.7,2,1.1,3.2,1.3c1.6,0.3,3.1,0.2,4.6-0.3c1.1-0.4,2.1-1,3-1.7
			c0.7-0.6,1.3-1.3,1.8-2.2c0.6-1.1,1.1-2.3,1.4-3.5c0.1-0.6,0.3-1.1,0.5-1.6c0.1-0.2,0.1-0.3,0.3-0.4c0.3-0.2,0.7-0.3,1.1-0.2
			c0.4,0.1,0.7,0.3,0.8,0.8c0.2,0.7,0.4,1.5,0.7,2.2c0.4,1.4,1,2.8,2,3.9c1.3,1.6,3,2.6,5.1,3c0.9,0.2,1.7,0.2,2.6,0.2
			c0.9-0.1,1.7-0.3,2.5-0.6c1.3-0.5,2.4-1.3,3.3-2.4c0.9-1.1,1.5-2.3,1.9-3.6c0.2-0.8,0.4-1.5,0.6-2.3c0,0,0,0,0-0.1
			c0.2-0.7,0.5-0.9,1.2-1c0,0,0.1,0,0.1,0c0.4,0,0.4,0,0.4,0.3c0,3.3,0,6.6,0,9.9l0,0C43.2,40.5,43.2,43.8,43.2,47z M3.7,28
			c0-0.2,0-0.3,0.1-0.5C3.9,27,3.9,26.6,4,26.2c0.1-0.4,0.2-0.8,0.4-1.1c1.1-2.2,2.9-3.7,5.4-4.2c0.5-0.1,1-0.2,1.5-0.2
			c1,0,2.1,0.2,3,0.6c1.3,0.6,2.4,1.5,3.2,2.7c0.3,0.4,0.6,0.9,0.7,1.4c0.2,0.6,0.4,1.2,0.5,1.9c0,0.4,0.1,0.8,0,1.1
			c0,0.4,0,0.8-0.1,1.3c-0.1,0.4-0.2,0.8-0.3,1.1c-0.4,0.9-0.8,1.8-1.5,2.5c-0.6,0.6-1.2,1.1-1.9,1.5c-1,0.6-2.1,0.9-3.2,1
			c-1.4,0.1-2.8-0.2-4-0.8c-1.4-0.7-2.5-1.8-3.2-3.2C3.9,30.6,3.7,29.3,3.7,28z M25.6,24.9c0.5-1,1.2-2,2.2-2.7
			c1.1-0.8,2.3-1.3,3.6-1.5c1.1-0.1,2.1,0,3.2,0.3c0.6,0.2,1,0.5,1.6,0.8c1.1,0.6,1.9,1.4,2.6,2.4c0.2,0.4,0.4,0.8,0.6,1.2
			c0.4,0.9,0.6,1.9,0.6,2.9c0,1.6-0.5,3-1.4,4.3c-0.5,0.8-1.2,1.4-2,1.9c-0.9,0.6-1.8,1-2.8,1.1c-1.3,0.2-2.6,0.2-3.9-0.3
			c-1.4-0.5-2.6-1.3-3.6-2.6c-0.8-1-1.3-2.1-1.5-3.4c-0.1-0.4,0-0.8-0.1-1.1C24.8,27.1,25.1,25.9,25.6,24.9z M43.2,13.3
			c0,3.7,0,7.3,0,11c0,0,0,0.1,0,0.1c0,0.3,0,0.3-0.3,0.2c-0.7-0.1-1.3-0.3-1.9-0.6c-0.2-0.1-0.3-0.2-0.5-0.3
			c-0.9-0.9-1.9-1.7-2.8-2.5c-0.8-0.6-1.6-1.1-2.6-1.4c-1-0.3-2.1-0.5-3.1-0.4c-1.5,0.1-2.8,0.5-4.1,1.2c-0.5,0.3-1,0.7-1.5,1.1
			c-0.8,0.7-1.5,1.5-2.2,2.3c-0.1,0.1-0.2,0.3-0.4,0.4c-0.4,0.5-0.9,0.6-1.4,0.5c-0.4-0.1-0.9-0.1-1.3,0c-0.2,0-0.4,0-0.7,0
			c-0.3,0-0.6-0.2-0.8-0.4c-0.4-0.4-0.8-0.9-1.2-1.4c-0.9-1-1.8-1.9-3-2.5c-1-0.5-2-0.9-3.1-1c-0.4,0-0.8-0.1-1.1-0.1
			c-0.7,0-1.4,0-2.1,0.2c-0.8,0.2-1.5,0.5-2.2,0.8c-0.6,0.3-1.1,0.7-1.6,1.1c-0.7,0.6-1.4,1.2-2.1,2c-0.5,0.6-1.2,0.8-1.9,1
			c-0.4,0.1-0.4,0.1-0.4-0.3c0-0.7,0-1.3,0-2c0-0.3,0-0.3,0.3-0.3c1.3-0.1,2.3-0.7,3-1.7c0.5-0.6,0.6-1.4,0.4-2.1
			c-0.1-0.4-0.2-0.8-0.3-1.3c-0.2-0.6-0.2-1.1,0-1.7C4.6,14.7,5,14.3,5.4,14c0.4-0.3,0.9-0.6,1.3-0.9c0.3-0.2,0.6-0.2,1-0.3
			c1-0.2,2-0.3,3.1-0.4c1.3-0.1,2.6-0.2,3.8-0.2c1,0,2.1,0.1,3.1,0.1c1.3,0.1,2.6,0.3,4,0.6c1.8,0.3,3.6,0.7,5.3,1
			c1.2,0.2,2.4,0.4,3.6,0.6c0.9,0.1,1.8,0.3,2.6,0.4c0.4,0.1,0.9,0.1,1.3,0.1c1.2,0.1,2.3,0.1,3.5,0c0.9-0.1,1.8-0.3,2.6-0.7
			c1-0.5,1.8-1.2,2.4-2c0-0.1,0.1-0.2,0.2-0.2L43.2,13.3L43.2,13.3L43.2,13.3z M43.6,7.6c-0.1,1-0.3,1.9-0.7,2.8
			c-0.4,0.9-1,1.7-1.8,2.4c-0.8,0.6-1.6,1-2.6,1.2c-0.6,0.1-1.1,0.1-1.7,0.2c-1.3,0-2.5-0.1-3.8-0.2c-1.9-0.2-3.8-0.6-5.7-0.9
			c-1.9-0.4-3.9-0.8-5.8-1.1c-0.8-0.1-1.5-0.3-2.3-0.4c-0.4-0.1-0.9-0.1-1.3-0.1c-1.1-0.1-2.2-0.1-3.3-0.1c-0.5,0-1-0.1-1.4,0
			c-1,0-2.1,0.1-3.2,0.2c-0.8,0.1-1.7,0.2-2.5,0.3c-0.7,0.1-1.2,0.3-1.8,0.7c-0.4,0.3-0.9,0.6-1.3,1c-0.6,0.6-1.1,1.2-1.3,2.1
			c-0.1,0.6-0.1,1.2,0.1,1.8c0.1,0.5,0.3,0.9,0.4,1.4c0.1,0.6-0.1,1-0.4,1.5c-0.1,0.1-0.2,0.2-0.3,0.3c-0.4,0.3-0.9,0.6-1.5,0.7
			c-0.4,0.1-0.4,0-0.4-0.4c0-0.6,0-1.1,0-1.7c0-0.5,0-0.9,0-1.4c0-1.5,0-2.9,0-4.4c0-0.7,0-1.4,0-2.1c0-0.7,0-1.4,0.2-2.2
			C1.3,8.4,1.5,8,1.9,7.6C2.4,7.1,3,6.7,3.7,6.4c0.8-0.4,1.6-0.6,2.4-0.8c1.7-0.5,3.5-1,5.3-1.4C12.2,4,13,3.9,13.8,3.8
			c0.9-0.1,1.8-0.1,2.7-0.1c1.2,0,2.5,0.1,3.7,0.1c1.1,0,2.1,0.1,3.2,0.3c1,0.1,2,0.3,2.9,0.5c1.1,0.2,2.2,0.4,3.3,0.6
			c0.9,0.2,1.7,0.4,2.6,0.6c1.6,0.4,3.2,0.5,4.8,0.4c0.8,0,1.6-0.3,2.2-0.9c0.8-0.8,1-1.8,0.8-2.8c-0.1-0.4-0.2-0.8-0.4-1.2
			c0.4,0.1,0.8,0.2,1.2,0.4c1.1,0.6,1.8,1.5,2.3,2.7C43.6,5.4,43.7,6.5,43.6,7.6z"/>
		<path class="st1" d="M9.1,30.1c0.2,0.7,0.5,1.3,1.1,1.8c0.5,0.4,1.2,0.5,1.8,0c0.6-0.5,0.9-1.1,1.2-1.8c0.2-0.7,0.4-1.5,0.3-2.1
			c0-1.3-0.2-2.4-0.8-3.4c-0.2-0.4-0.5-0.7-0.9-0.9c-0.4-0.2-0.8-0.2-1.2,0c-0.3,0.2-0.6,0.4-0.9,0.7c-0.3,0.4-0.5,0.8-0.6,1.3
			c-0.2,0.8-0.3,1.6-0.3,2.4C8.8,28.7,8.9,29.4,9.1,30.1z"/>
		<path class="st1" d="M30.7,30.1c0.2,0.7,0.5,1.3,1.1,1.8c0.5,0.4,1.2,0.5,1.8,0c0.6-0.5,0.9-1.1,1.2-1.8c0.2-0.7,0.4-1.5,0.3-2.1
			c0-1.3-0.2-2.4-0.8-3.4c-0.2-0.4-0.5-0.7-0.9-0.9c-0.4-0.2-0.8-0.2-1.2,0c-0.3,0.2-0.6,0.4-0.9,0.7c-0.3,0.4-0.5,0.8-0.6,1.3
			c-0.2,0.8-0.3,1.6-0.3,2.4C30.4,28.7,30.5,29.4,30.7,30.1z"/>
		<path class="st1" d="M41.6,7.9c-0.3,0.9-0.8,1.6-1.3,2.3c-0.7,0.9-1.6,1.6-2.6,2c-0.9,0.4-2,0.6-3,0.6c-0.9,0-1.8,0-2.7-0.2
			c-1-0.1-1.9-0.3-2.9-0.5c-0.9-0.2-1.9-0.4-2.8-0.6c-0.2,0-0.4-0.1-0.6-0.1c0.5,0.2,1,0.3,1.5,0.5c1.7,0.5,3.3,0.9,5,1.2
			c0.8,0.1,1.5,0.2,2.3,0.2c0.7,0,1.3,0,2-0.2c1-0.2,1.9-0.5,2.7-1c1.1-0.6,1.8-1.6,2.2-2.7c0.2-0.5,0.3-1,0.2-1.6
			C41.6,7.9,41.6,7.9,41.6,7.9z"/>
		<path class="st1" d="M26.1,6.1c-0.4,0-0.8-0.1-1.2-0.1c-0.8-0.1-1.5-0.2-2.3-0.3c-0.7-0.1-1.5-0.1-2.2-0.2c-0.3,0-0.7,0-1-0.1
			c-0.8,0-1.5-0.1-2.3-0.1c-0.9,0-1.7,0-2.6,0c-0.9,0-1.8,0.1-2.7,0.2C10.3,5.7,8.9,6,7.5,6.4c-1,0.3-2,0.7-3.1,1
			c-0.1,0-0.1,0.1-0.3,0c0.1-0.2,0.2-0.2,0.4-0.3C5.9,6.5,7.3,6,8.7,5.6c1.1-0.2,2.2-0.5,3.3-0.6c0.8-0.1,1.7-0.2,2.5-0.2
			c0.7,0,1.3,0,2,0c0.8,0,1.6,0.1,2.4,0.1c0.7,0.1,1.4,0.1,2,0.2c0.6,0.1,1.2,0.2,1.9,0.3c0.9,0.1,1.8,0.3,2.7,0.5
			C25.7,6,25.9,6,26.1,6.1z"/>
		<path class="st1" d="M41.4,9.4c-0.4,1.2-1.1,2.1-2.2,2.7c-0.8,0.5-1.8,0.8-2.7,1c-0.7,0.1-1.3,0.2-2,0.2c-0.8,0-1.5-0.1-2.3-0.2
			c-1.7-0.3-3.4-0.7-5-1.2c-0.5-0.1-1-0.3-1.5-0.5c0.2,0,0.4,0.1,0.6,0.1c0.9,0.2,1.8,0.5,2.8,0.6c1,0.2,1.9,0.3,2.9,0.5
			c0.9,0.1,1.8,0.2,2.7,0.2c1,0,2-0.1,3-0.6c1-0.4,2-1.1,2.6-2c0.5-0.7,1-1.4,1.3-2.3c0,0,0,0,0.1-0.1C41.7,8.4,41.6,8.9,41.4,9.4z"
			/>
	</g>
</g>
</svg>
