<svg width="51" height="52" viewBox="0 0 51 52" fill="none" xmlns="http://www.w3.org/2000/svg">
<g id="arrow_upload_ready">
<mask id="mask0_1181_10825" style="mask-type:alpha" maskUnits="userSpaceOnUse" x="0" y="0" width="51" height="52">
<rect id="Bounding box" x="0.306152" y="0.571411" width="50.5102" height="50.5102" fill="#D9D9D9"/>
</mask>
<g mask="url(#mask0_1181_10825)">
<path id="arrow_upload_ready_2" d="M9.25047 39.0856C7.91756 37.5072 6.84773 35.7709 6.04097 33.8767C5.23421 31.9826 4.7256 30.0008 4.51514 27.9313H8.82955C9.04001 29.4396 9.42585 30.8865 9.98708 32.272C10.5483 33.6575 11.2849 34.9466 12.1969 36.1392L9.25047 39.0856ZM4.51514 23.7221C4.79575 21.6526 5.3219 19.6707 6.09358 17.7766C6.86526 15.8825 7.91756 14.1462 9.25047 12.5677L12.1969 15.5142C11.2849 16.7068 10.5483 17.9958 9.98708 19.3814C9.42585 20.7669 9.04001 22.2138 8.82955 23.7221H4.51514ZM23.3512 46.7674C21.2817 46.5569 19.3087 46.0571 17.4321 45.2678C15.5555 44.4786 13.8104 43.4351 12.1969 42.1373L15.1433 39.0856C16.371 39.9976 17.6688 40.7517 19.0368 41.348C20.4048 41.9443 21.8429 42.3477 23.3512 42.5582V46.7674ZM15.2486 12.5677L12.1969 9.51609C13.8455 8.21826 15.6169 7.17473 17.511 6.38551C19.4051 5.59629 21.3869 5.09645 23.4565 4.88599V9.09517C21.9482 9.30563 20.5013 9.70901 19.1157 10.3053C17.7302 10.9016 16.4412 11.6558 15.2486 12.5677ZM27.5604 46.7674V42.5582C29.1038 42.3477 30.5682 41.9531 31.9538 41.3743C33.3393 40.7956 34.6459 40.0327 35.8736 39.0856L38.9252 42.1373C37.2766 43.4702 35.4965 44.5225 33.5848 45.2942C31.6731 46.0658 29.665 46.5569 27.5604 46.7674ZM35.9788 12.5677C34.7511 11.6558 33.4357 10.9016 32.0327 10.3053C30.6296 9.70901 29.1739 9.30563 27.6656 9.09517V4.88599C29.7352 5.09645 31.7258 5.59629 33.6374 6.38551C35.5491 7.17473 37.3117 8.21826 38.9252 9.51609L35.9788 12.5677ZM41.8716 39.0856L38.9252 36.1392C39.8372 34.9466 40.5738 33.6575 41.135 32.272C41.6963 30.8865 42.0821 29.4396 42.2926 27.9313H46.607C46.3264 30.0008 45.8002 31.9826 45.0285 33.8767C44.2568 35.7709 43.2046 37.5072 41.8716 39.0856ZM42.2926 23.7221C42.0821 22.2138 41.6963 20.7669 41.135 19.3814C40.5738 17.9958 39.8372 16.7068 38.9252 15.5142L41.8716 12.5677C43.2046 14.1462 44.2744 15.8825 45.0811 17.7766C45.8879 19.6707 46.3965 21.6526 46.607 23.7221H42.2926ZM23.5091 36.3496V23.3538L18.0371 28.8257L15.0907 25.8267L25.6137 15.3037L36.1366 25.8267L33.1376 28.7731L27.7183 23.3538V36.3496H23.5091Z" fill="#6DB631"/>
</g>
</g>
</svg>
