<svg width="10" height="20" viewBox="0 0 10 20" fill="none" xmlns="http://www.w3.org/2000/svg">
<path id="attach_money" d="M3.95722 20V17.6111C3.01248 17.3889 2.19697 16.963 1.5107 16.3333C0.824421 15.7037 0.320856 14.8148 0 13.6667L1.97861 12.8333C2.24599 13.7222 2.6426 14.3981 3.16845 14.8611C3.6943 15.3241 4.38503 15.5556 5.24064 15.5556C5.97148 15.5556 6.59091 15.3843 7.09893 15.0417C7.60695 14.6991 7.86096 14.1667 7.86096 13.4444C7.86096 12.7963 7.66488 12.2824 7.27273 11.9028C6.88057 11.5231 5.97148 11.0926 4.54545 10.6111C3.01248 10.1111 1.96078 9.51389 1.39037 8.81944C0.819964 8.125 0.534759 7.27778 0.534759 6.27778C0.534759 5.07407 0.909091 4.13889 1.65775 3.47222C2.40642 2.80556 3.17291 2.42593 3.95722 2.33333V0H6.09626V2.33333C6.98752 2.48148 7.72282 2.81944 8.30214 3.34722C8.88146 3.875 9.30481 4.51852 9.57219 5.27778L7.59358 6.16667C7.37968 5.57407 7.07665 5.12963 6.68449 4.83333C6.29234 4.53704 5.75758 4.38889 5.08021 4.38889C4.2959 4.38889 3.69875 4.56944 3.28877 4.93056C2.87879 5.29167 2.6738 5.74074 2.6738 6.27778C2.6738 6.88889 2.94118 7.37037 3.47594 7.72222C4.01069 8.07407 4.93761 8.44445 6.25668 8.83333C7.48663 9.2037 8.418 9.79167 9.0508 10.5972C9.6836 11.4028 10 12.3333 10 13.3889C10 14.7037 9.62567 15.7037 8.87701 16.3889C8.12834 17.0741 7.20143 17.5 6.09626 17.6667V20H3.95722Z" fill="white"/>
</svg>
