<svg width="18" height="19" viewBox="0 0 18 19" fill="none" xmlns="http://www.w3.org/2000/svg">
<mask id="mask0_4983_6278" style="mask-type:alpha" maskUnits="userSpaceOnUse" x="0" y="0" width="18" height="19">
<rect y="0.557098" width="18" height="18" fill="#6DB631"/>
</mask>
<g mask="url(#mask0_4983_6278)">
<path d="M7.95003 13.2712L13.2375 7.9837L12.1875 6.9337L7.95003 11.1712L5.81253 9.0337L4.76253 10.0837L7.95003 13.2712ZM9.00003 17.3212C7.96253 17.3212 6.98753 17.1243 6.07503 16.7306C5.16253 16.3368 4.36878 15.8024 3.69378 15.1274C3.01878 14.4524 2.48441 13.6587 2.09066 12.7462C1.69691 11.8337 1.50003 10.8587 1.50003 9.8212C1.50003 8.7837 1.69691 7.8087 2.09066 6.8962C2.48441 5.9837 3.01878 5.18995 3.69378 4.51495C4.36878 3.83995 5.16253 3.30557 6.07503 2.91182C6.98753 2.51807 7.96253 2.3212 9.00003 2.3212C10.0375 2.3212 11.0125 2.51807 11.925 2.91182C12.8375 3.30557 13.6313 3.83995 14.3063 4.51495C14.9813 5.18995 15.5157 5.9837 15.9094 6.8962C16.3032 7.8087 16.5 8.7837 16.5 9.8212C16.5 10.8587 16.3032 11.8337 15.9094 12.7462C15.5157 13.6587 14.9813 14.4524 14.3063 15.1274C13.6313 15.8024 12.8375 16.3368 11.925 16.7306C11.0125 17.1243 10.0375 17.3212 9.00003 17.3212ZM9.00003 15.8212C10.675 15.8212 12.0938 15.2399 13.2563 14.0774C14.4188 12.9149 15 11.4962 15 9.8212C15 8.1462 14.4188 6.72745 13.2563 5.56495C12.0938 4.40245 10.675 3.8212 9.00003 3.8212C7.32503 3.8212 5.90628 4.40245 4.74378 5.56495C3.58128 6.72745 3.00003 8.1462 3.00003 9.8212C3.00003 11.4962 3.58128 12.9149 4.74378 14.0774C5.90628 15.2399 7.32503 15.8212 9.00003 15.8212Z" fill="#6DB631"/>
</g>
</svg>
