<svg width="18" height="18" viewBox="0 0 18 18" fill="none" xmlns="http://www.w3.org/2000/svg">
<mask id="mask0_4983_96" style="mask-type:alpha" maskUnits="userSpaceOnUse" x="0" y="0" width="18" height="18">
<rect x="0.5" y="0.557098" width="17" height="17" fill="#FF9500"/>
</mask>
<g mask="url(#mask0_4983_96)">
<path d="M9 15.4321C8.02014 15.4321 7.09931 15.2462 6.2375 14.8743C5.3757 14.5024 4.62604 13.9977 3.98854 13.3602C3.35104 12.7227 2.84636 11.9731 2.47448 11.1113C2.10261 10.2495 1.91667 9.32862 1.91667 8.34876C1.91667 7.3689 2.10261 6.44807 2.47448 5.58626C2.84636 4.72445 3.35104 3.9748 3.98854 3.3373C4.62604 2.6998 5.3757 2.19511 6.2375 1.82324C7.09931 1.45136 8.02014 1.26543 9 1.26543C9.97986 1.26543 10.9007 1.45136 11.7625 1.82324C12.6243 2.19511 13.374 2.6998 14.0115 3.3373C14.649 3.9748 15.1536 4.72445 15.5255 5.58626C15.8974 6.44807 16.0833 7.3689 16.0833 8.34876C16.0833 9.32862 15.8974 10.2495 15.5255 11.1113C15.1536 11.9731 14.649 12.7227 14.0115 13.3602C13.374 13.9977 12.6243 14.5024 11.7625 14.8743C10.9007 15.2462 9.97986 15.4321 9 15.4321ZM9 14.0154C10.5819 14.0154 11.9219 13.4665 13.0198 12.3686C14.1177 11.2706 14.6667 9.93071 14.6667 8.34876C14.6667 6.76682 14.1177 5.42689 13.0198 4.32897C11.9219 3.23105 10.5819 2.68209 9 2.68209C7.41806 2.68209 6.07813 3.23105 4.98021 4.32897C3.88229 5.42689 3.33333 6.76682 3.33333 8.34876C3.33333 9.93071 3.88229 11.2706 4.98021 12.3686C6.07813 13.4665 7.41806 14.0154 9 14.0154Z" fill="#FF9500"/>
<path d="M9 4.09876C9.74042 4.09876 10.468 4.2922 11.1107 4.65991C11.7533 5.02762 12.2888 5.55685 12.664 6.19517C13.0391 6.83349 13.2411 7.55876 13.2497 8.29913C13.2584 9.0395 13.0734 9.76929 12.7132 10.4162C12.3531 11.0631 11.8301 11.6047 11.1962 11.9873C10.5623 12.3699 9.83947 12.5803 9.09926 12.5976C8.35904 12.6149 7.62714 12.4385 6.97607 12.0859C6.325 11.7333 5.77734 11.2167 5.38734 10.5873L9 8.34876L9 4.09876Z" fill="#FF9500"/>
</g>
</svg>
