<svg width="16" height="16" viewBox="0 0 16 16" fill="none" xmlns="http://www.w3.org/2000/svg">
<path d="M5.30003 11.3071L8.00003 8.60713L10.7 11.3071L11.75 10.2571L9.05003 7.55713L11.75 4.85713L10.7 3.80713L8.00003 6.50713L5.30003 3.80713L4.25003 4.85713L6.95003 7.55713L4.25003 10.2571L5.30003 11.3071ZM8.00003 15.0571C6.96253 15.0571 5.98753 14.8603 5.07503 14.4665C4.16253 14.0728 3.36878 13.5384 2.69378 12.8634C2.01878 12.1884 1.48441 11.3946 1.09066 10.4821C0.696906 9.56963 0.500031 8.59463 0.500031 7.55713C0.500031 6.51963 0.696906 5.54463 1.09066 4.63213C1.48441 3.71963 2.01878 2.92588 2.69378 2.25088C3.36878 1.57588 4.16253 1.0415 5.07503 0.647754C5.98753 0.254004 6.96253 0.0571289 8.00003 0.0571289C9.03753 0.0571289 10.0125 0.254004 10.925 0.647754C11.8375 1.0415 12.6313 1.57588 13.3063 2.25088C13.9813 2.92588 14.5157 3.71963 14.9094 4.63213C15.3032 5.54463 15.5 6.51963 15.5 7.55713C15.5 8.59463 15.3032 9.56963 14.9094 10.4821C14.5157 11.3946 13.9813 12.1884 13.3063 12.8634C12.6313 13.5384 11.8375 14.0728 10.925 14.4665C10.0125 14.8603 9.03753 15.0571 8.00003 15.0571ZM8.00003 13.5571C9.67503 13.5571 11.0938 12.9759 12.2563 11.8134C13.4188 10.6509 14 9.23213 14 7.55713C14 5.88213 13.4188 4.46338 12.2563 3.30088C11.0938 2.13838 9.67503 1.55713 8.00003 1.55713C6.32503 1.55713 4.90628 2.13838 3.74378 3.30088C2.58128 4.46338 2.00003 5.88213 2.00003 7.55713C2.00003 9.23213 2.58128 10.6509 3.74378 11.8134C4.90628 12.9759 6.32503 13.5571 8.00003 13.5571Z" fill="#FF2D55"/>
</svg>
