<svg width="15" height="18" viewBox="0 0 15 18" fill="none" xmlns="http://www.w3.org/2000/svg">
<path id="calendar_month" d="M1.66667 17.3332C1.20833 17.3332 0.815972 17.17 0.489583 16.8436C0.163194 16.5172 0 16.1248 0 15.6665V3.99984C0 3.5415 0.163194 3.14914 0.489583 2.82275C0.815972 2.49637 1.20833 2.33317 1.66667 2.33317H2.5V0.666504H4.16667V2.33317H10.8333V0.666504H12.5V2.33317H13.3333C13.7917 2.33317 14.184 2.49637 14.5104 2.82275C14.8368 3.14914 15 3.5415 15 3.99984V15.6665C15 16.1248 14.8368 16.5172 14.5104 16.8436C14.184 17.17 13.7917 17.3332 13.3333 17.3332H1.66667ZM1.66667 15.6665H13.3333V7.33317H1.66667V15.6665ZM1.66667 5.6665H13.3333V3.99984H1.66667V5.6665ZM7.5 10.6665C7.26389 10.6665 7.06597 10.5866 6.90625 10.4269C6.74653 10.2672 6.66667 10.0693 6.66667 9.83317C6.66667 9.59706 6.74653 9.39914 6.90625 9.23942C7.06597 9.0797 7.26389 8.99984 7.5 8.99984C7.73611 8.99984 7.93403 9.0797 8.09375 9.23942C8.25347 9.39914 8.33333 9.59706 8.33333 9.83317C8.33333 10.0693 8.25347 10.2672 8.09375 10.4269C7.93403 10.5866 7.73611 10.6665 7.5 10.6665ZM4.16667 10.6665C3.93056 10.6665 3.73264 10.5866 3.57292 10.4269C3.41319 10.2672 3.33333 10.0693 3.33333 9.83317C3.33333 9.59706 3.41319 9.39914 3.57292 9.23942C3.73264 9.0797 3.93056 8.99984 4.16667 8.99984C4.40278 8.99984 4.60069 9.0797 4.76042 9.23942C4.92014 9.39914 5 9.59706 5 9.83317C5 10.0693 4.92014 10.2672 4.76042 10.4269C4.60069 10.5866 4.40278 10.6665 4.16667 10.6665ZM10.8333 10.6665C10.5972 10.6665 10.3993 10.5866 10.2396 10.4269C10.0799 10.2672 10 10.0693 10 9.83317C10 9.59706 10.0799 9.39914 10.2396 9.23942C10.3993 9.0797 10.5972 8.99984 10.8333 8.99984C11.0694 8.99984 11.2674 9.0797 11.4271 9.23942C11.5868 9.39914 11.6667 9.59706 11.6667 9.83317C11.6667 10.0693 11.5868 10.2672 11.4271 10.4269C11.2674 10.5866 11.0694 10.6665 10.8333 10.6665ZM7.5 13.9998C7.26389 13.9998 7.06597 13.92 6.90625 13.7603C6.74653 13.6005 6.66667 13.4026 6.66667 13.1665C6.66667 12.9304 6.74653 12.7325 6.90625 12.5728C7.06597 12.413 7.26389 12.3332 7.5 12.3332C7.73611 12.3332 7.93403 12.413 8.09375 12.5728C8.25347 12.7325 8.33333 12.9304 8.33333 13.1665C8.33333 13.4026 8.25347 13.6005 8.09375 13.7603C7.93403 13.92 7.73611 13.9998 7.5 13.9998ZM4.16667 13.9998C3.93056 13.9998 3.73264 13.92 3.57292 13.7603C3.41319 13.6005 3.33333 13.4026 3.33333 13.1665C3.33333 12.9304 3.41319 12.7325 3.57292 12.5728C3.73264 12.413 3.93056 12.3332 4.16667 12.3332C4.40278 12.3332 4.60069 12.413 4.76042 12.5728C4.92014 12.7325 5 12.9304 5 13.1665C5 13.4026 4.92014 13.6005 4.76042 13.7603C4.60069 13.92 4.40278 13.9998 4.16667 13.9998ZM10.8333 13.9998C10.5972 13.9998 10.3993 13.92 10.2396 13.7603C10.0799 13.6005 10 13.4026 10 13.1665C10 12.9304 10.0799 12.7325 10.2396 12.5728C10.3993 12.413 10.5972 12.3332 10.8333 12.3332C11.0694 12.3332 11.2674 12.413 11.4271 12.5728C11.5868 12.7325 11.6667 12.9304 11.6667 13.1665C11.6667 13.4026 11.5868 13.6005 11.4271 13.7603C11.2674 13.92 11.0694 13.9998 10.8333 13.9998Z" fill="#1C1B1F"/>
</svg>
