<svg width="24" height="23" viewBox="0 0 24 23" fill="none" xmlns="http://www.w3.org/2000/svg">
<g id="campaign">
<mask id="mask0_997_105" style="mask-type:alpha" maskUnits="userSpaceOnUse" x="-1" y="-1" width="25" height="24">
<rect id="Bounding box" x="-0.377441" y="-1" width="24" height="24" fill="#D9D9D9"/>
</mask>
<g mask="url(#mask0_997_105)">
<path id="campaign_2" d="M17.6226 12V10H21.6226V12H17.6226ZM18.8226 19L15.6226 16.6L16.8226 15L20.0226 17.4L18.8226 19ZM16.8226 7L15.6226 5.4L18.8226 3L20.0226 4.6L16.8226 7ZM4.62256 18V14H3.62256C3.07256 14 2.60173 13.8042 2.21006 13.4125C1.81839 13.0208 1.62256 12.55 1.62256 12V10C1.62256 9.45 1.81839 8.97917 2.21006 8.5875C2.60173 8.19583 3.07256 8 3.62256 8H7.62256L12.6226 5V17L7.62256 14H6.62256V18H4.62256ZM10.6226 13.45V8.55L8.17256 10H3.62256V12H8.17256L10.6226 13.45ZM13.6226 14.35V7.65C14.0726 8.05 14.4351 8.5375 14.7101 9.1125C14.9851 9.6875 15.1226 10.3167 15.1226 11C15.1226 11.6833 14.9851 12.3125 14.7101 12.8875C14.4351 13.4625 14.0726 13.95 13.6226 14.35Z" fill="white"/>
</g>
</g>
</svg>
