<svg width="20" height="18" viewBox="0 0 20 18" fill="none" xmlns="http://www.w3.org/2000/svg">
<path d="M14.3223 0.190268C14.8124 0.190268 15.2012 0.599723 15.2012 1.09066C15.2011 1.22512 15.1709 1.35284 15.1182 1.46859C15.5862 2.40025 15.8235 3.28356 15.9385 3.83285C16.0482 3.81786 16.1594 3.80844 16.2725 3.80843C16.5084 3.80843 16.7367 3.84155 16.9532 3.90316C17.0711 3.35201 17.3079 2.48776 17.7647 1.57796C17.7127 1.46326 17.6827 1.33553 17.6827 1.20101C17.6827 0.709112 18.0712 0.300883 18.5616 0.300619C19.0515 0.300619 19.4405 0.7091 19.4405 1.20101C19.4403 1.66138 19.0997 2.04805 18.6543 2.09554C18.1659 3.0822 17.9657 4.0033 17.8955 4.41195C18.4571 4.8925 18.8135 5.61614 18.8135 6.42464V12.6366C18.8135 15.0785 16.8941 17.0689 14.5137 17.0692H1.4561C1.12792 17.0692 0.845703 16.8472 0.755901 16.5321L0.756878 16.5311C0.667528 16.2173 0.78734 15.8776 1.05961 15.6971L3.8516 13.8446L4.21879 13.619C4.27959 13.5844 4.3425 13.5538 4.40434 13.5213C4.21976 13.2358 4.07384 12.9205 3.9766 12.575L3.92973 12.3924C3.14665 8.93722 5.07026 6.56026 6.52739 5.743L6.8184 5.59652C7.55743 5.26236 8.69507 4.99387 9.92485 5.09554C11.2073 5.20162 12.5942 5.71261 13.7334 6.97249V6.42464C13.7334 5.47498 14.2259 4.64039 14.9659 4.18246C14.8798 3.72983 14.675 2.88504 14.2295 1.98617C13.7838 1.93823 13.4436 1.55063 13.4434 1.09066C13.4434 0.59972 13.8318 0.190506 14.3223 0.190268ZM16.2735 4.85335C15.4408 4.85341 14.7559 5.55126 14.7559 6.42562V8.55941C15.0965 9.39555 15.2879 10.4202 15.2686 11.3739L15.2471 11.783C15.1651 12.7159 14.8523 13.5678 14.2598 14.0721L14.1377 14.1688C13.6007 14.5577 13.0782 14.8465 12.2666 15.0526C11.4636 15.2565 10.3815 15.3772 8.7266 15.4442L8.72758 15.4452C8.49714 15.4619 8.26367 15.4629 8.03032 15.4491L7.79692 15.4305C6.81343 15.3293 5.84722 14.9588 5.11332 14.3289C4.94021 14.4081 4.77055 14.4966 4.60649 14.5955L4.4102 14.7205L2.44242 16.0262H14.5137C16.3186 16.0262 17.792 14.5154 17.792 12.6375V6.42562C17.792 5.55136 17.1063 4.85335 16.2735 4.85335ZM9.95219 6.14144C8.88137 6.02728 7.88766 6.25804 7.26371 6.53695L7.01957 6.65804C5.84779 7.31517 4.27495 9.28042 4.9268 12.158H4.92582C5.02701 12.6017 5.2363 12.978 5.51957 13.2899C5.56918 13.3256 5.61236 13.3707 5.6475 13.4237C6.22222 13.9775 7.04989 14.304 7.90043 14.3914H7.89946C8.07647 14.4088 8.25428 14.416 8.43071 14.4139L8.7266 14.4002L8.92582 14.3787C9.91352 14.249 10.7571 13.7713 11.1016 12.9412C11.4417 12.1208 11.4615 11.3847 11.2676 10.7782L11.1719 10.5262C10.7666 9.61513 9.84443 9.02956 8.82231 8.98812L8.61625 8.98714C7.84319 9.01115 7.26421 9.60806 7.02739 10.328L6.98539 10.4735C6.78838 11.2322 6.98929 11.9976 7.69047 12.2811L7.85551 12.3407C8.22662 12.4585 8.50306 12.4301 8.71098 12.3358L8.81742 12.2791C9.05624 12.134 9.22545 11.9005 9.33989 11.6776C9.4042 11.5523 9.44855 11.4354 9.4766 11.3504C9.49057 11.3081 9.50067 11.2738 9.50688 11.2508C9.50991 11.2396 9.51139 11.2309 9.51274 11.2254C9.5134 11.2227 9.51443 11.2207 9.51469 11.2196V11.2186L9.51567 11.2166L9.54887 11.118C9.64858 10.8999 9.88933 10.7706 10.1348 10.8319L10.2334 10.868C10.4492 10.9731 10.5662 11.2214 10.5098 11.4608V11.4618L10.3252 11.4168L10.5088 11.4618V11.4637C10.5086 11.4646 10.5082 11.4661 10.5079 11.4676C10.5071 11.4706 10.5063 11.475 10.5049 11.4803C10.5021 11.491 10.4978 11.5062 10.4922 11.5252C10.4811 11.5635 10.4637 11.6175 10.4405 11.6834C10.3941 11.8152 10.3223 11.996 10.2178 12.1912C10.0368 12.5295 9.75033 12.9289 9.32133 13.1873L9.12797 13.2889C8.71495 13.4771 8.20361 13.5377 7.585 13.3485L7.31254 13.2508C6.03523 12.7339 5.68882 11.3908 5.99614 10.2069V10.2059L6.05961 9.99105C6.41593 8.92208 7.32404 7.98326 8.585 7.94417L8.86723 7.94613C10.2669 8.0047 11.5372 8.82208 12.1036 10.0955L12.1748 10.2674C12.4868 11.0806 12.5184 12.0577 12.1329 13.12L12.043 13.3485C11.9208 13.6438 11.7561 13.9073 11.5586 14.1405C12.4902 13.9665 13.0065 13.7092 13.5459 13.3182L13.6192 13.2596C13.9735 12.952 14.1671 12.3844 14.2286 11.6903L14.2471 11.3397C14.2636 10.5096 14.0943 9.61005 13.7901 8.89925L13.7911 8.89828C13.7894 8.89507 13.7878 8.89185 13.7862 8.88851L13.7842 8.88656L13.7676 8.84847C13.6765 8.64281 13.5753 8.45687 13.4649 8.29476V8.29378C12.4786 6.84307 11.1675 6.27105 9.95219 6.14144Z" fill="#262A27" stroke="#262A27" stroke-width="0.379833"/>
</svg>
