<svg width="36" height="24" viewBox="0 0 36 24" fill="none" xmlns="http://www.w3.org/2000/svg">
<path id="Subtract" fill-rule="evenodd" clip-rule="evenodd" d="M17.6059 2.00354C19.5492 0.69648 21.8381 -0.00111345 24.18 1.33402e-06C26.0472 -0.00071965 27.8879 0.441109 29.5513 1.28927C31.2148 2.13743 32.6535 3.36777 33.7497 4.87943C34.8458 6.39109 35.5681 8.14102 35.8574 9.98578C36.1466 11.8305 35.9946 13.7176 35.4137 15.4922C34.8329 17.2669 33.8398 18.8786 32.5158 20.1952C31.1918 21.5119 29.5746 22.496 27.7968 23.0669C26.0191 23.6378 24.1314 23.7792 22.2884 23.4795C20.4455 23.1798 18.6998 22.4476 17.1944 21.3429C17.1326 21.2977 16.9604 21.1844 16.7676 21.0575C16.5481 20.913 16.302 20.751 16.1614 20.6519C14.8388 19.7187 13.6957 19.546 11.589 20.176C10.2517 20.6215 8.82701 20.7394 7.43468 20.5199C6.04234 20.3003 4.72304 19.7498 3.58766 18.9144C2.45228 18.0791 1.534 16.9834 0.909982 15.7194C0.285967 14.4554 -0.0255413 13.0601 0.00163747 11.6507C0.0288162 10.2413 0.393888 8.85908 1.06617 7.62011C1.73845 6.38114 2.6983 5.32166 3.86504 4.53071C5.03178 3.73977 6.37133 3.24048 7.77109 3.0748C9.17085 2.90912 10.5899 3.08189 11.9091 3.5786C12.0361 3.62772 12.4408 3.76659 12.5272 3.78861C13.9395 4.14258 14.9709 3.94273 16.5069 2.78769C16.5475 2.75551 17.4721 2.095 17.6059 2.00354ZM18.6751 14.232C19.1444 14.1821 19.583 13.9748 19.9194 13.6437L20.9542 14.6955C20.3801 15.2578 19.6329 15.61 18.8338 15.6948C18.0346 15.7796 17.2302 15.5922 16.5508 15.1629L17.3349 13.9181C17.7333 14.1712 18.2057 14.2818 18.6751 14.232ZM16.6606 9.05356C17.221 8.72887 17.8593 8.56277 18.5069 8.57306C19.3018 8.58626 20.0696 8.86427 20.6887 9.36308C21.3077 9.86189 21.7427 10.553 21.9246 11.3269L15.4584 14.0908C15.105 13.548 14.9059 12.9193 14.8824 12.272C14.859 11.6247 15.0121 10.9832 15.3253 10.4163C15.6385 9.84931 16.1001 9.37825 16.6606 9.05356ZM16.6389 11.0764C16.4118 11.4649 16.3156 11.9161 16.3645 12.3634L20.0566 10.7849C19.767 10.4405 19.3744 10.1983 18.9367 10.094C18.499 9.98979 18.0393 10.029 17.6256 10.2059C17.2118 10.3828 16.8659 10.688 16.6389 11.0764ZM23.9553 13.8571V6.96582H22.5902V13.8791C22.5818 14.1777 22.6613 14.4722 22.8189 14.7259C22.9599 14.9439 23.1628 15.1149 23.4015 15.2171L24.587 15.7082L25.151 14.3534L23.9553 13.8571ZM13.543 13.8571V6.96582H12.1847V13.8876C12.1768 14.1864 12.2569 14.4808 12.415 14.7344C12.5523 14.9465 12.7483 15.1142 12.979 15.2171L14.1645 15.7082L14.7285 14.3534L13.543 13.8571ZM30.493 10.7414C30.3093 10.5355 30.0869 10.3679 29.8384 10.2481C29.4605 10.0652 29.0364 9.99984 28.621 10.0605C28.2055 10.1212 27.8178 10.3051 27.508 10.5885L26.5189 9.5029C27.1316 8.94578 27.9189 8.61896 28.746 8.57841C29.5731 8.53786 30.3886 8.78609 31.0528 9.28061C31.7171 9.77513 32.1887 10.4852 32.3871 11.2892C32.5854 12.0932 32.4981 12.9411 32.14 13.6878L30.8173 13.0527C30.9373 12.8043 31.0071 12.5347 31.0228 12.2593C31.0385 11.9839 30.9998 11.7081 30.9089 11.4476C30.818 11.1872 30.6767 10.9472 30.493 10.7414ZM28.0183 14.0367C27.5162 13.7949 27.1306 13.3637 26.9461 12.8379C26.7616 12.3121 26.7933 11.7345 27.0343 11.2321L25.7116 10.5953C25.3571 11.341 25.272 12.1865 25.4709 12.9879C25.6698 13.7893 26.1403 14.497 26.8023 14.9904C27.4643 15.4839 28.2769 15.7326 29.1017 15.6943C29.9265 15.656 30.7125 15.3329 31.3259 14.7802L30.3368 13.6963C30.0278 13.9768 29.6423 14.159 29.2294 14.2196C28.8165 14.2802 28.3948 14.2165 28.0183 14.0367ZM10.8332 14.1366V12.1415C10.8332 11.4381 10.6246 10.7505 10.2338 10.1656C9.84298 9.58072 9.28752 9.12486 8.63764 8.85567C7.98776 8.58648 7.27265 8.51605 6.58274 8.65328C5.89283 8.79051 5.25911 9.12924 4.76171 9.62664C4.26431 10.124 3.92558 10.7578 3.78835 11.4477C3.65112 12.1376 3.72155 12.8527 3.99074 13.5026C4.25993 14.1525 4.71578 14.7079 5.30066 15.0987C5.88554 15.4895 6.57317 15.6981 7.27659 15.6981C7.82798 15.6982 8.37184 15.57 8.8652 15.3238L8.29276 13.9859C7.97226 14.1631 7.61103 14.2536 7.24483 14.2483C6.87863 14.2431 6.52014 14.1423 6.20484 13.956C5.88953 13.7697 5.62833 13.5043 5.44708 13.1861C5.26583 12.8678 5.17082 12.5078 5.17143 12.1415C5.16952 11.7975 5.25272 11.4583 5.41362 11.1542C5.55524 10.8888 5.75197 10.6567 5.99062 10.4736C6.22926 10.2904 6.5043 10.1604 6.7973 10.0923C6.9527 10.0555 7.11182 10.0367 7.27151 10.0364C7.83044 10.0359 8.36668 10.2574 8.76238 10.6522C9.15808 11.0469 9.38085 11.5826 9.38175 12.1415V14.1197C9.37335 14.4182 9.45285 14.7127 9.61039 14.9665C9.75243 15.1836 9.95498 15.3543 10.193 15.4576L10.8603 15.7218L11.4259 14.3669L10.8332 14.1366Z" fill="#6DB631"/>
</svg>
