<svg width="29" height="25" viewBox="0 0 29 25" fill="none" xmlns="http://www.w3.org/2000/svg">
<path d="M3.43424 19.1707V8.50403V8.93736V3.1707V19.1707ZM3.43424 5.83736H24.7676V3.1707H3.43424V5.83736ZM13.6676 21.8374H3.43424C2.70091 21.8374 2.07313 21.5763 1.55091 21.054C1.02869 20.5318 0.767578 19.904 0.767578 19.1707V3.1707C0.767578 2.43736 1.02869 1.80958 1.55091 1.28736C2.07313 0.765139 2.70091 0.504028 3.43424 0.504028H24.7676C25.5009 0.504028 26.1287 0.765139 26.6509 1.28736C27.1731 1.80958 27.4342 2.43736 27.4342 3.1707V10.1707C26.6342 9.61514 25.7676 9.19847 24.8342 8.9207C23.9009 8.64292 22.9454 8.50403 21.9676 8.50403C20.7676 8.50403 19.612 8.73736 18.5009 9.20403C17.3898 9.6707 16.412 10.3263 15.5676 11.1707H3.43424V19.1707H12.8676C12.9342 19.6374 13.0342 20.0929 13.1676 20.5374C13.3009 20.9818 13.4676 21.4151 13.6676 21.8374ZM24.3342 21.004L25.2676 20.0707L22.7676 17.5707V13.8374H21.4342V18.104L24.3342 21.004ZM22.1342 24.504C20.2676 24.504 18.6842 23.8596 17.3842 22.5707C16.0842 21.2818 15.4342 19.704 15.4342 17.8374C15.4342 15.9707 16.0842 14.3929 17.3842 13.104C18.6842 11.8151 20.2676 11.1707 22.1342 11.1707C23.9787 11.1707 25.5454 11.8207 26.8342 13.1207C28.1231 14.4207 28.7676 15.9929 28.7676 17.8374C28.7676 19.6818 28.1231 21.254 26.8342 22.554C25.5454 23.854 23.9787 24.504 22.1342 24.504Z" fill="#6DB631"/>
</svg>
