<svg width="18" height="19" viewBox="0 0 18 19" fill="none" xmlns="http://www.w3.org/2000/svg">
<mask id="mask0_4386_28526" style="mask-type:alpha" maskUnits="userSpaceOnUse" x="0" y="0" width="18" height="19">
<rect x="0.310772" y="0.867871" width="17.3785" height="17.3785" fill="#D9D9D9" stroke="#FF9500" stroke-width="0.621545"/>
</mask>
<g mask="url(#mask0_4386_28526)">
<path d="M12.5371 2.34886C12.9378 2.34911 13.2548 2.68377 13.2549 3.08519C13.2549 3.19526 13.2306 3.30001 13.1875 3.39476C13.5704 4.15703 13.7643 4.87986 13.8584 5.32933C13.9482 5.31705 14.0393 5.30981 14.1318 5.3098C14.3246 5.3098 14.5115 5.33567 14.6885 5.38597C14.785 4.93487 14.9788 4.22776 15.3525 3.48363C15.3102 3.38997 15.2862 3.28578 15.2861 3.17601C15.2861 2.77352 15.6036 2.43887 16.0049 2.43871C16.4057 2.43871 16.7236 2.77354 16.7236 3.17601C16.7235 3.55258 16.4453 3.8684 16.0811 3.90746C15.6798 4.71778 15.5168 5.47424 15.46 5.80687C15.9183 6.19997 16.2108 6.78901 16.2109 7.44945V12.5325C16.2109 14.5306 14.6401 16.1594 12.6924 16.1594H2.00977C1.74134 16.1594 1.51007 15.9777 1.43652 15.72L1.41699 15.6223C1.38987 15.3949 1.49039 15.1656 1.68555 15.0364L3.96973 13.5207L4.27051 13.3362C4.3208 13.3076 4.37266 13.282 4.42383 13.2551C4.24661 12.981 4.11013 12.6748 4.0332 12.3332L3.97949 12.0705C3.49029 9.3856 5.00324 7.53965 6.1582 6.89183L6.39648 6.77269C7.00113 6.49922 7.93212 6.27933 8.93848 6.36253C9.9877 6.44934 11.1227 6.86706 12.0547 7.89769V7.44945C12.0549 6.67275 12.4573 5.99009 13.0625 5.61546C12.9921 5.24496 12.8248 4.55334 12.46 3.81761C12.0954 3.77813 11.8174 3.46152 11.8174 3.08519C11.8175 2.6835 12.1357 2.34886 12.5371 2.34886ZM14.1328 6.16429C13.4515 6.16429 12.8916 6.73504 12.8916 7.45042V9.19749C13.17 9.88141 13.3263 10.7193 13.3105 11.4993L13.293 11.8342C13.2259 12.5974 12.9701 13.2947 12.4854 13.7073L12.3848 13.7854C11.9454 14.1036 11.5184 14.3404 10.8545 14.509C10.1975 14.6759 9.31204 14.7745 7.95801 14.8293L7.95898 14.8303C7.77049 14.844 7.57955 14.8445 7.38867 14.8332L7.19727 14.8186C6.39278 14.7358 5.60431 14.4304 5.00391 13.9153C4.86125 13.9804 4.72207 14.0544 4.58691 14.136L4.42676 14.2375L2.81641 15.3059H12.6934C14.17 15.3058 15.3749 14.0698 15.375 12.5334V7.45042C15.375 6.73516 14.8142 6.16429 14.1328 6.16429ZM8.96094 7.218C8.08472 7.12456 7.27127 7.31302 6.76074 7.54124L6.56152 7.64085C5.60282 8.17849 4.31541 9.78654 4.84863 12.1409L4.88379 12.2766C4.97617 12.5851 5.13489 12.8509 5.34082 13.0754C5.37502 13.1014 5.40515 13.1319 5.43066 13.1682C5.9008 13.6258 6.5809 13.8958 7.28027 13.968H7.28125C7.42605 13.9822 7.5715 13.9883 7.71582 13.9866L7.95801 13.9758L8.12109 13.9582C8.92912 13.8521 9.61944 13.4615 9.90137 12.7825L10.0049 12.4983C10.1807 11.9405 10.1731 11.4373 10.0371 11.0119L9.95898 10.8059C9.62731 10.0604 8.87249 9.58094 8.03613 9.5471H7.86816C7.23563 9.5667 6.76214 10.0548 6.56836 10.6438L6.5332 10.7629C6.37206 11.3836 6.53669 12.0095 7.11035 12.2414L7.24512 12.2903C7.54889 12.3868 7.77516 12.3636 7.94531 12.2864L8.03223 12.2395C8.22759 12.1207 8.36636 11.9297 8.45996 11.7473C8.51249 11.6449 8.54836 11.5492 8.57129 11.4797C8.58266 11.4452 8.59063 11.4174 8.5957 11.3987C8.59818 11.3895 8.60045 11.3827 8.60156 11.3782C8.60206 11.3761 8.60232 11.3742 8.60254 11.3733V11.3723L8.60352 11.3703L8.63086 11.2903C8.71239 11.1117 8.90944 11.0057 9.11035 11.0559L9.19043 11.0852C9.3673 11.1711 9.46315 11.3745 9.41699 11.5705V11.5715L9.41602 11.5725C9.41583 11.5732 9.41536 11.5752 9.41504 11.5764C9.41442 11.5788 9.41415 11.5822 9.41309 11.5862C9.41075 11.5949 9.40692 11.6076 9.40234 11.6233C9.3932 11.6545 9.37933 11.6993 9.36035 11.7532C9.32237 11.8609 9.26315 12.0086 9.17773 12.1682C9.00841 12.4845 8.72609 12.8645 8.28613 13.0647L8.28711 13.0657C7.94899 13.2198 7.53 13.2696 7.02344 13.1145L6.80176 13.0354C5.75623 12.6126 5.47205 11.513 5.72363 10.5442L5.77637 10.3674C6.06807 9.49298 6.81117 8.72544 7.84277 8.69359L8.07227 8.69456C9.21767 8.7422 10.2572 9.41128 10.7207 10.4534L10.7793 10.594C11.0346 11.2593 11.0606 12.0588 10.7451 12.928L10.6719 13.1155C10.5718 13.3571 10.4361 13.5722 10.2744 13.7629C11.0371 13.6206 11.4599 13.41 11.9014 13.0901L12.0166 12.9895C12.2712 12.7286 12.413 12.2885 12.46 11.758C12.526 11.0052 12.3851 10.1385 12.1006 9.47386V9.47289C12.0993 9.47032 12.098 9.46775 12.0967 9.46507L12.0957 9.4641L12.082 9.43285C12.0448 9.34885 12.005 9.26916 11.9639 9.19359L11.835 8.97972C11.028 7.7927 9.9553 7.32405 8.96094 7.218Z" fill="#FF9500" stroke="#FF9500" stroke-width="0.310772"/>
</g>
</svg>
