<svg width="18" height="19" viewBox="0 0 18 19" fill="none" xmlns="http://www.w3.org/2000/svg">
<mask id="mask0_4386_28545" style="mask-type:alpha" maskUnits="userSpaceOnUse" x="0" y="0" width="18" height="19">
<rect y="0.557098" width="18" height="18" fill="#D9D9D9"/>
</mask>
<g mask="url(#mask0_4386_28545)">
<path d="M3.75 15.5571V14.0571H14.25V15.5571H3.75ZM3.75 12.9321L2.79375 6.91333C2.76875 6.91333 2.74063 6.91646 2.70938 6.92271C2.67813 6.92896 2.65 6.93208 2.625 6.93208C2.3125 6.93208 2.04688 6.82271 1.82813 6.60396C1.60937 6.38521 1.5 6.11958 1.5 5.80708C1.5 5.49458 1.60937 5.22896 1.82813 5.01021C2.04688 4.79146 2.3125 4.68208 2.625 4.68208C2.9375 4.68208 3.20313 4.79146 3.42188 5.01021C3.64063 5.22896 3.75 5.49458 3.75 5.80708C3.75 5.89458 3.74063 5.97583 3.72188 6.05083C3.70313 6.12583 3.68125 6.19458 3.65625 6.25708L6 7.30708L8.34375 4.10083C8.20625 4.00083 8.09375 3.86958 8.00625 3.70708C7.91875 3.54458 7.875 3.36958 7.875 3.18208C7.875 2.86958 7.98438 2.60396 8.20313 2.38521C8.42188 2.16646 8.6875 2.05708 9 2.05708C9.3125 2.05708 9.57813 2.16646 9.79688 2.38521C10.0156 2.60396 10.125 2.86958 10.125 3.18208C10.125 3.36958 10.0813 3.54458 9.99375 3.70708C9.90625 3.86958 9.79375 4.00083 9.65625 4.10083L12 7.30708L14.3438 6.25708C14.3188 6.19458 14.2969 6.12583 14.2781 6.05083C14.2594 5.97583 14.25 5.89458 14.25 5.80708C14.25 5.49458 14.3594 5.22896 14.5781 5.01021C14.7969 4.79146 15.0625 4.68208 15.375 4.68208C15.6875 4.68208 15.9531 4.79146 16.1719 5.01021C16.3906 5.22896 16.5 5.49458 16.5 5.80708C16.5 6.11958 16.3906 6.38521 16.1719 6.60396C15.9531 6.82271 15.6875 6.93208 15.375 6.93208C15.35 6.93208 15.3219 6.92896 15.2906 6.92271C15.2594 6.91646 15.2313 6.91333 15.2063 6.91333L14.25 12.9321H3.75ZM5.025 11.4321H12.975L13.4625 8.30083L11.4938 9.16333L9 5.73208L6.50625 9.16333L4.5375 8.30083L5.025 11.4321Z" fill="#5856D6"/>
</g>
</svg>
