<svg width="20" height="18" viewBox="0 0 20 18" fill="none" xmlns="http://www.w3.org/2000/svg">
<path d="M3.58337 17.3333V15.5H16.4167V17.3333H3.58337ZM3.58337 14.125L2.41462 6.76873C2.38407 6.76873 2.34969 6.77255 2.3115 6.78019C2.2733 6.78783 2.23893 6.79165 2.20837 6.79165C1.82643 6.79165 1.50178 6.65797 1.23442 6.39061C0.967055 6.12325 0.833374 5.79859 0.833374 5.41665C0.833374 5.0347 0.967055 4.71005 1.23442 4.44269C1.50178 4.17533 1.82643 4.04165 2.20837 4.04165C2.59032 4.04165 2.91497 4.17533 3.18233 4.44269C3.44969 4.71005 3.58337 5.0347 3.58337 5.41665C3.58337 5.52359 3.57192 5.6229 3.549 5.71457C3.52608 5.80623 3.49935 5.89026 3.46879 5.96665L6.33337 7.24998L9.19796 3.33123C9.0299 3.20901 8.8924 3.04859 8.78546 2.84998C8.67851 2.65137 8.62504 2.43748 8.62504 2.20831C8.62504 1.82637 8.75872 1.50172 9.02608 1.23436C9.29344 0.966995 9.6181 0.833315 10 0.833315C10.382 0.833315 10.7066 0.966995 10.974 1.23436C11.2414 1.50172 11.375 1.82637 11.375 2.20831C11.375 2.43748 11.3216 2.65137 11.2146 2.84998C11.1077 3.04859 10.9702 3.20901 10.8021 3.33123L13.6667 7.24998L16.5313 5.96665C16.5007 5.89026 16.474 5.80623 16.4511 5.71457C16.4282 5.6229 16.4167 5.52359 16.4167 5.41665C16.4167 5.0347 16.5504 4.71005 16.8177 4.44269C17.0851 4.17533 17.4098 4.04165 17.7917 4.04165C18.1737 4.04165 18.4983 4.17533 18.7657 4.44269C19.033 4.71005 19.1667 5.0347 19.1667 5.41665C19.1667 5.79859 19.033 6.12325 18.7657 6.39061C18.4983 6.65797 18.1737 6.79165 17.7917 6.79165C17.7612 6.79165 17.7268 6.78783 17.6886 6.78019C17.6504 6.77255 17.616 6.76873 17.5855 6.76873L16.4167 14.125H3.58337ZM5.14171 12.2916H14.8584L15.4542 8.46456L13.048 9.51873L10 5.32498L6.95212 9.51873L4.54587 8.46456L5.14171 12.2916Z" fill="#262A27"/>
</svg>
