<svg xmlns="http://www.w3.org/2000/svg" width="71" height="84" viewBox="0 0 71 84">
    <g fill="none" fill-rule="evenodd">
        <path fill="#AA1F18" d="M48.285 41.38l1.608-12.216a13.792 13.792 0 0 0 4.747-10.403c-.02-7.614-6.178-13.781-13.78-13.802h-.477A10.133 10.133 0 0 0 31.828.25a10.133 10.133 0 0 0-8.556 4.708h-.481c-7.602.02-13.759 6.188-13.78 13.802a13.792 13.792 0 0 0 4.747 10.403l2.285 17.386 32.242-5.17z"/>
        <path fill="#D69000" d="M48.208 65.89c1.366 14.18-15.003 23.026-26.098 14.183-3.816-3.048-5.047-6.258-6.063-10.727l6.236-1.01c.693 2.817 1.3 4.844 3.847 6.832 6.66 5.221 16.477 0 15.808-8.504l-.12-1.487 6.236-1.01.154 1.722z"/>
        <path fill="#ED8A1D" d="M48.143 65.924c1.365 14.18-15.004 23.027-26.098 14.184-3.824-3.048-5.063-6.246-6.07-10.731l6.235-1.01c.693 2.817 1.3 4.843 3.847 6.832 6.66 5.22 16.477 0 15.807-8.504l-.119-1.488 6.236-1.01.162 1.727z"/>
        <path fill="#231F20" d="M60.203 66.232v-.07.07zm10.59-13.756a91.661 91.661 0 0 1-1.873 5.68 67.65 67.65 0 0 1-2.135 5.14c-.239.534-.518 1.05-.835 1.541a4.783 4.783 0 0 1-.919 1.037 3.218 3.218 0 0 1-1.123.597c-.477.134-.97.197-1.466.189a6.007 6.007 0 0 1-1.285-.131h-.038v-2.524a4.068 4.068 0 0 0 1.173.154c.449.03.89-.124 1.223-.427.322-.342.57-.746.731-1.187a57.57 57.57 0 0 1-2.031-4.474 55.875 55.875 0 0 1-1.923-5.572h3.143c.133.514.29 1.075.469 1.684.18.61.368 1.22.565 1.834.203.62.407 1.22.612 1.804.204.585.404 1.117.589 1.595a53.237 53.237 0 0 0 1.088-3.399c.182-.619.356-1.23.52-1.834.164-.603.314-1.165.45-1.684l3.066-.023z"/>
        <path fill="#231F20" d="M57.76 79.283V64.46l2.966-.478v4.87c.252-.079.51-.142.77-.188.298-.058.6-.088.904-.089a5.585 5.585 0 0 1 2.12.35 3.29 3.29 0 0 1 1.354.987c.347.446.592.963.715 1.514.145.641.215 1.297.208 1.954v5.919H63.83v-5.576c0-.956-.128-1.634-.385-2.035-.256-.4-.71-.6-1.362-.597-.25-.001-.5.022-.746.07a7.335 7.335 0 0 0-.627.15v7.972h-2.95zM48.485 74.043c0-.732.13-1.457.385-2.143a5.006 5.006 0 0 1 2.754-2.94 5.574 5.574 0 0 1 2.27-.439 7.298 7.298 0 0 1 1.539.15c.464.1.917.243 1.354.428l-.616 2.374a7.458 7.458 0 0 0-.915-.278 4.778 4.778 0 0 0-1.116-.12 2.345 2.345 0 0 0-1.958.818 3.368 3.368 0 0 0-.646 2.154c-.05.778.165 1.55.608 2.192.405.514 1.111.77 2.12.77a7.267 7.267 0 0 0 1.153-.1c.39-.06.771-.167 1.135-.32l.42 2.432c-.418.17-.85.3-1.293.385a8.512 8.512 0 0 1-1.712.158 6.43 6.43 0 0 1-2.466-.427 4.65 4.65 0 0 1-1.7-1.156 4.549 4.549 0 0 1-.974-1.746 7.413 7.413 0 0 1-.307-2.18M6.576 73.723c0-.956-.128-1.634-.385-2.035a1.365 1.365 0 0 0-1.262-.597c-.192 0-.385.011-.577.031-.2.02-.392.044-.577.07v8.091H.825V69.161a21.753 21.753 0 0 1 1.958-.409c.377-.059.762-.105 1.154-.138.392-.034.783-.05 1.173-.05a4.925 4.925 0 0 1 1.87.288c.42.165.809.396 1.154.686.446-.315.94-.557 1.462-.716a5.113 5.113 0 0 1 1.539-.259 5.22 5.22 0 0 1 2.058.351c.508.21.951.55 1.285.987.33.449.554.966.658 1.514.125.643.186 1.298.18 1.953v5.919h-2.993v-5.564c0-.956-.128-1.634-.384-2.035a1.365 1.365 0 0 0-1.262-.597c-.226.012-.45.052-.666.12-.25.064-.488.165-.708.3.096.315.156.64.181.967.026.34.039.702.039 1.087v5.718H6.576v-5.56zM59.453 55.104a16.024 16.024 0 0 0-.935-.208 5.377 5.377 0 0 0-1.82-.058c-.198.021-.395.057-.588.108v8.011h-2.966v-9.926c.617-.21 1.245-.386 1.881-.528a10.828 10.828 0 0 1 2.416-.25c.159 0 .351.01.577.03a12.155 12.155 0 0 1 1.354.201c.197.038.39.095.577.17l-.496 2.45zM36.344 62.957c-.68-1.328-1.37-2.882-2.07-4.662-.7-1.78-1.362-3.72-1.985-5.819h3.159c.133.514.29 1.075.469 1.684a113.71 113.71 0 0 0 1.139 3.638c.192.585.384 1.117.569 1.595.172-.478.36-1.01.562-1.595.202-.586.399-1.187.588-1.804.193-.616.385-1.229.562-1.834a50.68 50.68 0 0 0 .47-1.684h3.077a73.698 73.698 0 0 1-1.985 5.819c-.698 1.78-1.386 3.334-2.066 4.662h-2.489zM31.816 49.444c.029.49-.165.967-.527 1.298a1.887 1.887 0 0 1-2.489 0 1.832 1.832 0 0 1 0-2.57 1.887 1.887 0 0 1 2.489 0c.359.329.552.801.527 1.287v-.015zm-.277 13.528h-2.966v-10.5h2.966v10.5zM26.919 63.157a7.398 7.398 0 0 1-2.1-.277 3.103 3.103 0 0 1-1.274-.728 2.413 2.413 0 0 1-.639-1.137c-.118-.493-.175-1-.169-1.507v-11.54l2.966-.478v11.421c-.001.24.02.48.062.717.032.196.112.38.23.54.13.158.299.282.49.358.272.106.56.167.853.18l-.42 2.451zM42.51 57.794a6.421 6.421 0 0 1 .428-2.443 5.237 5.237 0 0 1 1.123-1.746c.455-.458 1-.818 1.6-1.055a4.994 4.994 0 0 1 1.862-.359 4.612 4.612 0 0 1 3.52 1.364c.862.91 1.293 2.248 1.293 4.015 0 .172-.006.361-.02.567-.012.205-.025.388-.038.547h-6.72c.052.589.365 1.124.854 1.456a3.435 3.435 0 0 0 2.03.54c.538 0 1.074-.05 1.601-.15.441-.08.872-.21 1.285-.386l.385 2.412a4.07 4.07 0 0 1-.639.24c-.29.085-.586.154-.885.207-.325.06-.674.11-1.046.15-.37.04-.743.06-1.116.058a6.584 6.584 0 0 1-2.458-.42 4.785 4.785 0 0 1-1.731-1.156 4.548 4.548 0 0 1-1.016-1.722 6.842 6.842 0 0 1-.327-2.154l.016.035zm6.948-1.172a3.056 3.056 0 0 0-.13-.736 1.839 1.839 0 0 0-.339-.64 1.8 1.8 0 0 0-.577-.458 1.875 1.875 0 0 0-.866-.18 1.986 1.986 0 0 0-.854.169 1.762 1.762 0 0 0-.596.447c-.168.19-.298.409-.385.647a4.263 4.263 0 0 0-.188.748l3.935.003zM11.839 57.794c-.016-.83.129-1.654.427-2.428a5.234 5.234 0 0 1 1.123-1.745c.455-.459 1-.818 1.6-1.056a4.994 4.994 0 0 1 1.862-.358 4.612 4.612 0 0 1 3.52 1.364c.862.909 1.293 2.247 1.293 4.015 0 .172-.007.36-.02.566-.012.206-.025.388-.038.547h-6.72c.052.59.365 1.124.853 1.457.6.38 1.303.564 2.012.528a8.55 8.55 0 0 0 1.6-.15c.442-.08.873-.21 1.286-.386l.384 2.412a4.07 4.07 0 0 1-.638.24c-.291.085-.586.154-.885.207-.326.06-.674.11-1.046.15-.37.04-.743.059-1.116.058a6.584 6.584 0 0 1-2.458-.42 4.785 4.785 0 0 1-1.731-1.156 4.548 4.548 0 0 1-1.016-1.722 6.838 6.838 0 0 1-.327-2.154l.035.03zm6.928-1.168a3.06 3.06 0 0 0-.13-.736 1.843 1.843 0 0 0-.34-.64 1.8 1.8 0 0 0-.546-.423 1.875 1.875 0 0 0-.865-.181 1.986 1.986 0 0 0-.854.17c-.226.106-.427.26-.589.45-.168.19-.298.41-.384.647a4.279 4.279 0 0 0-.189.748l3.897-.035zM3.848 57.636c-.038.784.178 1.56.616 2.212a2.13 2.13 0 0 0 1.831.836 8.385 8.385 0 0 0 1.293-.1v-5.395a2.583 2.583 0 0 0-.727-.3 3.492 3.492 0 0 0-.904-.12c-1.406 0-2.109.957-2.109 2.87v-.003zm6.706 4.986c-.257.08-.562.155-.916.227a19.86 19.86 0 0 1-1.085.189 20.3 20.3 0 0 1-1.154.131c-.392.033-.767.05-1.123.05a6.573 6.573 0 0 1-2.308-.385 4.639 4.639 0 0 1-1.712-1.087 4.718 4.718 0 0 1-1.047-1.71 6.56 6.56 0 0 1-.384-2.263 7.753 7.753 0 0 1 .319-2.311c.187-.637.498-1.23.916-1.746a3.92 3.92 0 0 1 1.458-1.083 4.898 4.898 0 0 1 1.98-.385c.372-.004.743.036 1.105.12.337.084.667.197.985.339v-4.74l2.966-.478v15.132z"/>
    </g>
</svg>