<svg width="24" height="23" viewBox="0 0 24 23" fill="none" xmlns="http://www.w3.org/2000/svg">
<g id="diversity_4">
<mask id="mask0_997_476" style="mask-type:alpha" maskUnits="userSpaceOnUse" x="0" y="-1" width="24" height="24">
<rect id="Bounding box" y="-1" width="24" height="24" fill="#D9D9D9"/>
</mask>
<g mask="url(#mask0_997_476)">
<path id="diversity_4_2" d="M19 7C19.2833 7 19.5208 6.90417 19.7125 6.7125C19.9042 6.52083 20 6.28333 20 6C20 5.71667 19.9042 5.47917 19.7125 5.2875C19.5208 5.09583 19.2833 5 19 5C18.7167 5 18.4792 5.09583 18.2875 5.2875C18.0958 5.47917 18 5.71667 18 6C18 6.28333 18.0958 6.52083 18.2875 6.7125C18.4792 6.90417 18.7167 7 19 7ZM19 9C18.15 9 17.4375 8.7125 16.8625 8.1375C16.2875 7.5625 16 6.85 16 6C16 5.16667 16.2875 4.45833 16.8625 3.875C17.4375 3.29167 18.15 3 19 3C19.8333 3 20.5417 3.29167 21.125 3.875C21.7083 4.45833 22 5.16667 22 6C22 6.85 21.7083 7.5625 21.125 8.1375C20.5417 8.7125 19.8333 9 19 9ZM12 6C12.4167 6 12.7708 5.85833 13.0625 5.575C13.3542 5.29167 13.5 4.93333 13.5 4.5C13.5 4.08333 13.3542 3.72917 13.0625 3.4375C12.7708 3.14583 12.4167 3 12 3C11.5667 3 11.2083 3.14583 10.925 3.4375C10.6417 3.72917 10.5 4.08333 10.5 4.5C10.5 4.93333 10.6417 5.29167 10.925 5.575C11.2083 5.85833 11.5667 6 12 6ZM12 8C11.0167 8 10.1875 7.6625 9.5125 6.9875C8.8375 6.3125 8.5 5.48333 8.5 4.5C8.5 3.53333 8.8375 2.70833 9.5125 2.025C10.1875 1.34167 11.0167 1 12 1C12.9667 1 13.7917 1.34167 14.475 2.025C15.1583 2.70833 15.5 3.53333 15.5 4.5C15.5 5.48333 15.1583 6.3125 14.475 6.9875C13.7917 7.6625 12.9667 8 12 8ZM8 12.375C8 12.875 8.26667 13.4583 8.8 14.125C9.33333 14.7917 10.4 15.85 12 17.3C13.5667 15.8833 14.625 14.8417 15.175 14.175C15.725 13.5083 16 12.9083 16 12.375C16 11.9917 15.875 11.6667 15.625 11.4C15.375 11.1333 15.0667 11 14.7 11C14.4667 11 14.2458 11.05 14.0375 11.15C13.8292 11.25 13.6583 11.3917 13.525 11.575L12.325 13H11.65L10.45 11.575C10.3167 11.3917 10.1458 11.25 9.9375 11.15C9.72917 11.05 9.51667 11 9.3 11C8.91667 11 8.60417 11.1333 8.3625 11.4C8.12083 11.6667 8 11.9917 8 12.375ZM6 12.375C6 11.4917 6.3 10.7083 6.9 10.025C7.5 9.34167 8.3 9 9.3 9C9.81667 9 10.3125 9.11667 10.7875 9.35C11.2625 9.58333 11.6667 9.9 12 10.3C12.3333 9.9 12.7333 9.58333 13.2 9.35C13.6667 9.11667 14.1667 9 14.7 9C15.7 9 16.5 9.34583 17.1 10.0375C17.7 10.7292 18 11.5083 18 12.375C18 13.2583 17.6792 14.1292 17.0375 14.9875C16.3958 15.8458 15.0833 17.1833 13.1 19L12 20L10.9 19C8.88333 17.1667 7.5625 15.825 6.9375 14.975C6.3125 14.125 6 13.2583 6 12.375ZM5 7C5.28333 7 5.52083 6.90417 5.7125 6.7125C5.90417 6.52083 6 6.28333 6 6C6 5.71667 5.90417 5.47917 5.7125 5.2875C5.52083 5.09583 5.28333 5 5 5C4.71667 5 4.47917 5.09583 4.2875 5.2875C4.09583 5.47917 4 5.71667 4 6C4 6.28333 4.09583 6.52083 4.2875 6.7125C4.47917 6.90417 4.71667 7 5 7ZM12.075 21V19H20V12H17.05V10H20C20.55 10 21.0208 10.1958 21.4125 10.5875C21.8042 10.9792 22 11.45 22 12V21H12.075ZM4 19H12.075V21H2V12C2 11.45 2.19167 10.9792 2.575 10.5875C2.95833 10.1958 3.43333 10 4 10H6.95V12H4V19ZM5 9C4.15 9 3.4375 8.7125 2.8625 8.1375C2.2875 7.5625 2 6.85 2 6C2 5.16667 2.2875 4.45833 2.8625 3.875C3.4375 3.29167 4.15 3 5 3C5.83333 3 6.54167 3.29167 7.125 3.875C7.70833 4.45833 8 5.16667 8 6C8 6.85 7.70833 7.5625 7.125 8.1375C6.54167 8.7125 5.83333 9 5 9Z" fill="white"/>
</g>
</g>
</svg>
