<svg width="42" height="11" viewBox="0 0 42 11" fill="none" xmlns="http://www.w3.org/2000/svg">
<path id="Union" fill-rule="evenodd" clip-rule="evenodd" d="M29.2949 0H21.8088V2.125H29.2949V0ZM6.25663 11H0.352051L0.352083 9.68753V9.00004H3.88427H5.78216L6.73111 8.68754L7.57461 8.18754L8.15452 7.31254L8.41812 6.00004V4.81254L8.15452 3.87504L7.89093 3.25005L7.2583 2.50005L6.41479 2.12505L5.41313 1.93755H1.67006H0.352083V0.0625504H4.99137H6.41479L7.89093 0.43755L8.99803 1.06255L9.78882 1.93755L10.2633 2.93755L10.5269 4.25004V6.75004L10.3687 7.81254L9.9997 8.62504L9.41979 9.43754L8.41812 10.25L7.41646 10.75L6.25663 11ZM23.9175 9.00002H29.5058V11H21.8088V9.24997V9.00002V6.74999V6.62497V4.62499H27.8188V6.74999H23.9175V9.00002ZM11.3706 0H17.2752V0.0625504H17.8022L18.3822 0.25005L19.1729 0.56255L19.9637 1.25005L20.3855 2.06255L20.4909 2.75005V3.93754L20.4382 4.43754L20.28 5.06254L19.9637 5.62504L18.9093 6.50004L18.2736 6.78269L20.9655 10.9777L18.2887 10.9778L15.7874 6.87486H13.4794V11.0001H11.3706V6.87486V6.25014V4.74986H17.2752V4.78976L17.6968 4.56254L18.1713 4.12504L18.3294 3.87504V2.87505L18.224 2.62505L18.0131 2.31255L17.5914 2.06255L17.2752 1.98757V2H11.3706V0ZM0.378817 3.00169L3.7792 5.43739L0.378817 7.87308V3.00169ZM7.78556 5.43739L4.30609 3.00169V7.87308L7.78556 5.43739ZM32.6165 11L41.4206 0H38.7319L29.9367 10.9377L32.6165 11ZM39.3119 11.0001H42.0006L38.2048 6.25014L36.8341 7.93763L39.3119 11.0001ZM30.5601 0.0625504H33.1961L35.1467 2.37505L33.776 4.00004L30.5601 0.0625504Z" fill="#6DB631"/>
</svg>
