<svg width="16" height="16" viewBox="0 0 16 16" fill="none" xmlns="http://www.w3.org/2000/svg">
<path d="M4.25006 8.68228C4.56256 8.68228 4.82819 8.57291 5.04694 8.35416C5.26569 8.13541 5.37506 7.86978 5.37506 7.55728C5.37506 7.24478 5.26569 6.97916 5.04694 6.76041C4.82819 6.54166 4.56256 6.43228 4.25006 6.43228C3.93756 6.43228 3.67194 6.54166 3.45319 6.76041C3.23444 6.97916 3.12506 7.24478 3.12506 7.55728C3.12506 7.86978 3.23444 8.13541 3.45319 8.35416C3.67194 8.57291 3.93756 8.68228 4.25006 8.68228ZM8.00006 8.68228C8.31256 8.68228 8.57819 8.57291 8.79694 8.35416C9.01569 8.13541 9.12506 7.86978 9.12506 7.55728C9.12506 7.24478 9.01569 6.97916 8.79694 6.76041C8.57819 6.54166 8.31256 6.43228 8.00006 6.43228C7.68756 6.43228 7.42194 6.54166 7.20319 6.76041C6.98444 6.97916 6.87506 7.24478 6.87506 7.55728C6.87506 7.86978 6.98444 8.13541 7.20319 8.35416C7.42194 8.57291 7.68756 8.68228 8.00006 8.68228ZM11.7501 8.68228C12.0626 8.68228 12.3282 8.57291 12.5469 8.35416C12.7657 8.13541 12.8751 7.86978 12.8751 7.55728C12.8751 7.24478 12.7657 6.97916 12.5469 6.76041C12.3282 6.54166 12.0626 6.43228 11.7501 6.43228C11.4376 6.43228 11.1719 6.54166 10.9532 6.76041C10.7344 6.97916 10.6251 7.24478 10.6251 7.55728C10.6251 7.86978 10.7344 8.13541 10.9532 8.35416C11.1719 8.57291 11.4376 8.68228 11.7501 8.68228ZM8.00006 15.0573C6.96256 15.0573 5.98756 14.8604 5.07506 14.4667C4.16256 14.0729 3.36881 13.5385 2.69381 12.8635C2.01881 12.1885 1.48444 11.3948 1.09069 10.4823C0.696936 9.56978 0.500061 8.59478 0.500061 7.55728C0.500061 6.51978 0.696936 5.54478 1.09069 4.63228C1.48444 3.71978 2.01881 2.92603 2.69381 2.25103C3.36881 1.57603 4.16256 1.04166 5.07506 0.647907C5.98756 0.254157 6.96256 0.0572815 8.00006 0.0572815C9.03756 0.0572815 10.0126 0.254157 10.9251 0.647907C11.8376 1.04166 12.6313 1.57603 13.3063 2.25103C13.9813 2.92603 14.5157 3.71978 14.9094 4.63228C15.3032 5.54478 15.5001 6.51978 15.5001 7.55728C15.5001 8.59478 15.3032 9.56978 14.9094 10.4823C14.5157 11.3948 13.9813 12.1885 13.3063 12.8635C12.6313 13.5385 11.8376 14.0729 10.9251 14.4667C10.0126 14.8604 9.03756 15.0573 8.00006 15.0573ZM8.00006 13.5573C9.67506 13.5573 11.0938 12.976 12.2563 11.8135C13.4188 10.651 14.0001 9.23228 14.0001 7.55728C14.0001 5.88228 13.4188 4.46353 12.2563 3.30103C11.0938 2.13853 9.67506 1.55728 8.00006 1.55728C6.32506 1.55728 4.90631 2.13853 3.74381 3.30103C2.58131 4.46353 2.00006 5.88228 2.00006 7.55728C2.00006 9.23228 2.58131 10.651 3.74381 11.8135C4.90631 12.976 6.32506 13.5573 8.00006 13.5573Z" fill="#5856D6"/>
</svg>
