<svg width="29" height="29" viewBox="0 0 29 29" fill="none" xmlns="http://www.w3.org/2000/svg">
<g id="payments">
<mask id="mask0_2141_1290" style="mask-type:alpha" maskUnits="userSpaceOnUse" x="0" y="0" width="29" height="29">
<rect id="Bounding box" x="0.666504" y="0.614044" width="28" height="28" fill="#D9D9D9"/>
</mask>
<g mask="url(#mask0_2141_1290)">
<path id="payments_2" d="M17.0002 15.7808C16.0279 15.7808 15.2016 15.4405 14.521 14.76C13.8404 14.0794 13.5002 13.253 13.5002 12.2808C13.5002 11.3086 13.8404 10.4822 14.521 9.80164C15.2016 9.12109 16.0279 8.78081 17.0002 8.78081C17.9724 8.78081 18.7988 9.12109 19.4793 9.80164C20.1599 10.4822 20.5002 11.3086 20.5002 12.2808C20.5002 13.253 20.1599 14.0794 19.4793 14.76C18.7988 15.4405 17.9724 15.7808 17.0002 15.7808ZM8.8335 19.2808C8.19183 19.2808 7.64252 19.0523 7.18558 18.5954C6.72864 18.1384 6.50016 17.5891 6.50016 16.9475V7.61414C6.50016 6.97247 6.72864 6.42317 7.18558 5.96622C7.64252 5.50928 8.19183 5.28081 8.8335 5.28081H25.1668C25.8085 5.28081 26.3578 5.50928 26.8147 5.96622C27.2717 6.42317 27.5002 6.97247 27.5002 7.61414V16.9475C27.5002 17.5891 27.2717 18.1384 26.8147 18.5954C26.3578 19.0523 25.8085 19.2808 25.1668 19.2808H8.8335ZM11.1668 16.9475H22.8335C22.8335 16.3058 23.062 15.7565 23.5189 15.2996C23.9759 14.8426 24.5252 14.6141 25.1668 14.6141V9.94747C24.5252 9.94747 23.9759 9.719 23.5189 9.26206C23.062 8.80511 22.8335 8.25581 22.8335 7.61414H11.1668C11.1668 8.25581 10.9384 8.80511 10.4814 9.26206C10.0245 9.719 9.47516 9.94747 8.8335 9.94747V14.6141C9.47516 14.6141 10.0245 14.8426 10.4814 15.2996C10.9384 15.7565 11.1668 16.3058 11.1668 16.9475ZM24.0002 23.9475H4.16683C3.52516 23.9475 2.97586 23.719 2.51891 23.2621C2.06197 22.8051 1.8335 22.2558 1.8335 21.6141V8.78081H4.16683V21.6141H24.0002V23.9475Z" fill="#6DB631"/>
</g>
</g>
</svg>
