<svg width="25" height="24" viewBox="0 0 25 24" fill="none" xmlns="http://www.w3.org/2000/svg">
<g id="filter_alt">
<mask id="mask0_1618_4238" style="mask-type:alpha" maskUnits="userSpaceOnUse" x="0" y="0" width="25" height="24">
<rect id="Bounding box" width="24.5106" height="24" fill="#D9D9D9"/>
</mask>
<g mask="url(#mask0_1618_4238)">
<path id="filter_alt_2" d="M11.2339 20C10.9446 20 10.702 19.9042 10.5063 19.7125C10.3105 19.5208 10.2127 19.2833 10.2127 19V13L4.28925 5.6C4.03393 5.26667 3.99563 4.91667 4.17435 4.55C4.35308 4.18333 4.66371 4 5.10627 4H19.4041C19.8467 4 20.1573 4.18333 20.3361 4.55C20.5148 4.91667 20.4765 5.26667 20.2212 5.6L14.2978 13V19C14.2978 19.2833 14.1999 19.5208 14.0041 19.7125C13.8084 19.9042 13.5658 20 13.2765 20H11.2339ZM12.2552 12.3L17.3105 6H7.19989L12.2552 12.3Z" fill="#262A27"/>
</g>
</g>
</svg>
