<svg width="24" height="24" viewBox="0 0 24 24" fill="none" xmlns="http://www.w3.org/2000/svg">
<g id="ICONES MENU">
<mask id="mask0_997_204" style="mask-type:alpha" maskUnits="userSpaceOnUse" x="0" y="0" width="24" height="24">
<rect id="Bounding box" width="24" height="24" fill="#D9D9D9"/>
</mask>
<g mask="url(#mask0_997_204)">
<path id="redeem" d="M4.03711 16.5232V18.5232H20.0371V16.5232H4.03711ZM4.03711 5.52319H6.23711C6.15378 5.37319 6.09961 5.21486 6.07461 5.04819C6.04961 4.88153 6.03711 4.70653 6.03711 4.52319C6.03711 3.68986 6.32878 2.98153 6.91211 2.39819C7.49544 1.81486 8.20378 1.52319 9.03711 1.52319C9.53711 1.52319 9.99961 1.65236 10.4246 1.91069C10.8496 2.16903 11.2204 2.48986 11.5371 2.87319L12.0371 3.52319L12.5371 2.87319C12.8371 2.47319 13.2038 2.14819 13.6371 1.89819C14.0704 1.64819 14.5371 1.52319 15.0371 1.52319C15.8704 1.52319 16.5788 1.81486 17.1621 2.39819C17.7454 2.98153 18.0371 3.68986 18.0371 4.52319C18.0371 4.70653 18.0246 4.88153 17.9996 5.04819C17.9746 5.21486 17.9204 5.37319 17.8371 5.52319H20.0371C20.5871 5.52319 21.0579 5.71903 21.4496 6.11069C21.8413 6.50236 22.0371 6.97319 22.0371 7.52319V18.5232C22.0371 19.0732 21.8413 19.544 21.4496 19.9357C21.0579 20.3274 20.5871 20.5232 20.0371 20.5232H4.03711C3.48711 20.5232 3.01628 20.3274 2.62461 19.9357C2.23294 19.544 2.03711 19.0732 2.03711 18.5232V7.52319C2.03711 6.97319 2.23294 6.50236 2.62461 6.11069C3.01628 5.71903 3.48711 5.52319 4.03711 5.52319ZM4.03711 13.5232H20.0371V7.52319H14.9371L17.0371 10.3732L15.4371 11.5232L12.0371 6.92319L8.63711 11.5232L7.03711 10.3732L9.08711 7.52319H4.03711V13.5232ZM9.03711 5.52319C9.32044 5.52319 9.55794 5.42736 9.74961 5.23569C9.94128 5.04403 10.0371 4.80653 10.0371 4.52319C10.0371 4.23986 9.94128 4.00236 9.74961 3.81069C9.55794 3.61903 9.32044 3.52319 9.03711 3.52319C8.75378 3.52319 8.51628 3.61903 8.32461 3.81069C8.13294 4.00236 8.03711 4.23986 8.03711 4.52319C8.03711 4.80653 8.13294 5.04403 8.32461 5.23569C8.51628 5.42736 8.75378 5.52319 9.03711 5.52319ZM15.0371 5.52319C15.3204 5.52319 15.5579 5.42736 15.7496 5.23569C15.9413 5.04403 16.0371 4.80653 16.0371 4.52319C16.0371 4.23986 15.9413 4.00236 15.7496 3.81069C15.5579 3.61903 15.3204 3.52319 15.0371 3.52319C14.7538 3.52319 14.5163 3.61903 14.3246 3.81069C14.1329 4.00236 14.0371 4.23986 14.0371 4.52319C14.0371 4.80653 14.1329 5.04403 14.3246 5.23569C14.5163 5.42736 14.7538 5.52319 15.0371 5.52319Z" fill="white"/>
</g>
</g>
</svg>
