<svg width="25" height="24" viewBox="0 0 25 24" fill="none" xmlns="http://www.w3.org/2000/svg">
<g id="groups_2">
<mask id="mask0_1322_9602" style="mask-type:alpha" maskUnits="userSpaceOnUse" x="0" y="0" width="25" height="24">
<rect id="Bounding box" x="0.470581" width="24" height="24" fill="#D9D9D9"/>
</mask>
<g mask="url(#mask0_1322_9602)">
<path id="groups_2_2" d="M10.013 12C9.56876 12 9.20381 11.825 8.9182 11.475C8.63259 11.125 8.52945 10.7167 8.60879 10.25L8.8944 8.45C9.02134 7.73333 9.34265 7.14583 9.85834 6.6875C10.374 6.22917 10.973 6 11.6553 6C12.3535 6 12.9604 6.22917 13.4761 6.6875C13.9918 7.14583 14.3131 7.73333 14.44 8.45L14.7256 10.25C14.805 10.7167 14.7018 11.125 14.4162 11.475C14.1306 11.825 13.7657 12 13.3214 12H10.013ZM10.5843 10H12.7502L12.5598 8.775C12.528 8.54167 12.4249 8.35417 12.2503 8.2125C12.0758 8.07083 11.8775 8 11.6553 8C11.4332 8 11.2388 8.07083 11.0722 8.2125C10.9056 8.35417 10.8064 8.54167 10.7747 8.775L10.5843 10ZM3.18216 12.975C2.81721 12.9917 2.50383 12.9167 2.24202 12.75C1.98021 12.5833 1.80963 12.325 1.7303 11.975C1.69856 11.825 1.69063 11.675 1.7065 11.525C1.72236 11.375 1.76203 11.2333 1.8255 11.1C1.8255 11.1167 1.81757 11.0833 1.8017 11C1.76997 10.9667 1.69063 10.7667 1.56369 10.4C1.53196 10.2 1.55576 10.0083 1.63509 9.825C1.71443 9.64167 1.81757 9.48333 1.94451 9.35L1.99211 9.3C2.02384 8.98333 2.14682 8.71667 2.36102 8.5C2.57523 8.28333 2.84101 8.175 3.15836 8.175C3.20596 8.175 3.3567 8.20833 3.61058 8.275L3.68198 8.25C3.76132 8.16667 3.86445 8.10417 3.99139 8.0625C4.11833 8.02083 4.2532 8 4.39601 8C4.57055 8 4.72526 8.02917 4.86013 8.0875C4.995 8.14583 5.10211 8.23333 5.18144 8.35C5.19731 8.35 5.20921 8.35417 5.21714 8.3625C5.22508 8.37083 5.23698 8.375 5.25285 8.375C5.47499 8.39167 5.66936 8.4625 5.83597 8.5875C6.00258 8.7125 6.12555 8.88333 6.20489 9.1C6.23662 9.21667 6.24852 9.32917 6.24059 9.4375C6.23265 9.54583 6.21282 9.65 6.18108 9.75C6.18108 9.76667 6.18902 9.8 6.20489 9.85C6.31596 9.96667 6.40323 10.0958 6.4667 10.2375C6.53017 10.3792 6.5619 10.525 6.5619 10.675C6.5619 10.7417 6.5143 10.9167 6.41909 11.2C6.40323 11.2333 6.40323 11.2667 6.41909 11.3L6.4667 11.7C6.4667 12.05 6.32786 12.35 6.05018 12.6C5.7725 12.85 5.43532 12.975 5.03864 12.975H3.18216ZM19.2716 13C18.748 13 18.2998 12.8042 17.9269 12.4125C17.554 12.0208 17.3676 11.55 17.3676 11C17.3676 10.8 17.3953 10.6125 17.4509 10.4375C17.5064 10.2625 17.5818 10.0917 17.677 9.925L17.0105 9.3C16.8519 9.16667 16.8241 9 16.9272 8.8C17.0304 8.6 17.1771 8.5 17.3676 8.5H19.2716C19.7953 8.5 20.2435 8.69583 20.6164 9.0875C20.9893 9.47917 21.1757 9.95 21.1757 10.5V11C21.1757 11.55 20.9893 12.0208 20.6164 12.4125C20.2435 12.8042 19.7953 13 19.2716 13ZM0.230835 18V16.425C0.230835 15.6917 0.583883 15.1042 1.28998 14.6625C1.99608 14.2208 2.91241 14 4.03899 14C4.24527 14 4.44361 14.0042 4.63402 14.0125C4.82443 14.0208 5.0069 14.0417 5.18144 14.075C4.9593 14.4083 4.79269 14.7667 4.68162 15.15C4.57055 15.5333 4.51501 15.9417 4.51501 16.375V18H0.230835ZM5.94307 18V16.375C5.94307 15.2917 6.47066 14.4167 7.52584 13.75C8.58102 13.0833 9.95751 12.75 11.6553 12.75C13.369 12.75 14.7494 13.0833 15.7967 13.75C16.8439 14.4167 17.3676 15.2917 17.3676 16.375V18H5.94307ZM19.2716 14C20.4141 14 21.3344 14.2208 22.0325 14.6625C22.7307 15.1042 23.0798 15.6917 23.0798 16.425V18H18.7956V16.375C18.7956 15.9417 18.744 15.5333 18.6409 15.15C18.5378 14.7667 18.3831 14.4083 18.1768 14.075C18.3513 14.0417 18.5298 14.0208 18.7123 14.0125C18.8948 14.0042 19.0812 14 19.2716 14ZM11.6553 14.75C10.7509 14.75 9.94164 14.875 9.22761 15.125C8.51358 15.375 8.0931 15.6667 7.96616 16H15.3683C15.2255 15.6667 14.801 15.375 14.0949 15.125C13.3888 14.875 12.5756 14.75 11.6553 14.75Z" fill="#32BC30"/>
</g>
</g>
</svg>
