<svg width="58" height="58" viewBox="0 0 58 58" fill="none" xmlns="http://www.w3.org/2000/svg">
<mask id="mask0_2730_19602" style="mask-type:alpha" maskUnits="userSpaceOnUse" x="0" y="0" width="58" height="58">
<rect width="58" height="58" fill="#D9D9D9"/>
</mask>
<g mask="url(#mask0_2730_19602)">
<path d="M4.8335 57.9999V48.3333H53.1668V57.9999H4.8335ZM14.5002 38.6666H17.8835L36.7335 19.877L33.2897 16.4333L14.5002 35.2833V38.6666ZM9.66683 43.4999V33.2291L36.7335 6.22284C37.1765 5.77978 37.6901 5.43742 38.2741 5.19575C38.8581 4.95409 39.4724 4.83325 40.1168 4.83325C40.7613 4.83325 41.3856 4.95409 41.9897 5.19575C42.5939 5.43742 43.1377 5.79992 43.621 6.28325L46.9439 9.66659C47.4272 10.1096 47.7797 10.6333 48.0012 11.2374C48.2227 11.8416 48.3335 12.4659 48.3335 13.1103C48.3335 13.7145 48.2227 14.3086 48.0012 14.8926C47.7797 15.4767 47.4272 16.0103 46.9439 16.4937L19.9377 43.4999H9.66683Z" fill="#1C1B1F"/>
</g>
</svg>
