<svg width="24" height="24" viewBox="0 0 24 24" fill="none" xmlns="http://www.w3.org/2000/svg">
<g id="NOTIFICATION CENTER">
<g id="notifications">
<mask id="mask0_2029_3917" style="mask-type:alpha" maskUnits="userSpaceOnUse" x="0" y="0" width="24" height="24">
<rect id="Bounding box" width="24" height="24" fill="#D9D9D9"/>
</mask>
<g mask="url(#mask0_2029_3917)">
<path id="notifications_2" d="M2.40039 20.4V18H4.80039V9.6C4.80039 7.94 5.30039 6.465 6.30039 5.175C7.30039 3.885 8.60039 3.04 10.2004 2.64V1.8C10.2004 1.3 10.3754 0.875 10.7254 0.525C11.0754 0.175 11.5004 0 12.0004 0C12.5004 0 12.9254 0.175 13.2754 0.525C13.6254 0.875 13.8004 1.3 13.8004 1.8V2.64C15.4004 3.04 16.7004 3.885 17.7004 5.175C18.7004 6.465 19.2004 7.94 19.2004 9.6V18H21.6004V20.4H2.40039ZM12.0004 24C11.3404 24 10.7754 23.765 10.3054 23.295C9.83539 22.825 9.60039 22.26 9.60039 21.6H14.4004C14.4004 22.26 14.1654 22.825 13.6954 23.295C13.2254 23.765 12.6604 24 12.0004 24ZM7.20039 18H16.8004V9.6C16.8004 8.28 16.3304 7.15 15.3904 6.21C14.4504 5.27 13.3204 4.8 12.0004 4.8C10.6804 4.8 9.55039 5.27 8.61039 6.21C7.67039 7.15 7.20039 8.28 7.20039 9.6V18Z" fill="#6DB631"/>
</g>
</g>
<circle id="Ellipse 1" cx="16.7222" cy="6.05547" r="3.72222" fill="#FF2D55"/>
</g>
</svg>
