<svg width="24" height="23" viewBox="0 0 24 23" fill="none" xmlns="http://www.w3.org/2000/svg">
<g id="insert_chart">
<mask id="mask0_997_78" style="mask-type:alpha" maskUnits="userSpaceOnUse" x="0" y="-1" width="24" height="24">
<rect id="Bounding box" y="-1" width="24" height="24" fill="#D9D9D9"/>
</mask>
<g mask="url(#mask0_997_78)">
<path id="insert_chart_2" d="M7 16H9V9H7V16ZM11 16H13V6H11V16ZM15 16H17V12H15V16ZM5 20C4.45 20 3.97917 19.8042 3.5875 19.4125C3.19583 19.0208 3 18.55 3 18V4C3 3.45 3.19583 2.97917 3.5875 2.5875C3.97917 2.19583 4.45 2 5 2H19C19.55 2 20.0208 2.19583 20.4125 2.5875C20.8042 2.97917 21 3.45 21 4V18C21 18.55 20.8042 19.0208 20.4125 19.4125C20.0208 19.8042 19.55 20 19 20H5ZM5 18H19V4H5V18Z" fill="white"/>
</g>
</g>
</svg>
