<svg width="24" height="24" viewBox="0 0 24 24" fill="none" xmlns="http://www.w3.org/2000/svg">
<g id="ICONES MENU">
<mask id="mask0_997_214" style="mask-type:alpha" maskUnits="userSpaceOnUse" x="0" y="0" width="24" height="24">
<rect id="Bounding box" width="24" height="24" fill="#D9D9D9"/>
</mask>
<g mask="url(#mask0_997_214)">
<path id="attach_money" d="M10.9572 22V19.6111C10.0125 19.3889 9.19697 18.963 8.5107 18.3333C7.82442 17.7037 7.32086 16.8148 7 15.6667L8.97861 14.8333C9.24599 15.7222 9.6426 16.3981 10.1684 16.8611C10.6943 17.3241 11.385 17.5556 12.2406 17.5556C12.9715 17.5556 13.5909 17.3843 14.0989 17.0417C14.607 16.6991 14.861 16.1667 14.861 15.4444C14.861 14.7963 14.6649 14.2824 14.2727 13.9028C13.8806 13.5231 12.9715 13.0926 11.5455 12.6111C10.0125 12.1111 8.96078 11.5139 8.39037 10.8194C7.81996 10.125 7.53476 9.27778 7.53476 8.27778C7.53476 7.07407 7.90909 6.13889 8.65775 5.47222C9.40642 4.80556 10.1729 4.42593 10.9572 4.33333V2H13.0963V4.33333C13.9875 4.48148 14.7228 4.81944 15.3021 5.34722C15.8815 5.875 16.3048 6.51852 16.5722 7.27778L14.5936 8.16667C14.3797 7.57407 14.0766 7.12963 13.6845 6.83333C13.2923 6.53704 12.7576 6.38889 12.0802 6.38889C11.2959 6.38889 10.6988 6.56944 10.2888 6.93056C9.87879 7.29167 9.6738 7.74074 9.6738 8.27778C9.6738 8.88889 9.94118 9.37037 10.4759 9.72222C11.0107 10.0741 11.9376 10.4444 13.2567 10.8333C14.4866 11.2037 15.418 11.7917 16.0508 12.5972C16.6836 13.4028 17 14.3333 17 15.3889C17 16.7037 16.6257 17.7037 15.877 18.3889C15.1283 19.0741 14.2014 19.5 13.0963 19.6667V22H10.9572Z" fill="white"/>
</g>
</g>
</svg>
