<svg width="149" height="28" viewBox="0 0 149 28" fill="none" xmlns="http://www.w3.org/2000/svg">
<g id="Group 13">
<path id="Vector" d="M99.4652 10.7902C99.4652 8.30687 105.992 7.6051 111.749 11.6087L114.283 7.94095C107.325 2.11972 93.0788 4.12753 93.681 10.7902C94.3969 18.7119 109.522 16.3707 109.328 20.6632C109.212 23.2668 102.297 23.3811 95.1968 19.244L92.3818 23.321C104.168 30.5807 115.038 26.6397 115.038 20.6632C115.038 11.3343 99.4652 14.9611 99.4652 10.7902Z" fill="#5FC338"/>
<path id="Vector_2" d="M54.5393 26.6385H59.8834V5.2627H54.5393V26.6385Z" fill="#5FC338"/>
<path id="Vector_3" d="M134.485 19.5668C125.811 24.6008 123.799 22.859 123.799 15.9809V5.29297H118.455V15.9809C118.392 28.4046 126.632 29.7599 134.485 23.9893V26.67H139.831H139.832V5.29419H134.487L134.485 19.5668Z" fill="#5FC338"/>
<path id="Vector_4" d="M90.0215 5.25342C90.0215 5.25342 86.8297 5.25342 84.2736 5.25342C84.2736 12.7972 76.1919 13.4111 73.9898 13.4388V5.26305H68.6458V13.564L63.3013 13.5784V18.3415L68.6458 18.3573V26.6389H73.9898V18.48C76.1919 18.5004 84.2736 19.0891 84.2736 26.6485C86.8297 26.6485 90.0215 26.6485 90.0215 26.6485C90.0215 25.3822 89.8422 16.105 79.0986 16.105V15.7969C89.8422 15.7969 90.0215 6.52094 90.0215 5.25342Z" fill="#5FC338"/>
<path id="Vector_5" d="M145.678 6.103H145.346V5.22305H145.689C146.017 5.22305 146.188 5.40484 146.188 5.6516C146.188 5.89716 146.014 6.103 145.678 6.103ZM147.2 5.59142C147.2 4.84752 146.627 4.50684 145.864 4.50684H144.393V7.75211H145.346V6.76383H145.817L146.314 7.75211H147.311L146.621 6.48941C147.012 6.30885 147.2 5.96698 147.2 5.59142Z" fill="#5FC338"/>
<path id="Vector_6" d="M145.728 8.67901C144.34 8.67901 143.353 7.68595 143.353 6.1548C143.353 4.62366 144.34 3.62574 145.728 3.62574C147.115 3.62574 148.102 4.62366 148.102 6.1548C148.102 7.68595 147.115 8.67901 145.728 8.67901ZM145.728 2.81445C143.919 2.81445 142.455 4.21198 142.455 6.1548C142.455 8.09762 143.919 9.48909 145.728 9.48909C147.537 9.48909 149 8.09762 149 6.1548C149 4.21198 147.537 2.81445 145.728 2.81445Z" fill="#5FC338"/>
<path id="Vector_7" d="M43.8507 19.5464C33.1592 28.9933 25.452 16.4804 43.8507 17.3869V19.5464ZM38.4955 4.50098C32.7076 4.50098 29.1468 7.93523 29.1468 7.93523C29.1468 7.93523 30.1897 9.61685 31.6798 11.603C37.8727 7.28881 42.7875 8.94395 43.4668 13.4242C31.5232 13.4242 27.8101 17.1221 27.8101 21.9695C27.81 26.64 35.6601 30.0983 43.8507 23.958V26.64H49.196V15.9509C49.196 4.96686 41.0654 4.50098 38.4955 4.50098Z" fill="#5FC338"/>
<path id="Vector_8" d="M23.4911 5.07611V0H0V5.07611H9.06436V8.01561H0V13.093H8.97932C8.6311 16.284 7.13294 21.5202 1.04809 21.5202H0V27.2681H1.04809C2.31489 27.2681 11.5911 27.0887 11.5911 16.3454H11.9C11.9 27.0887 21.1765 27.2681 22.4431 27.2681H23.4911V21.5202H22.4431C16.3712 21.5202 14.8593 16.284 14.5012 13.093H23.4911V8.01561H14.4084V5.07611H23.4911Z" fill="#5FC338"/>
</g>
</svg>
