<svg width="18" height="18" viewBox="0 0 18 18" fill="none" xmlns="http://www.w3.org/2000/svg">
<mask id="mask0_5005_12901" style="mask-type:alpha" maskUnits="userSpaceOnUse" x="0" y="0" width="18" height="18">
<rect width="18" height="18" fill="#D9D9D9"/>
</mask>
<g mask="url(#mask0_5005_12901)">
<path d="M8.75 16.75C9.6875 16.75 10.5656 16.5719 11.3844 16.2156C12.2031 15.8594 12.9156 15.3781 13.5219 14.7719C14.1281 14.1656 14.6094 13.4531 14.9656 12.6344C15.3219 11.8156 15.5 10.9375 15.5 10H14C14 11.4625 13.4906 12.7031 12.4719 13.7219C11.4531 14.7406 10.2125 15.25 8.75 15.25C7.2875 15.25 6.04688 14.7406 5.02812 13.7219C4.00937 12.7031 3.5 11.4625 3.5 10C3.5 8.5375 4.00937 7.29688 5.02812 6.27812C6.04688 5.25938 7.2875 4.75 8.75 4.75H8.8625L7.7 5.9125L8.75 7L11.75 4L8.75 1L7.7 2.0875L8.8625 3.25H8.75C7.8125 3.25 6.93437 3.42813 6.11563 3.78438C5.29688 4.14062 4.58437 4.62188 3.97812 5.22813C3.37187 5.83438 2.89062 6.54688 2.53437 7.36563C2.17812 8.18438 2 9.0625 2 10C2 10.9375 2.17812 11.8156 2.53437 12.6344C2.89062 13.4531 3.37187 14.1656 3.97812 14.7719C4.58437 15.3781 5.29688 15.8594 6.11563 16.2156C6.93437 16.5719 7.8125 16.75 8.75 16.75Z" fill="#535353"/>
</g>
</svg>
