<svg width="56" height="56" viewBox="0 0 56 56" fill="none" xmlns="http://www.w3.org/2000/svg">
<mask id="mask0_4755_8593" style="mask-type:alpha" maskUnits="userSpaceOnUse" x="0" y="0" width="56" height="56">
<rect width="56" height="56" fill="#D9D9D9"/>
</mask>
<g mask="url(#mask0_4755_8593)">
<path d="M14.0002 7H39.6668V37.3333L23.3335 53.6667L20.4168 50.75C20.1446 50.4778 19.921 50.1083 19.746 49.6417C19.571 49.175 19.4835 48.7278 19.4835 48.3V47.4833L22.0502 37.3333H7.00016C5.75572 37.3333 4.66683 36.8667 3.7335 35.9333C2.80016 35 2.3335 33.9111 2.3335 32.6667V28C2.3335 27.7278 2.37238 27.4361 2.45016 27.125C2.52794 26.8139 2.60572 26.5222 2.6835 26.25L9.6835 9.8C10.0335 9.02222 10.6168 8.36111 11.4335 7.81667C12.2502 7.27222 13.1057 7 14.0002 7ZM35.0002 11.6667H14.0002L7.00016 28V32.6667H28.0002L24.8502 45.5L35.0002 35.35V11.6667ZM39.6668 37.3333V32.6667H46.6668V11.6667H39.6668V7H51.3335V37.3333H39.6668Z" fill="#FF2D55"/>
</g>
</svg>
