<svg width="25" height="25" viewBox="0 0 25 25" fill="none" xmlns="http://www.w3.org/2000/svg">
<mask id="mask0_570_30" style="mask-type:alpha" maskUnits="userSpaceOnUse" x="0" y="0" width="25" height="25">
<rect x="0.310547" y="0.223633" width="24" height="24" fill="#D9D9D9"/>
</mask>
<g mask="url(#mask0_570_30)">
<path d="M5.31055 22.2236C4.76055 22.2236 4.28971 22.0278 3.89805 21.6361C3.50638 21.2445 3.31055 20.7736 3.31055 20.2236V8.22363C3.31055 7.67363 3.50638 7.2028 3.89805 6.81113C4.28971 6.41947 4.76055 6.22363 5.31055 6.22363H7.31055C7.31055 4.8403 7.79805 3.66113 8.77305 2.68613C9.74805 1.71113 10.9272 1.22363 12.3105 1.22363C13.6939 1.22363 14.873 1.71113 15.848 2.68613C16.823 3.66113 17.3105 4.8403 17.3105 6.22363H19.3105C19.8605 6.22363 20.3314 6.41947 20.723 6.81113C21.1147 7.2028 21.3105 7.67363 21.3105 8.22363V20.2236C21.3105 20.7736 21.1147 21.2445 20.723 21.6361C20.3314 22.0278 19.8605 22.2236 19.3105 22.2236H5.31055ZM5.31055 20.2236H19.3105V8.22363H5.31055V20.2236ZM12.3105 14.2236C13.6939 14.2236 14.873 13.7361 15.848 12.7611C16.823 11.7861 17.3105 10.607 17.3105 9.22363H15.3105C15.3105 10.057 15.0189 10.7653 14.4355 11.3486C13.8522 11.932 13.1439 12.2236 12.3105 12.2236C11.4772 12.2236 10.7689 11.932 10.1855 11.3486C9.60221 10.7653 9.31055 10.057 9.31055 9.22363H7.31055C7.31055 10.607 7.79805 11.7861 8.77305 12.7611C9.74805 13.7361 10.9272 14.2236 12.3105 14.2236ZM9.31055 6.22363H15.3105C15.3105 5.3903 15.0189 4.68197 14.4355 4.09863C13.8522 3.5153 13.1439 3.22363 12.3105 3.22363C11.4772 3.22363 10.7689 3.5153 10.1855 4.09863C9.60221 4.68197 9.31055 5.3903 9.31055 6.22363Z" fill="#6DB631"/>
</g>
</svg>
