<svg width="24" height="24" viewBox="0 0 24 24" fill="none" xmlns="http://www.w3.org/2000/svg">
<g id="perm_media">
<mask id="mask0_997_49" style="mask-type:alpha" maskUnits="userSpaceOnUse" x="-1" y="0" width="25" height="25">
<rect id="Bounding box" x="-0.17627" y="0.366211" width="24" height="24" fill="#D9D9D9"/>
</mask>
<g mask="url(#mask0_997_49)">
<path id="perm_media_2" d="M8.82373 13.3662H18.8237L15.3737 8.86621L13.0737 11.8662L11.5237 9.86621L8.82373 13.3662ZM2.82373 21.3662C2.27373 21.3662 1.8029 21.1704 1.41123 20.7787C1.01956 20.387 0.82373 19.9162 0.82373 19.3662V6.36621H2.82373V19.3662H19.8237V21.3662H2.82373ZM6.82373 17.3662C6.27373 17.3662 5.8029 17.1704 5.41123 16.7787C5.01956 16.387 4.82373 15.9162 4.82373 15.3662V4.36621C4.82373 3.81621 5.01956 3.34538 5.41123 2.95371C5.8029 2.56204 6.27373 2.36621 6.82373 2.36621H11.8237L13.8237 4.36621H20.8237C21.3737 4.36621 21.8446 4.56204 22.2362 4.95371C22.6279 5.34538 22.8237 5.81621 22.8237 6.36621V15.3662C22.8237 15.9162 22.6279 16.387 22.2362 16.7787C21.8446 17.1704 21.3737 17.3662 20.8237 17.3662H6.82373ZM6.82373 15.3662H20.8237V6.36621H12.9987L10.9987 4.36621H6.82373V15.3662Z" fill="#F3F8F3"/>
</g>
</g>
</svg>
