<svg width="16" height="17" viewBox="0 0 16 17" fill="none" xmlns="http://www.w3.org/2000/svg">
<g id="person">
<path id="person_2" d="M8 8.21069C6.9 8.21069 5.95833 7.81903 5.175 7.03569C4.39167 6.25236 4 5.31069 4 4.21069C4 3.11069 4.39167 2.16903 5.175 1.38569C5.95833 0.60236 6.9 0.210693 8 0.210693C9.1 0.210693 10.0417 0.60236 10.825 1.38569C11.6083 2.16903 12 3.11069 12 4.21069C12 5.31069 11.6083 6.25236 10.825 7.03569C10.0417 7.81903 9.1 8.21069 8 8.21069ZM0 16.2107V13.4107C0 12.844 0.145833 12.3232 0.4375 11.8482C0.729167 11.3732 1.11667 11.0107 1.6 10.7607C2.63333 10.244 3.68333 9.85653 4.75 9.59819C5.81667 9.33986 6.9 9.21069 8 9.21069C9.1 9.21069 10.1833 9.33986 11.25 9.59819C12.3167 9.85653 13.3667 10.244 14.4 10.7607C14.8833 11.0107 15.2708 11.3732 15.5625 11.8482C15.8542 12.3232 16 12.844 16 13.4107V16.2107H0ZM2 14.2107H14V13.4107C14 13.2274 13.9542 13.0607 13.8625 12.9107C13.7708 12.7607 13.65 12.644 13.5 12.5607C12.6 12.1107 11.6917 11.7732 10.775 11.5482C9.85833 11.3232 8.93333 11.2107 8 11.2107C7.06667 11.2107 6.14167 11.3232 5.225 11.5482C4.30833 11.7732 3.4 12.1107 2.5 12.5607C2.35 12.644 2.22917 12.7607 2.1375 12.9107C2.04583 13.0607 2 13.2274 2 13.4107V14.2107ZM8 6.21069C8.55 6.21069 9.02083 6.01486 9.4125 5.62319C9.80417 5.23153 10 4.76069 10 4.21069C10 3.66069 9.80417 3.18986 9.4125 2.79819C9.02083 2.40653 8.55 2.21069 8 2.21069C7.45 2.21069 6.97917 2.40653 6.5875 2.79819C6.19583 3.18986 6 3.66069 6 4.21069C6 4.76069 6.19583 5.23153 6.5875 5.62319C6.97917 6.01486 7.45 6.21069 8 6.21069Z" fill="white"/>
</g>
</svg>
