<svg width="22" height="22" viewBox="0 0 22 22" fill="none" xmlns="http://www.w3.org/2000/svg">
<path d="M11.0002 11.2282C9.5335 11.2282 8.27794 10.706 7.2335 9.66152C6.18905 8.61708 5.66683 7.36152 5.66683 5.89486C5.66683 4.42819 6.18905 3.17263 7.2335 2.12819C8.27794 1.08375 9.5335 0.561523 11.0002 0.561523C12.4668 0.561523 13.7224 1.08375 14.7668 2.12819C15.8113 3.17263 16.3335 4.42819 16.3335 5.89486C16.3335 7.36152 15.8113 8.61708 14.7668 9.66152C13.7224 10.706 12.4668 11.2282 11.0002 11.2282ZM0.333496 21.8949V18.1615C0.333496 17.406 0.527941 16.7115 0.916829 16.0782C1.30572 15.4449 1.82239 14.9615 2.46683 14.6282C3.84461 13.9393 5.24461 13.4226 6.66683 13.0782C8.08905 12.7337 9.5335 12.5615 11.0002 12.5615C12.4668 12.5615 13.9113 12.7337 15.3335 13.0782C16.7557 13.4226 18.1557 13.9393 19.5335 14.6282C20.1779 14.9615 20.6946 15.4449 21.0835 16.0782C21.4724 16.7115 21.6668 17.406 21.6668 18.1615V21.8949H0.333496ZM3.00016 19.2282H19.0002V18.1615C19.0002 17.9171 18.9391 17.6949 18.8168 17.4949C18.6946 17.2949 18.5335 17.1393 18.3335 17.0282C17.1335 16.4282 15.9224 15.9782 14.7002 15.6782C13.4779 15.3782 12.2446 15.2282 11.0002 15.2282C9.75572 15.2282 8.52239 15.3782 7.30016 15.6782C6.07794 15.9782 4.86683 16.4282 3.66683 17.0282C3.46683 17.1393 3.30572 17.2949 3.1835 17.4949C3.06127 17.6949 3.00016 17.9171 3.00016 18.1615V19.2282ZM11.0002 8.56152C11.7335 8.56152 12.3613 8.30041 12.8835 7.77819C13.4057 7.25597 13.6668 6.62819 13.6668 5.89486C13.6668 5.16152 13.4057 4.53375 12.8835 4.01152C12.3613 3.4893 11.7335 3.22819 11.0002 3.22819C10.2668 3.22819 9.63905 3.4893 9.11683 4.01152C8.59461 4.53375 8.3335 5.16152 8.3335 5.89486C8.3335 6.62819 8.59461 7.25597 9.11683 7.77819C9.63905 8.30041 10.2668 8.56152 11.0002 8.56152Z" fill="#6DB631"/>
</svg>
