<svg width="28" height="28" viewBox="0 0 28 28" fill="none" xmlns="http://www.w3.org/2000/svg">
<g id="Frame">
<g id="Group">
<g id="Group_2">
<path id="Vector" d="M14 1.59146C13.0889 1.59146 12.1777 1.93806 11.4844 2.63139L7.0573 7.05847H7.19098C8.31987 7.05847 9.3771 7.49458 10.1771 8.29459L13.2795 11.397C13.6795 11.7881 14.3205 11.7881 14.7205 11.397L17.8229 8.29459C18.6229 7.49459 19.6801 7.05848 20.809 7.05848H20.9427L16.5156 2.6314C15.8223 1.93807 14.9111 1.59146 14 1.59146ZM5.72397 8.39181L2.68404 11.4317C1.29738 12.8184 1.29738 15.0763 2.68404 16.463L5.72397 19.5029H7.19098C7.96432 19.5029 8.6939 19.2014 9.23612 18.6592L12.3385 15.5567C13.2541 14.6412 14.7459 14.6412 15.6615 15.5567L18.7639 18.6592C19.3061 19.2014 20.0357 19.5029 20.809 19.5029H22.276L25.316 16.463C26.7026 15.0763 26.7026 12.8184 25.316 11.4317L22.276 8.39181H20.809C20.0357 8.39181 19.3061 8.69333 18.7639 9.23556L15.6615 12.338C15.2081 12.7913 14.6044 13.0238 14 13.0238C13.3956 13.0238 12.7919 12.7913 12.3385 12.338L9.23612 9.23556C8.6939 8.69333 7.96432 8.39181 7.19098 8.39181H5.72397ZM14 16.2043C13.74 16.2043 13.4795 16.3021 13.2795 16.4977L10.1771 19.6001C9.3771 20.4001 8.31987 20.8362 7.19098 20.8362H7.0573L11.4844 25.2633C12.8711 26.65 15.129 26.65 16.5156 25.2633L20.9427 20.8362H20.809C19.6802 20.8362 18.6229 20.4001 17.8229 19.6001L14.7205 16.4977C14.5205 16.3022 14.26 16.2043 14 16.2043Z" fill="#6DB631"/>
</g>
</g>
</g>
</svg>
