<svg width="17" height="17" viewBox="0 0 17 17" fill="none" xmlns="http://www.w3.org/2000/svg">
<path id="Plus" fill-rule="evenodd" clip-rule="evenodd" d="M9.45074 7.47994V1.32308C9.45074 0.756355 8.99132 0.296935 8.4246 0.296935C7.85787 0.296935 7.39845 0.756355 7.39845 1.32308V7.47994H1.24188C0.675151 7.47994 0.215731 7.93936 0.215731 8.50608C0.215731 9.0728 0.675151 9.53222 1.24187 9.53222H7.39845V15.6891C7.39845 16.2558 7.85787 16.7152 8.4246 16.7152C8.99132 16.7152 9.45074 16.2558 9.45074 15.6891V9.53222H15.6079C16.1746 9.53222 16.634 9.0728 16.634 8.50608C16.634 7.93936 16.1746 7.47994 15.6079 7.47994H9.45074Z" fill="#4CD964"/>
</svg>
