<svg width="56" height="56" viewBox="0 0 56 56" fill="none" xmlns="http://www.w3.org/2000/svg">
<mask id="mask0_4755_8600" style="mask-type:alpha" maskUnits="userSpaceOnUse" x="0" y="0" width="56" height="56">
<rect x="56" y="56" width="56" height="56" transform="rotate(180 56 56)" fill="#D9D9D9"/>
</mask>
<g mask="url(#mask0_4755_8600)">
<path d="M41.9998 49H16.3332V18.6667L32.6665 2.33333L35.5832 5.25C35.8554 5.52222 36.079 5.89167 36.254 6.35833C36.429 6.825 36.5165 7.27222 36.5165 7.7V8.51666L33.9498 18.6667H48.9998C50.2443 18.6667 51.3332 19.1333 52.2665 20.0667C53.1998 21 53.6665 22.0889 53.6665 23.3333V28C53.6665 28.2722 53.6276 28.5639 53.5498 28.875C53.4721 29.1861 53.3943 29.4778 53.3165 29.75L46.3165 46.2C45.9665 46.9778 45.3832 47.6389 44.5665 48.1833C43.7498 48.7278 42.8943 49 41.9998 49ZM20.9998 44.3333H41.9998L48.9998 28V23.3333H27.9998L31.1498 10.5L20.9998 20.65V44.3333ZM16.3332 18.6667V23.3333H9.33317V44.3333H16.3332V49H4.6665V18.6667H16.3332Z" fill="#6DB631"/>
</g>
</svg>
