<svg width="25" height="24" viewBox="0 0 25 24" fill="none" xmlns="http://www.w3.org/2000/svg">
<g id="propane_tank">
<mask id="mask0_1322_9638" style="mask-type:alpha" maskUnits="userSpaceOnUse" x="0" y="0" width="25" height="24">
<rect id="Bounding box" x="0.470581" width="24" height="24" fill="#D9D9D9"/>
</mask>
<g mask="url(#mask0_1322_9638)">
<path id="propane_tank_2" d="M7.8471 22C6.79986 22 5.90335 21.6083 5.15759 20.825C4.41182 20.0417 4.03894 19.1 4.03894 18V10C4.03894 9.05 4.30869 8.225 4.84817 7.525C5.38766 6.825 6.06996 6.35833 6.89506 6.125V4C6.89506 3.45 7.0815 2.97917 7.45438 2.5875C7.82727 2.19583 8.27552 2 8.79914 2H14.5114C15.035 2 15.4833 2.19583 15.8561 2.5875C16.229 2.97917 16.4155 3.45 16.4155 4V6.125C17.2406 6.35833 17.9229 6.825 18.4623 7.525C19.0018 8.225 19.2716 9.05 19.2716 10V18C19.2716 19.1 18.8987 20.0417 18.1529 20.825C17.4072 21.6083 16.5107 22 15.4634 22H7.8471ZM5.94302 13H17.3675V10C17.3675 9.45 17.1811 8.97917 16.8082 8.5875C16.4353 8.19583 15.987 8 15.4634 8H7.8471C7.32348 8 6.87523 8.19583 6.50234 8.5875C6.12946 8.97917 5.94302 9.45 5.94302 10V13ZM7.8471 20H15.4634C15.987 20 16.4353 19.8042 16.8082 19.4125C17.1811 19.0208 17.3675 18.55 17.3675 18V15H5.94302V18C5.94302 18.55 6.12946 19.0208 6.50234 19.4125C6.87523 19.8042 7.32348 20 7.8471 20ZM12.6073 6H14.5114V4H8.79914V6H10.7032C10.7032 5.71667 10.7945 5.47917 10.9769 5.2875C11.1594 5.09583 11.3855 5 11.6553 5C11.925 5 12.1511 5.09583 12.3336 5.2875C12.5161 5.47917 12.6073 5.71667 12.6073 6Z" fill="#0B8DB4"/>
</g>
</g>
</svg>
