<svg width="18" height="19" viewBox="0 0 18 19" fill="none" xmlns="http://www.w3.org/2000/svg">
<mask id="mask0_4386_28581" style="mask-type:alpha" maskUnits="userSpaceOnUse" x="0" y="0" width="18" height="19">
<rect y="0.557098" width="18" height="18" fill="#D9D9D9"/>
</mask>
<g mask="url(#mask0_4386_28581)">
<path d="M4.5 14.8446L5.98125 14.2446C5.85625 13.8821 5.74063 13.5134 5.63438 13.1384C5.52813 12.7634 5.44375 12.3884 5.38125 12.0134L4.5 12.6134V14.8446ZM7.5 14.0571H10.5C10.725 13.5571 10.9063 12.9477 11.0438 12.229C11.1813 11.5102 11.25 10.7759 11.25 10.0259C11.25 8.78836 11.0437 7.61649 10.6313 6.51024C10.2188 5.40399 9.675 4.55086 9 3.95086C8.325 4.55086 7.78125 5.40399 7.36875 6.51024C6.95625 7.61649 6.75 8.78836 6.75 10.0259C6.75 10.7759 6.81875 11.5102 6.95625 12.229C7.09375 12.9477 7.275 13.5571 7.5 14.0571ZM9 10.3071C8.5875 10.3071 8.23438 10.1602 7.94063 9.86649C7.64687 9.57274 7.5 9.21961 7.5 8.80711C7.5 8.39461 7.64687 8.04149 7.94063 7.74774C8.23438 7.45399 8.5875 7.30711 9 7.30711C9.4125 7.30711 9.76563 7.45399 10.0594 7.74774C10.3531 8.04149 10.5 8.39461 10.5 8.80711C10.5 9.21961 10.3531 9.57274 10.0594 9.86649C9.76563 10.1602 9.4125 10.3071 9 10.3071ZM13.5 14.8446V12.6134L12.6187 12.0134C12.5562 12.3884 12.4719 12.7634 12.3656 13.1384C12.2594 13.5134 12.1438 13.8821 12.0188 14.2446L13.5 14.8446ZM9 2.03836C10.2375 2.93836 11.1719 4.08211 11.8031 5.46961C12.4344 6.85711 12.75 8.46961 12.75 10.3071L14.325 11.3571C14.5375 11.4946 14.7031 11.6759 14.8219 11.9009C14.9406 12.1259 15 12.3634 15 12.6134V17.0571L11.2688 15.5571H6.73125L3 17.0571V12.6134C3 12.3634 3.05937 12.1259 3.17812 11.9009C3.29688 11.6759 3.4625 11.4946 3.675 11.3571L5.25 10.3071C5.25 8.46961 5.56563 6.85711 6.19688 5.46961C6.82813 4.08211 7.7625 2.93836 9 2.03836Z" fill="#6DB631"/>
</g>
</svg>
