<svg width="24" height="24" viewBox="0 0 24 24" fill="none" xmlns="http://www.w3.org/2000/svg">
<g id="search">
<mask id="mask0_809_7570" style="mask-type:alpha" maskUnits="userSpaceOnUse" x="0" y="0" width="24" height="24">
<rect id="Bounding box" x="0.150391" width="23.8496" height="24" fill="#D9D9D9"/>
</mask>
<g mask="url(#mask0_809_7570)">
<path id="search_2" d="M19.6278 21L13.3673 14.7C12.8704 15.1 12.299 15.4167 11.6531 15.65C11.0072 15.8833 10.3198 16 9.5911 16C7.78582 16 6.25796 15.3708 5.00751 14.1125C3.75706 12.8542 3.13184 11.3167 3.13184 9.5C3.13184 7.68333 3.75706 6.14583 5.00751 4.8875C6.25796 3.62917 7.78582 3 9.5911 3C11.3964 3 12.9243 3.62917 14.1747 4.8875C15.4251 6.14583 16.0504 7.68333 16.0504 9.5C16.0504 10.2333 15.9344 10.925 15.7026 11.575C15.4707 12.225 15.156 12.8 14.7585 13.3L21.019 19.6L19.6278 21ZM9.5911 14C10.8333 14 11.8891 13.5625 12.7586 12.6875C13.6281 11.8125 14.0629 10.75 14.0629 9.5C14.0629 8.25 13.6281 7.1875 12.7586 6.3125C11.8891 5.4375 10.8333 5 9.5911 5C8.34894 5 7.2931 5.4375 6.42358 6.3125C5.55406 7.1875 5.1193 8.25 5.1193 9.5C5.1193 10.75 5.55406 11.8125 6.42358 12.6875C7.2931 13.5625 8.34894 14 9.5911 14Z" fill="#C7C7CC"/>
</g>
</g>
</svg>
