<svg width="85" height="84" viewBox="0 0 85 84" fill="none" xmlns="http://www.w3.org/2000/svg">
<g id="security">
<mask id="mask0_620_6353" style="mask-type:alpha" maskUnits="userSpaceOnUse" x="0" y="0" width="85" height="84">
<rect id="Bounding box" x="0.73584" y="0.333984" width="83.458" height="83.458" fill="#D9D9D9"/>
</mask>
<g mask="url(#mask0_620_6353)">
<path id="security_2" d="M42.4644 76.8374C34.4083 74.8089 27.7578 70.1869 22.5127 62.9712C17.2676 55.7556 14.645 47.743 14.645 38.9336V17.7213L42.4644 7.28906L70.2837 17.7213V38.9336C70.2837 47.743 67.6611 55.7556 62.416 62.9712C57.1709 70.1869 50.5204 74.8089 42.4644 76.8374ZM42.4644 69.5348C48.0862 67.7961 52.7807 64.3622 56.5479 59.233C60.3151 54.1038 62.5175 48.3805 63.155 42.0632H42.4644V14.6786L21.5999 22.5028V40.4984C21.5999 40.9041 21.6578 41.4257 21.7737 42.0632H42.4644V69.5348Z" fill="#6DB631"/>
</g>
</g>
</svg>
