<svg width="32" height="33" viewBox="0 0 32 33" fill="none" xmlns="http://www.w3.org/2000/svg">
<mask id="mask0_1315_11946" style="mask-type:alpha" maskUnits="userSpaceOnUse" x="0" y="0" width="32" height="33">
<rect y="0.947369" width="32" height="32" fill="#D9D9D9"/>
</mask>
<g mask="url(#mask0_1315_11946)">
<mask id="mask1_1315_11946" style="mask-type:alpha" maskUnits="userSpaceOnUse" x="0" y="0" width="32" height="33">
<rect y="0.947369" width="32" height="32" fill="#D9D9D9"/>
</mask>
<g mask="url(#mask1_1315_11946)">
<path d="M15.8336 27.614C15.9225 27.614 16.0114 27.5918 16.1003 27.5474C16.1892 27.5029 16.2559 27.4585 16.3003 27.414L27.2336 16.4807C27.5003 16.214 27.6948 15.914 27.817 15.5807C27.9392 15.2474 28.0003 14.914 28.0003 14.5807C28.0003 14.2251 27.9392 13.8863 27.817 13.564C27.6948 13.2418 27.5003 12.9585 27.2336 12.714L21.567 7.04737C21.3225 6.7807 21.0392 6.58626 20.717 6.46404C20.3948 6.34181 20.0559 6.2807 19.7003 6.2807C19.367 6.2807 19.0336 6.34181 18.7003 6.46404C18.367 6.58626 18.067 6.7807 17.8003 7.04737L17.4336 7.41404L19.9003 9.91404C20.2336 10.2251 20.4781 10.5807 20.6336 10.9807C20.7892 11.3807 20.867 11.8029 20.867 12.2474C20.867 13.1807 20.5503 13.964 19.917 14.5974C19.2836 15.2307 18.5003 15.5474 17.567 15.5474C17.1225 15.5474 16.6948 15.4696 16.2836 15.314C15.8725 15.1585 15.5114 14.9251 15.2003 14.614L12.7003 12.1474L6.86698 17.9807C6.80031 18.0474 6.75031 18.1196 6.71698 18.1974C6.68365 18.2751 6.66698 18.3585 6.66698 18.4474C6.66698 18.6251 6.73365 18.7863 6.86698 18.9307C7.00031 19.0751 7.15587 19.1474 7.33365 19.1474C7.42253 19.1474 7.51142 19.1251 7.60031 19.0807C7.6892 19.0363 7.75587 18.9918 7.80031 18.9474L12.3336 14.414L14.2003 16.2807L9.70031 20.814C9.63365 20.8807 9.58365 20.9529 9.55031 21.0307C9.51698 21.1085 9.50031 21.1918 9.50031 21.2807C9.50031 21.4585 9.56698 21.614 9.70031 21.7474C9.83365 21.8807 9.9892 21.9474 10.167 21.9474C10.2559 21.9474 10.3448 21.9251 10.4336 21.8807C10.5225 21.8363 10.5892 21.7918 10.6336 21.7474L15.167 17.2474L17.0336 19.114L12.5336 23.6474C12.467 23.6918 12.417 23.7585 12.3836 23.8474C12.3503 23.9363 12.3336 24.0251 12.3336 24.114C12.3336 24.2918 12.4003 24.4474 12.5336 24.5807C12.667 24.714 12.8225 24.7807 13.0003 24.7807C13.0892 24.7807 13.1725 24.764 13.2503 24.7307C13.3281 24.6974 13.4003 24.6474 13.467 24.5807L18.0003 20.0807L19.867 21.9474L15.3336 26.4807C15.267 26.5474 15.217 26.6196 15.1836 26.6974C15.1503 26.7751 15.1336 26.8585 15.1336 26.9474C15.1336 27.1251 15.2059 27.2807 15.3503 27.414C15.4948 27.5474 15.6559 27.614 15.8336 27.614ZM15.8003 30.2807C14.9781 30.2807 14.2503 30.0085 13.617 29.464C12.9836 28.9196 12.6114 28.2363 12.5003 27.414C11.7448 27.3029 11.1114 26.9918 10.6003 26.4807C10.0892 25.9696 9.77809 25.3363 9.66698 24.5807C8.91142 24.4696 8.28365 24.1529 7.78365 23.6307C7.28365 23.1085 6.97809 22.4807 6.86698 21.7474C6.02253 21.6363 5.33365 21.2696 4.80031 20.6474C4.26698 20.0251 4.00031 19.2918 4.00031 18.4474C4.00031 18.0029 4.08365 17.5751 4.25031 17.164C4.41698 16.7529 4.65587 16.3918 4.96698 16.0807L12.7003 8.3807L17.067 12.7474C17.1114 12.814 17.1781 12.864 17.267 12.8974C17.3559 12.9307 17.4448 12.9474 17.5336 12.9474C17.7336 12.9474 17.9003 12.8863 18.0336 12.764C18.167 12.6418 18.2336 12.4807 18.2336 12.2807C18.2336 12.1918 18.217 12.1029 18.1836 12.014C18.1503 11.9251 18.1003 11.8585 18.0336 11.814L13.267 7.04737C13.0225 6.7807 12.7392 6.58626 12.417 6.46404C12.0948 6.34181 11.7559 6.2807 11.4003 6.2807C11.067 6.2807 10.7336 6.34181 10.4003 6.46404C10.067 6.58626 9.76698 6.7807 9.50031 7.04737L4.80031 11.7807C4.60031 11.9807 4.43365 12.214 4.30031 12.4807C4.16698 12.7474 4.07809 13.014 4.03365 13.2807C3.9892 13.5474 3.9892 13.8196 4.03365 14.0974C4.07809 14.3751 4.16698 14.6363 4.30031 14.8807L2.36698 16.814C1.9892 16.3029 1.71142 15.7418 1.53365 15.1307C1.35587 14.5196 1.2892 13.9029 1.33365 13.2807C1.37809 12.6585 1.53365 12.0529 1.80031 11.464C2.06698 10.8751 2.43365 10.3474 2.90031 9.8807L7.60031 5.1807C8.13365 4.66959 8.72809 4.2807 9.38365 4.01404C10.0392 3.74737 10.7114 3.61404 11.4003 3.61404C12.0892 3.61404 12.7614 3.74737 13.417 4.01404C14.0725 4.2807 14.6559 4.66959 15.167 5.1807L15.5336 5.54737L15.9003 5.1807C16.4336 4.66959 17.0281 4.2807 17.6836 4.01404C18.3392 3.74737 19.0114 3.61404 19.7003 3.61404C20.3892 3.61404 21.0614 3.74737 21.717 4.01404C22.3725 4.2807 22.9559 4.66959 23.467 5.1807L29.1003 10.814C29.6114 11.3251 30.0003 11.914 30.267 12.5807C30.5336 13.2474 30.667 13.9251 30.667 14.614C30.667 15.3029 30.5336 15.9751 30.267 16.6307C30.0003 17.2863 29.6114 17.8696 29.1003 18.3807L18.167 29.2807C17.8559 29.5918 17.4948 29.8363 17.0836 30.014C16.6725 30.1918 16.2448 30.2807 15.8003 30.2807Z" fill="#6DB631"/>
</g>
</g>
</svg>
