<svg width="24" height="23" viewBox="0 0 24 23" fill="none" xmlns="http://www.w3.org/2000/svg">
<g id="storefront">
<mask id="mask0_997_128" style="mask-type:alpha" maskUnits="userSpaceOnUse" x="-1" y="-1" width="25" height="24">
<rect id="Bounding box" x="-0.377441" y="-1" width="24" height="24" fill="#D9D9D9"/>
</mask>
<g mask="url(#mask0_997_128)">
<path id="storefront_2" d="M20.6475 10.05V18C20.6475 18.55 20.4517 19.0208 20.06 19.4125C19.6684 19.8042 19.1975 20 18.6475 20H4.64752C4.09752 20 3.62669 19.8042 3.23502 19.4125C2.84336 19.0208 2.64752 18.55 2.64752 18V10.05C2.26419 9.7 1.96836 9.25 1.76002 8.7C1.55169 8.15 1.54752 7.55 1.74752 6.9L2.79752 3.5C2.93086 3.06667 3.16836 2.70833 3.51002 2.425C3.85169 2.14167 4.24752 2 4.69752 2H18.5975C19.0475 2 19.4392 2.1375 19.7725 2.4125C20.1059 2.6875 20.3475 3.05 20.4975 3.5L21.5475 6.9C21.7475 7.55 21.7434 8.14167 21.535 8.675C21.3267 9.20833 21.0309 9.66667 20.6475 10.05ZM13.8475 9C14.2975 9 14.6392 8.84583 14.8725 8.5375C15.1059 8.22917 15.1975 7.88333 15.1475 7.5L14.5975 4H12.6475V7.7C12.6475 8.05 12.7642 8.35417 12.9975 8.6125C13.2309 8.87083 13.5142 9 13.8475 9ZM9.34753 9C9.73086 9 10.0434 8.87083 10.285 8.6125C10.5267 8.35417 10.6475 8.05 10.6475 7.7V4H8.69753L8.14753 7.5C8.08086 7.9 8.16836 8.25 8.41003 8.55C8.65169 8.85 8.96419 9 9.34753 9ZM4.89752 9C5.19752 9 5.46002 8.89167 5.68502 8.675C5.91002 8.45833 6.04752 8.18333 6.09752 7.85L6.64752 4H4.69752L3.69752 7.35C3.59752 7.68333 3.65169 8.04167 3.86002 8.425C4.06836 8.80833 4.41419 9 4.89752 9ZM18.3975 9C18.8809 9 19.2309 8.80833 19.4475 8.425C19.6642 8.04167 19.7142 7.68333 19.5975 7.35L18.5475 4H16.6475L17.1975 7.85C17.2475 8.18333 17.385 8.45833 17.61 8.675C17.835 8.89167 18.0975 9 18.3975 9ZM4.64752 18H18.6475V10.95C18.5642 10.9833 18.51 11 18.485 11H18.3975C17.9475 11 17.5517 10.925 17.21 10.775C16.8684 10.625 16.5309 10.3833 16.1975 10.05C15.8975 10.35 15.5559 10.5833 15.1725 10.75C14.7892 10.9167 14.3809 11 13.9475 11C13.4975 11 13.0767 10.9167 12.685 10.75C12.2934 10.5833 11.9475 10.35 11.6475 10.05C11.3642 10.35 11.035 10.5833 10.66 10.75C10.285 10.9167 9.88086 11 9.44753 11C8.96419 11 8.52669 10.9167 8.13503 10.75C7.74336 10.5833 7.39752 10.35 7.09752 10.05C6.74752 10.4 6.40169 10.6458 6.06002 10.7875C5.71836 10.9292 5.33086 11 4.89752 11H4.78502C4.74336 11 4.69752 10.9833 4.64752 10.95V18Z" fill="white"/>
</g>
</g>
</svg>
