<svg width="32" height="31" viewBox="0 0 32 31" fill="none" xmlns="http://www.w3.org/2000/svg">
<g id="storefront">
<mask id="mask0_1102_9670" style="mask-type:alpha" maskUnits="userSpaceOnUse" x="-1" y="-2" width="33" height="33">
<rect id="Bounding box" x="-0.502441" y="-1.05263" width="32" height="32" fill="#D9D9D9"/>
</mask>
<g mask="url(#mask0_1102_9670)">
<path id="storefront_2" d="M27.5317 13.6807V24.2807C27.5317 25.014 27.2706 25.6418 26.7483 26.164C26.2261 26.6863 25.5983 26.9474 24.865 26.9474H6.19833C5.46499 26.9474 4.83722 26.6863 4.31499 26.164C3.79277 25.6418 3.53166 25.014 3.53166 24.2807V13.6807C3.02055 13.214 2.62611 12.614 2.34833 11.8807C2.07055 11.1474 2.06499 10.3474 2.33166 9.4807L3.73166 4.94737C3.90944 4.36959 4.2261 3.89181 4.68166 3.51404C5.13722 3.13626 5.66499 2.94737 6.26499 2.94737H24.7983C25.3983 2.94737 25.9206 3.1307 26.365 3.49737C26.8094 3.86404 27.1317 4.34737 27.3317 4.94737L28.7317 9.4807C28.9983 10.3474 28.9928 11.1363 28.715 11.8474C28.4372 12.5585 28.0428 13.1696 27.5317 13.6807ZM18.465 12.2807C19.065 12.2807 19.5205 12.0751 19.8317 11.664C20.1428 11.2529 20.265 10.7918 20.1983 10.2807L19.465 5.61404H16.865V10.5474C16.865 11.014 17.0206 11.4196 17.3317 11.764C17.6428 12.1085 18.0206 12.2807 18.465 12.2807ZM12.465 12.2807C12.9761 12.2807 13.3928 12.1085 13.715 11.764C14.0372 11.4196 14.1983 11.014 14.1983 10.5474V5.61404H11.5983L10.865 10.2807C10.7761 10.814 10.8928 11.2807 11.215 11.6807C11.5372 12.0807 11.9539 12.2807 12.465 12.2807ZM6.53166 12.2807C6.93166 12.2807 7.28166 12.1363 7.58166 11.8474C7.88166 11.5585 8.06499 11.1918 8.13166 10.7474L8.86499 5.61404H6.26499L4.93166 10.0807C4.79833 10.5251 4.87055 11.0029 5.14833 11.514C5.42611 12.0251 5.88722 12.2807 6.53166 12.2807ZM24.5317 12.2807C25.1761 12.2807 25.6428 12.0251 25.9317 11.514C26.2206 11.0029 26.2872 10.5251 26.1317 10.0807L24.7317 5.61404H22.1983L22.9317 10.7474C22.9983 11.1918 23.1817 11.5585 23.4817 11.8474C23.7817 12.1363 24.1317 12.2807 24.5317 12.2807ZM6.19833 24.2807H24.865V14.8807C24.7539 14.9251 24.6817 14.9474 24.6483 14.9474H24.5317C23.9317 14.9474 23.4039 14.8474 22.9483 14.6474C22.4928 14.4474 22.0428 14.1251 21.5983 13.6807C21.1983 14.0807 20.7428 14.3918 20.2317 14.614C19.7206 14.8363 19.1761 14.9474 18.5983 14.9474C17.9983 14.9474 17.4372 14.8363 16.915 14.614C16.3928 14.3918 15.9317 14.0807 15.5317 13.6807C15.1539 14.0807 14.715 14.3918 14.215 14.614C13.715 14.8363 13.1761 14.9474 12.5983 14.9474C11.9539 14.9474 11.3706 14.8363 10.8483 14.614C10.3261 14.3918 9.86499 14.0807 9.46499 13.6807C8.99833 14.1474 8.53722 14.4751 8.08166 14.664C7.62611 14.8529 7.10944 14.9474 6.53166 14.9474H6.38166C6.32611 14.9474 6.26499 14.9251 6.19833 14.8807V24.2807Z" fill="#6DB631"/>
</g>
</g>
</svg>
