<svg width="21" height="20" viewBox="0 0 21 20" fill="none" xmlns="http://www.w3.org/2000/svg">
<g id="sync_alt">
<mask id="mask0_421_5119" style="mask-type:alpha" maskUnits="userSpaceOnUse" x="0" y="0" width="21" height="20">
<path id="Bounding box" d="M10.6238 19.4326C5.2785 19.4326 0.945313 15.0994 0.945313 9.75418C0.945313 4.40892 5.2785 0.075737 10.6238 0.075737H20.3022V19.4326H10.6238Z" fill="#D9D9D9"/>
</mask>
<g mask="url(#mask0_421_5119)">
<path id="sync_alt_2" d="M17.8829 13.7864L13.8502 17.8191L9.81753 13.7864L10.9467 12.6371L13.0437 14.7341L13.0437 2.4949H14.6567L14.6567 14.7341L16.7537 12.6371L17.8829 13.7864ZM11.4306 5.72104L10.3014 6.87036L8.20445 4.77336V17.0126H6.59138L6.59138 4.77336L4.49439 6.87036L3.36523 5.72104L7.39792 1.68836L11.4306 5.72104Z" fill="white"/>
</g>
</g>
</svg>
