<svg width="18" height="19" viewBox="0 0 18 19" fill="none" xmlns="http://www.w3.org/2000/svg">
<mask id="mask0_4386_28556" style="mask-type:alpha" maskUnits="userSpaceOnUse" x="0" y="0" width="18" height="19">
<rect y="0.557098" width="18" height="18" fill="#FF2D55"/>
</mask>
<g mask="url(#mask0_4386_28556)">
<path d="M6.3 13.3071L9 10.6071L11.7 13.3071L12.75 12.2571L10.05 9.55713L12.75 6.85713L11.7 5.80713L9 8.50713L6.3 5.80713L5.25 6.85713L7.95 9.55713L5.25 12.2571L6.3 13.3071ZM9 17.0571C7.9625 17.0571 6.9875 16.8603 6.075 16.4665C5.1625 16.0728 4.36875 15.5384 3.69375 14.8634C3.01875 14.1884 2.48438 13.3946 2.09063 12.4821C1.69687 11.5696 1.5 10.5946 1.5 9.55713C1.5 8.51963 1.69687 7.54463 2.09063 6.63213C2.48438 5.71963 3.01875 4.92588 3.69375 4.25088C4.36875 3.57588 5.1625 3.0415 6.075 2.64775C6.9875 2.254 7.9625 2.05713 9 2.05713C10.0375 2.05713 11.0125 2.254 11.925 2.64775C12.8375 3.0415 13.6313 3.57588 14.3063 4.25088C14.9813 4.92588 15.5156 5.71963 15.9094 6.63213C16.3031 7.54463 16.5 8.51963 16.5 9.55713C16.5 10.5946 16.3031 11.5696 15.9094 12.4821C15.5156 13.3946 14.9813 14.1884 14.3063 14.8634C13.6313 15.5384 12.8375 16.0728 11.925 16.4665C11.0125 16.8603 10.0375 17.0571 9 17.0571ZM9 15.5571C10.675 15.5571 12.0938 14.9759 13.2563 13.8134C14.4187 12.6509 15 11.2321 15 9.55713C15 7.88213 14.4187 6.46338 13.2563 5.30088C12.0938 4.13838 10.675 3.55713 9 3.55713C7.325 3.55713 5.90625 4.13838 4.74375 5.30088C3.58125 6.46338 3 7.88213 3 9.55713C3 11.2321 3.58125 12.6509 4.74375 13.8134C5.90625 14.9759 7.325 15.5571 9 15.5571Z" fill="#FF2D55"/>
</g>
</svg>
