<svg width="22" height="22" viewBox="0 0 22 22" fill="none" xmlns="http://www.w3.org/2000/svg">
<mask id="mask0_4386_29972" style="mask-type:alpha" maskUnits="userSpaceOnUse" x="0" y="0" width="22" height="22">
<rect width="22" height="22" fill="#D9D9D9"/>
</mask>
<g mask="url(#mask0_4386_29972)">
<path d="M5.49984 2.75H15.5832V14.6667L9.1665 21.0833L8.02067 19.9375C7.91373 19.8306 7.82588 19.6854 7.75713 19.5021C7.68838 19.3188 7.654 19.1431 7.654 18.975V18.6542L8.66234 14.6667H2.74984C2.26095 14.6667 1.83317 14.4833 1.4665 14.1167C1.09984 13.75 0.916504 13.3222 0.916504 12.8333V11C0.916504 10.8931 0.931782 10.7785 0.962337 10.6562C0.992893 10.534 1.02345 10.4194 1.054 10.3125L3.804 3.85C3.9415 3.54444 4.17067 3.28472 4.4915 3.07083C4.81234 2.85694 5.14845 2.75 5.49984 2.75ZM13.7498 4.58333H5.49984L2.74984 11V12.8333H10.9998L9.76234 17.875L13.7498 13.8875V4.58333ZM15.5832 14.6667V12.8333H18.3332V4.58333H15.5832V2.75H20.1665V14.6667H15.5832Z" fill="#FF2D55"/>
</g>
</svg>
