<svg width="31" height="31" viewBox="0 0 31 31" fill="none" xmlns="http://www.w3.org/2000/svg">
<path id="Combined-Shape-2" fill-rule="evenodd" clip-rule="evenodd" d="M27.2786 16.5962H22.5803C22.7584 17.6164 23.7311 18.008 24.5736 18.008C25.1075 18.008 25.582 17.8893 26.0447 17.6759L25.9143 19.0757C25.3922 19.2892 24.7635 19.3723 24.1347 19.3723C22.0466 19.3723 20.5755 18.1504 20.5755 16.0742C20.5755 14.2709 21.8923 12.9184 23.9092 12.9184C26.187 12.9184 27.326 14.3658 27.2786 16.5962ZM18.7839 19.2538C18.6889 19.0282 18.5465 18.6606 18.4279 18.2927L18.1551 17.3792C18.0126 16.893 17.8229 16.6912 17.3601 16.6912H16.5771V19.2538H14.7619V10.8778H16.5771V15.4929H16.7789L18.499 13.0371H20.5159L18.4872 15.5996H18.594C19.4007 15.5996 19.6379 16.0505 19.8397 16.7149L20.1838 17.8657C20.3024 18.2927 20.5516 18.8978 20.7413 19.2538H18.7839ZM12.9704 17.8657C13.4449 17.8657 13.8365 17.7351 14.1331 17.5928L13.9671 19.0996C13.5874 19.2892 13.0534 19.3842 12.5907 19.3842C10.6331 19.3842 9.28078 18.1148 9.28078 16.1336C9.28078 14.1761 10.6095 12.9184 12.5789 12.9184C13.3025 12.9184 13.8602 13.0607 14.4296 13.3217L13.9076 14.7217C13.6347 14.5556 13.2552 14.4252 12.8517 14.4252C11.8552 14.4252 11.2027 15.0776 11.2027 16.1336C11.2027 17.1775 11.8907 17.8774 12.9704 17.8657ZM6.87223 12.2422H8.72292V10.8778H6.87223V12.2422ZM6.87223 19.2538H8.72292V13.0371H6.87223V19.2538ZM27.6704 15.8963V11.6727L29.5211 10.9253V13.1557H30.7667L30.5176 14.5437H29.4974V15.9674C29.4974 17.3503 30.0215 18.3242 30.5772 19.1063C30.8532 17.9489 31 16.7416 31 15.4998C30.9999 6.93948 24.0603 3.05176e-05 15.4999 3.05176e-05C8.54942 3.05176e-05 2.66754 4.57494 0.700959 10.8778H6.46867L6.24329 12.5388H3.83487V19.2538H1.86536V12.5388H0.283664C0.0982889 13.4974 0 14.4871 0 15.4998C0.00013313 24.0603 6.93958 30.9998 15.5001 30.9998C22.7659 30.9998 28.863 26.0002 30.5414 19.2538H28.7144C28.3941 18.6962 27.6586 17.6877 27.6704 15.8963ZM23.9685 14.1997C23.1855 14.1997 22.6873 14.7098 22.533 15.3861H25.3211C25.2261 14.6387 24.7041 14.1997 23.9685 14.1997Z" fill="#6DB631"/>
</svg>
