<svg width="31" height="30" viewBox="0 0 31 30" fill="none" xmlns="http://www.w3.org/2000/svg">
<g id="upload">
<mask id="mask0_2378_21659" style="mask-type:alpha" maskUnits="userSpaceOnUse" x="0" y="0" width="31" height="30">
<rect id="Bounding box" x="0.357178" width="30.2857" height="29.375" fill="#D9D9D9"/>
</mask>
<g mask="url(#mask0_2378_21659)">
<path id="upload_2" d="M14.2381 19.5833V9.60805L10.9572 12.7903L9.1905 11.0156L15.5 4.89581L21.8095 11.0156L20.0429 12.7903L16.7619 9.60805V19.5833H14.2381ZM7.92859 24.4791C7.23455 24.4791 6.6404 24.2395 6.14615 23.7601C5.65191 23.2807 5.40479 22.7044 5.40479 22.0312V18.3594H7.92859V22.0312H23.0715V18.3594H25.5953V22.0312C25.5953 22.7044 25.3481 23.2807 24.8539 23.7601C24.3596 24.2395 23.7655 24.4791 23.0715 24.4791H7.92859Z" fill="#1C1B1F"/>
</g>
</g>
</svg>
