<svg width="80" height="80" viewBox="0 0 80 80" fill="none" xmlns="http://www.w3.org/2000/svg">
<g id="warning">
<mask id="mask0_1090_10031" style="mask-type:alpha" maskUnits="userSpaceOnUse" x="0" y="0" width="80" height="80">
<rect id="Bounding box" width="79.1495" height="79.1495" fill="#D9D9D9"/>
</mask>
<g mask="url(#mask0_1090_10031)">
<path id="warning_2" d="M3.29785 69.2558L39.5747 6.5957L75.8516 69.2558H3.29785ZM14.6756 62.66H64.4739L39.5747 19.7873L14.6756 62.66ZM39.5747 59.3621C40.5091 59.3621 41.2924 59.046 41.9245 58.4139C42.5566 57.7818 42.8726 56.9986 42.8726 56.0642C42.8726 55.1298 42.5566 54.3465 41.9245 53.7144C41.2924 53.0823 40.5091 52.7663 39.5747 52.7663C38.6403 52.7663 37.8571 53.0823 37.225 53.7144C36.5929 54.3465 36.2768 55.1298 36.2768 56.0642C36.2768 56.9986 36.5929 57.7818 37.225 58.4139C37.8571 59.046 38.6403 59.3621 39.5747 59.3621ZM36.2768 49.4684H42.8726V32.9789H36.2768V49.4684Z" fill="#6DB631"/>
</g>
</g>
</svg>
