<svg width="32" height="27" viewBox="0 0 32 27" fill="none" xmlns="http://www.w3.org/2000/svg">
<g id="Group">
<g id="Vector">
<mask id="path-1-outside-1_4672_20858" maskUnits="userSpaceOnUse" x="-0.310547" y="0" width="32" height="27" fill="black">
<rect fill="white" x="-0.310547" width="32" height="27"/>
<path fill-rule="evenodd" clip-rule="evenodd" d="M16.0135 2.74928C16.9828 2.60387 18.0096 2.51441 19.067 2.48317C19.0928 2.98245 19.1747 3.47907 19.2614 4.0037C19.4474 5.13 19.6396 6.29325 19.2786 7.59378C18.8364 7.61348 18.3107 7.65348 17.7553 7.69572C17.3916 7.72336 16.9809 7.75477 16.5659 7.78212C15.5233 5.73962 15.7176 4.02381 16.0135 2.74928ZM23.79 2.74534C24.1637 4.1921 24.4718 5.8925 23.52 7.81265C22.9289 7.77901 22.3478 7.73477 21.8338 7.69566L21.8292 7.6953C21.4604 7.66725 21.1106 7.64066 20.7888 7.62019C21.1103 6.16496 20.8998 4.89125 20.7139 3.76535C20.6389 3.31102 20.5678 2.88092 20.5416 2.47717C21.678 2.50152 22.7703 2.59164 23.79 2.74534ZM7.20331 19.3723C6.96827 19.3786 6.74607 19.3817 6.52657 19.3817C4.92933 19.3817 3.75171 19.2012 3.02639 18.8451C2.60736 18.6394 2.34376 18.2152 2.33846 17.7378L2.33305 17.2554C2.32999 16.9763 2.42201 16.7107 2.59229 16.5075L2.59611 16.5029C3.27009 15.7021 4.71731 15.0127 6.67683 14.5577C6.36972 16.2894 6.53752 17.8241 7.20331 19.3723ZM12.3602 12.5135C11.2131 11.8465 10.5013 10.6163 10.5013 9.29924C10.5013 9.14601 10.5122 8.98613 10.5337 8.82314C10.5967 8.84749 10.6581 8.86973 10.7199 8.89061C11.6128 9.19277 12.7835 9.33965 14.299 9.33965C15.5337 9.33965 16.7726 9.24536 17.8656 9.16224L17.8686 9.16201C18.6485 9.10266 19.3222 9.05136 19.7948 9.05136L19.8185 9.05148C20.2903 9.05307 20.9538 9.10354 21.7221 9.16201C22.817 9.24536 24.0559 9.33959 25.2906 9.33959C26.8062 9.33959 27.977 9.19277 28.8698 8.89061C28.9324 8.86943 28.9949 8.84679 29.0591 8.82196C29.0785 8.98349 29.0882 9.14371 29.0882 9.29924C29.0883 10.2905 28.7008 11.2236 27.9971 11.9266C27.2935 12.6296 26.3595 13.0167 25.3672 13.0167H17.3884C17.1952 12.9767 16.9973 12.9387 16.8 12.9038C16.7555 12.8917 16.71 12.8838 16.6644 12.8803C15.3256 12.6517 13.8378 12.5249 12.3602 12.5135ZM14.0565 19.2081C13.6878 19.1801 13.3383 19.1534 13.0165 19.1329C13.338 17.6779 13.1275 16.4041 12.9415 15.278C12.8665 14.8238 12.7955 14.3938 12.7693 13.99C13.906 14.0143 14.9982 14.1043 16.0177 14.2581C16.3913 15.7048 16.6995 17.4051 15.7476 19.3255C15.1634 19.2922 14.5812 19.2479 14.0664 19.2088L14.0616 19.2084L14.0565 19.2081ZM2.7615 20.3358C2.8248 20.3602 2.88615 20.3825 2.94756 20.4033C3.84056 20.7055 5.01135 20.8523 6.52675 20.8523C7.76136 20.8523 9.00244 20.7579 10.0974 20.6745C10.8771 20.6152 11.5504 20.5639 12.0225 20.5639L12.0456 20.5641C12.5191 20.5658 13.1821 20.6162 13.9497 20.6746C15.0448 20.758 16.2838 20.8522 17.5183 20.8522C19.0339 20.8522 20.2047 20.7054 21.0975 20.4033C21.16 20.3821 21.2225 20.3595 21.2868 20.3347C21.3062 20.4961 21.3159 20.6563 21.3159 20.8119C21.3159 22.8618 19.6466 24.5294 17.5948 24.5294H6.45026C4.39837 24.5294 2.72912 22.8618 2.72912 20.8119C2.72912 20.6588 2.73995 20.4989 2.7615 20.3358ZM8.24109 14.262C9.21123 14.1166 10.238 14.027 11.2947 13.9959C11.321 14.4998 11.4064 15.0168 11.4892 15.5173C11.6751 16.6427 11.8673 17.8061 11.5063 19.1065C11.0648 19.1262 10.5424 19.1659 9.99024 19.2079L9.98353 19.2084C9.6428 19.2344 9.22112 19.2666 8.79349 19.2948C7.75099 17.2523 7.94529 15.5366 8.24109 14.262ZM14.299 7.86906H14.2982C12.6944 7.86906 11.5139 7.68695 10.7893 7.32791C10.3761 7.12309 10.1162 6.70482 10.111 6.23625L10.1052 5.71986C10.1023 5.45505 10.1944 5.19753 10.3646 4.99477L10.3682 4.99054C11.0424 4.18939 12.4897 3.50001 14.4492 3.04497C14.1421 4.77684 14.3099 6.3116 14.9757 7.85971C14.741 7.86594 14.5138 7.86906 14.299 7.86906ZM17.6057 14.5642C19.4286 15.0018 20.7879 15.6666 21.4393 16.4408C21.8134 16.8854 21.9502 17.3596 21.8575 17.8903C21.6847 18.8799 20.2248 19.3817 17.5182 19.3817C17.457 19.3817 17.3956 19.3815 17.3342 19.3809C18.0857 17.4935 17.8844 15.8259 17.6057 14.5642ZM29.6299 6.37765C29.4572 7.36732 27.9972 7.86906 25.2906 7.86906C25.2293 7.86906 25.1679 7.86877 25.1065 7.86824C25.858 5.98097 25.6567 4.31333 25.378 3.0515C27.2009 3.48901 28.5602 4.15393 29.2116 4.92807C29.5858 5.37281 29.7225 5.84697 29.6299 6.37765ZM30.3384 3.98187C29.0562 2.45823 26.4958 1.73209 24.5725 1.39116C24.5275 1.37898 24.4817 1.37104 24.4363 1.36763C23.0286 1.12711 21.4651 1 19.9148 1H19.9146H19.9145L19.8159 1.00035C15.9312 1.01347 11.1133 1.81997 9.24172 4.04405C8.60037 4.80637 8.34713 5.70074 8.50946 6.63047C8.52871 6.74064 8.55591 6.85305 8.5903 6.96457V6.97881L8.59036 7.00304L8.60749 7.02027L8.60843 7.02122C8.7289 7.38291 8.92708 7.70777 9.19798 7.98753C9.08758 8.42163 9.02929 8.87443 9.02929 9.2993C9.02929 10.4952 9.44421 11.6544 10.1999 12.5768C8.38405 12.6965 6.68707 12.9795 5.28578 13.3968C3.51608 13.9237 2.23207 14.6504 1.46949 15.5566C0.82807 16.3187 0.574895 17.2131 0.737221 18.143C0.757004 18.2561 0.78503 18.3713 0.820651 18.4856L0.824831 18.4989C0.944118 18.8748 1.14619 19.2114 1.42574 19.5002C1.31528 19.9344 1.25705 20.3871 1.25705 20.8119C1.25705 23.6726 3.58662 26 6.4502 26H17.5947C20.4582 26 22.7878 23.6726 22.7878 20.8119C22.7878 20.373 22.7325 19.9173 22.6277 19.4916C22.9882 19.1159 23.2169 18.6624 23.3077 18.143C23.4748 17.1857 23.2183 16.2698 22.566 15.4946C22.2603 15.1313 21.863 14.7932 21.3831 14.4874H25.367C28.2306 14.4874 30.5602 12.1599 30.5602 9.29924C30.5602 8.86043 30.5048 8.40469 30.4001 7.979C30.7608 7.60331 30.9895 7.1498 31.0801 6.63035C31.2471 5.67286 30.9907 4.75702 30.3384 3.98187Z"/>
</mask>
<path fill-rule="evenodd" clip-rule="evenodd" d="M16.0135 2.74928C16.9828 2.60387 18.0096 2.51441 19.067 2.48317C19.0928 2.98245 19.1747 3.47907 19.2614 4.0037C19.4474 5.13 19.6396 6.29325 19.2786 7.59378C18.8364 7.61348 18.3107 7.65348 17.7553 7.69572C17.3916 7.72336 16.9809 7.75477 16.5659 7.78212C15.5233 5.73962 15.7176 4.02381 16.0135 2.74928ZM23.79 2.74534C24.1637 4.1921 24.4718 5.8925 23.52 7.81265C22.9289 7.77901 22.3478 7.73477 21.8338 7.69566L21.8292 7.6953C21.4604 7.66725 21.1106 7.64066 20.7888 7.62019C21.1103 6.16496 20.8998 4.89125 20.7139 3.76535C20.6389 3.31102 20.5678 2.88092 20.5416 2.47717C21.678 2.50152 22.7703 2.59164 23.79 2.74534ZM7.20331 19.3723C6.96827 19.3786 6.74607 19.3817 6.52657 19.3817C4.92933 19.3817 3.75171 19.2012 3.02639 18.8451C2.60736 18.6394 2.34376 18.2152 2.33846 17.7378L2.33305 17.2554C2.32999 16.9763 2.42201 16.7107 2.59229 16.5075L2.59611 16.5029C3.27009 15.7021 4.71731 15.0127 6.67683 14.5577C6.36972 16.2894 6.53752 17.8241 7.20331 19.3723ZM12.3602 12.5135C11.2131 11.8465 10.5013 10.6163 10.5013 9.29924C10.5013 9.14601 10.5122 8.98613 10.5337 8.82314C10.5967 8.84749 10.6581 8.86973 10.7199 8.89061C11.6128 9.19277 12.7835 9.33965 14.299 9.33965C15.5337 9.33965 16.7726 9.24536 17.8656 9.16224L17.8686 9.16201C18.6485 9.10266 19.3222 9.05136 19.7948 9.05136L19.8185 9.05148C20.2903 9.05307 20.9538 9.10354 21.7221 9.16201C22.817 9.24536 24.0559 9.33959 25.2906 9.33959C26.8062 9.33959 27.977 9.19277 28.8698 8.89061C28.9324 8.86943 28.9949 8.84679 29.0591 8.82196C29.0785 8.98349 29.0882 9.14371 29.0882 9.29924C29.0883 10.2905 28.7008 11.2236 27.9971 11.9266C27.2935 12.6296 26.3595 13.0167 25.3672 13.0167H17.3884C17.1952 12.9767 16.9973 12.9387 16.8 12.9038C16.7555 12.8917 16.71 12.8838 16.6644 12.8803C15.3256 12.6517 13.8378 12.5249 12.3602 12.5135ZM14.0565 19.2081C13.6878 19.1801 13.3383 19.1534 13.0165 19.1329C13.338 17.6779 13.1275 16.4041 12.9415 15.278C12.8665 14.8238 12.7955 14.3938 12.7693 13.99C13.906 14.0143 14.9982 14.1043 16.0177 14.2581C16.3913 15.7048 16.6995 17.4051 15.7476 19.3255C15.1634 19.2922 14.5812 19.2479 14.0664 19.2088L14.0616 19.2084L14.0565 19.2081ZM2.7615 20.3358C2.8248 20.3602 2.88615 20.3825 2.94756 20.4033C3.84056 20.7055 5.01135 20.8523 6.52675 20.8523C7.76136 20.8523 9.00244 20.7579 10.0974 20.6745C10.8771 20.6152 11.5504 20.5639 12.0225 20.5639L12.0456 20.5641C12.5191 20.5658 13.1821 20.6162 13.9497 20.6746C15.0448 20.758 16.2838 20.8522 17.5183 20.8522C19.0339 20.8522 20.2047 20.7054 21.0975 20.4033C21.16 20.3821 21.2225 20.3595 21.2868 20.3347C21.3062 20.4961 21.3159 20.6563 21.3159 20.8119C21.3159 22.8618 19.6466 24.5294 17.5948 24.5294H6.45026C4.39837 24.5294 2.72912 22.8618 2.72912 20.8119C2.72912 20.6588 2.73995 20.4989 2.7615 20.3358ZM8.24109 14.262C9.21123 14.1166 10.238 14.027 11.2947 13.9959C11.321 14.4998 11.4064 15.0168 11.4892 15.5173C11.6751 16.6427 11.8673 17.8061 11.5063 19.1065C11.0648 19.1262 10.5424 19.1659 9.99024 19.2079L9.98353 19.2084C9.6428 19.2344 9.22112 19.2666 8.79349 19.2948C7.75099 17.2523 7.94529 15.5366 8.24109 14.262ZM14.299 7.86906H14.2982C12.6944 7.86906 11.5139 7.68695 10.7893 7.32791C10.3761 7.12309 10.1162 6.70482 10.111 6.23625L10.1052 5.71986C10.1023 5.45505 10.1944 5.19753 10.3646 4.99477L10.3682 4.99054C11.0424 4.18939 12.4897 3.50001 14.4492 3.04497C14.1421 4.77684 14.3099 6.3116 14.9757 7.85971C14.741 7.86594 14.5138 7.86906 14.299 7.86906ZM17.6057 14.5642C19.4286 15.0018 20.7879 15.6666 21.4393 16.4408C21.8134 16.8854 21.9502 17.3596 21.8575 17.8903C21.6847 18.8799 20.2248 19.3817 17.5182 19.3817C17.457 19.3817 17.3956 19.3815 17.3342 19.3809C18.0857 17.4935 17.8844 15.8259 17.6057 14.5642ZM29.6299 6.37765C29.4572 7.36732 27.9972 7.86906 25.2906 7.86906C25.2293 7.86906 25.1679 7.86877 25.1065 7.86824C25.858 5.98097 25.6567 4.31333 25.378 3.0515C27.2009 3.48901 28.5602 4.15393 29.2116 4.92807C29.5858 5.37281 29.7225 5.84697 29.6299 6.37765ZM30.3384 3.98187C29.0562 2.45823 26.4958 1.73209 24.5725 1.39116C24.5275 1.37898 24.4817 1.37104 24.4363 1.36763C23.0286 1.12711 21.4651 1 19.9148 1H19.9146H19.9145L19.8159 1.00035C15.9312 1.01347 11.1133 1.81997 9.24172 4.04405C8.60037 4.80637 8.34713 5.70074 8.50946 6.63047C8.52871 6.74064 8.55591 6.85305 8.5903 6.96457V6.97881L8.59036 7.00304L8.60749 7.02027L8.60843 7.02122C8.7289 7.38291 8.92708 7.70777 9.19798 7.98753C9.08758 8.42163 9.02929 8.87443 9.02929 9.2993C9.02929 10.4952 9.44421 11.6544 10.1999 12.5768C8.38405 12.6965 6.68707 12.9795 5.28578 13.3968C3.51608 13.9237 2.23207 14.6504 1.46949 15.5566C0.82807 16.3187 0.574895 17.2131 0.737221 18.143C0.757004 18.2561 0.78503 18.3713 0.820651 18.4856L0.824831 18.4989C0.944118 18.8748 1.14619 19.2114 1.42574 19.5002C1.31528 19.9344 1.25705 20.3871 1.25705 20.8119C1.25705 23.6726 3.58662 26 6.4502 26H17.5947C20.4582 26 22.7878 23.6726 22.7878 20.8119C22.7878 20.373 22.7325 19.9173 22.6277 19.4916C22.9882 19.1159 23.2169 18.6624 23.3077 18.143C23.4748 17.1857 23.2183 16.2698 22.566 15.4946C22.2603 15.1313 21.863 14.7932 21.3831 14.4874H25.367C28.2306 14.4874 30.5602 12.1599 30.5602 9.29924C30.5602 8.86043 30.5048 8.40469 30.4001 7.979C30.7608 7.60331 30.9895 7.1498 31.0801 6.63035C31.2471 5.67286 30.9907 4.75702 30.3384 3.98187Z" fill="#6DB631"/>
<path fill-rule="evenodd" clip-rule="evenodd" d="M16.0135 2.74928C16.9828 2.60387 18.0096 2.51441 19.067 2.48317C19.0928 2.98245 19.1747 3.47907 19.2614 4.0037C19.4474 5.13 19.6396 6.29325 19.2786 7.59378C18.8364 7.61348 18.3107 7.65348 17.7553 7.69572C17.3916 7.72336 16.9809 7.75477 16.5659 7.78212C15.5233 5.73962 15.7176 4.02381 16.0135 2.74928ZM23.79 2.74534C24.1637 4.1921 24.4718 5.8925 23.52 7.81265C22.9289 7.77901 22.3478 7.73477 21.8338 7.69566L21.8292 7.6953C21.4604 7.66725 21.1106 7.64066 20.7888 7.62019C21.1103 6.16496 20.8998 4.89125 20.7139 3.76535C20.6389 3.31102 20.5678 2.88092 20.5416 2.47717C21.678 2.50152 22.7703 2.59164 23.79 2.74534ZM7.20331 19.3723C6.96827 19.3786 6.74607 19.3817 6.52657 19.3817C4.92933 19.3817 3.75171 19.2012 3.02639 18.8451C2.60736 18.6394 2.34376 18.2152 2.33846 17.7378L2.33305 17.2554C2.32999 16.9763 2.42201 16.7107 2.59229 16.5075L2.59611 16.5029C3.27009 15.7021 4.71731 15.0127 6.67683 14.5577C6.36972 16.2894 6.53752 17.8241 7.20331 19.3723ZM12.3602 12.5135C11.2131 11.8465 10.5013 10.6163 10.5013 9.29924C10.5013 9.14601 10.5122 8.98613 10.5337 8.82314C10.5967 8.84749 10.6581 8.86973 10.7199 8.89061C11.6128 9.19277 12.7835 9.33965 14.299 9.33965C15.5337 9.33965 16.7726 9.24536 17.8656 9.16224L17.8686 9.16201C18.6485 9.10266 19.3222 9.05136 19.7948 9.05136L19.8185 9.05148C20.2903 9.05307 20.9538 9.10354 21.7221 9.16201C22.817 9.24536 24.0559 9.33959 25.2906 9.33959C26.8062 9.33959 27.977 9.19277 28.8698 8.89061C28.9324 8.86943 28.9949 8.84679 29.0591 8.82196C29.0785 8.98349 29.0882 9.14371 29.0882 9.29924C29.0883 10.2905 28.7008 11.2236 27.9971 11.9266C27.2935 12.6296 26.3595 13.0167 25.3672 13.0167H17.3884C17.1952 12.9767 16.9973 12.9387 16.8 12.9038C16.7555 12.8917 16.71 12.8838 16.6644 12.8803C15.3256 12.6517 13.8378 12.5249 12.3602 12.5135ZM14.0565 19.2081C13.6878 19.1801 13.3383 19.1534 13.0165 19.1329C13.338 17.6779 13.1275 16.4041 12.9415 15.278C12.8665 14.8238 12.7955 14.3938 12.7693 13.99C13.906 14.0143 14.9982 14.1043 16.0177 14.2581C16.3913 15.7048 16.6995 17.4051 15.7476 19.3255C15.1634 19.2922 14.5812 19.2479 14.0664 19.2088L14.0616 19.2084L14.0565 19.2081ZM2.7615 20.3358C2.8248 20.3602 2.88615 20.3825 2.94756 20.4033C3.84056 20.7055 5.01135 20.8523 6.52675 20.8523C7.76136 20.8523 9.00244 20.7579 10.0974 20.6745C10.8771 20.6152 11.5504 20.5639 12.0225 20.5639L12.0456 20.5641C12.5191 20.5658 13.1821 20.6162 13.9497 20.6746C15.0448 20.758 16.2838 20.8522 17.5183 20.8522C19.0339 20.8522 20.2047 20.7054 21.0975 20.4033C21.16 20.3821 21.2225 20.3595 21.2868 20.3347C21.3062 20.4961 21.3159 20.6563 21.3159 20.8119C21.3159 22.8618 19.6466 24.5294 17.5948 24.5294H6.45026C4.39837 24.5294 2.72912 22.8618 2.72912 20.8119C2.72912 20.6588 2.73995 20.4989 2.7615 20.3358ZM8.24109 14.262C9.21123 14.1166 10.238 14.027 11.2947 13.9959C11.321 14.4998 11.4064 15.0168 11.4892 15.5173C11.6751 16.6427 11.8673 17.8061 11.5063 19.1065C11.0648 19.1262 10.5424 19.1659 9.99024 19.2079L9.98353 19.2084C9.6428 19.2344 9.22112 19.2666 8.79349 19.2948C7.75099 17.2523 7.94529 15.5366 8.24109 14.262ZM14.299 7.86906H14.2982C12.6944 7.86906 11.5139 7.68695 10.7893 7.32791C10.3761 7.12309 10.1162 6.70482 10.111 6.23625L10.1052 5.71986C10.1023 5.45505 10.1944 5.19753 10.3646 4.99477L10.3682 4.99054C11.0424 4.18939 12.4897 3.50001 14.4492 3.04497C14.1421 4.77684 14.3099 6.3116 14.9757 7.85971C14.741 7.86594 14.5138 7.86906 14.299 7.86906ZM17.6057 14.5642C19.4286 15.0018 20.7879 15.6666 21.4393 16.4408C21.8134 16.8854 21.9502 17.3596 21.8575 17.8903C21.6847 18.8799 20.2248 19.3817 17.5182 19.3817C17.457 19.3817 17.3956 19.3815 17.3342 19.3809C18.0857 17.4935 17.8844 15.8259 17.6057 14.5642ZM29.6299 6.37765C29.4572 7.36732 27.9972 7.86906 25.2906 7.86906C25.2293 7.86906 25.1679 7.86877 25.1065 7.86824C25.858 5.98097 25.6567 4.31333 25.378 3.0515C27.2009 3.48901 28.5602 4.15393 29.2116 4.92807C29.5858 5.37281 29.7225 5.84697 29.6299 6.37765ZM30.3384 3.98187C29.0562 2.45823 26.4958 1.73209 24.5725 1.39116C24.5275 1.37898 24.4817 1.37104 24.4363 1.36763C23.0286 1.12711 21.4651 1 19.9148 1H19.9146H19.9145L19.8159 1.00035C15.9312 1.01347 11.1133 1.81997 9.24172 4.04405C8.60037 4.80637 8.34713 5.70074 8.50946 6.63047C8.52871 6.74064 8.55591 6.85305 8.5903 6.96457V6.97881L8.59036 7.00304L8.60749 7.02027L8.60843 7.02122C8.7289 7.38291 8.92708 7.70777 9.19798 7.98753C9.08758 8.42163 9.02929 8.87443 9.02929 9.2993C9.02929 10.4952 9.44421 11.6544 10.1999 12.5768C8.38405 12.6965 6.68707 12.9795 5.28578 13.3968C3.51608 13.9237 2.23207 14.6504 1.46949 15.5566C0.82807 16.3187 0.574895 17.2131 0.737221 18.143C0.757004 18.2561 0.78503 18.3713 0.820651 18.4856L0.824831 18.4989C0.944118 18.8748 1.14619 19.2114 1.42574 19.5002C1.31528 19.9344 1.25705 20.3871 1.25705 20.8119C1.25705 23.6726 3.58662 26 6.4502 26H17.5947C20.4582 26 22.7878 23.6726 22.7878 20.8119C22.7878 20.373 22.7325 19.9173 22.6277 19.4916C22.9882 19.1159 23.2169 18.6624 23.3077 18.143C23.4748 17.1857 23.2183 16.2698 22.566 15.4946C22.2603 15.1313 21.863 14.7932 21.3831 14.4874H25.367C28.2306 14.4874 30.5602 12.1599 30.5602 9.29924C30.5602 8.86043 30.5048 8.40469 30.4001 7.979C30.7608 7.60331 30.9895 7.1498 31.0801 6.63035C31.2471 5.67286 30.9907 4.75702 30.3384 3.98187Z" stroke="#6DB631" stroke-width="0.6" mask="url(#path-1-outside-1_4672_20858)"/>
</g>
</g>
</svg>
